<svg width="23" height="20" viewBox="0 0 23 20" fill="none" xmlns="http://www.w3.org/2000/svg">
<path fill-rule="evenodd" clip-rule="evenodd" d="M13.5984 18.7883C14.0633 18.4963 14.4685 18.0731 15.0884 18.1327C15.3268 18.1327 15.2731 17.9599 15.2791 17.8288L15.2791 10.8139C15.2791 10.647 15.2791 10.5039 15.0884 10.4086C13.3004 9.50863 12.5256 7.73851 11.429 6.23659C10.8692 5.48409 10.4662 4.6268 10.2441 3.71561C10.0219 2.80442 9.98502 1.85789 10.1356 0.932183C10.2131 0.401744 9.96279 0.169309 9.49195 0.0620281C9.25385 -0.0179623 8.99656 -0.0206955 8.75681 0.0542252C8.51706 0.129148 8.30711 0.277892 8.15692 0.479226C7.64272 1.4338 7.29788 2.4703 7.13775 3.54267C7.03047 4.43071 7.35231 5.29491 7.45959 6.17103C7.54303 6.81471 7.69204 7.44646 7.8172 8.10206C7.65628 8.2153 7.47747 8.1557 7.31059 8.1557L1.38038 8.1557C0.545985 8.1557 0.140711 8.39411 0.0274716 8.94243C-0.0367718 9.28301 0.0123755 9.63527 0.167377 9.94527C0.322379 10.2553 0.574696 10.5059 0.885713 10.6589C1.03471 10.7304 1.30292 10.6589 1.3208 10.8973C1.33868 11.1357 1.05856 11.1059 0.927437 11.2013C0.212238 11.6959 0.33144 12.7032 1.1718 13.2873C1.36848 13.4303 1.7678 13.3647 1.7678 13.6568C1.7678 13.9488 1.41614 13.8892 1.24926 14.0501C0.653265 14.6461 0.963185 15.6891 1.84526 16.1183C1.96345 16.1537 2.07898 16.1975 2.19095 16.2494C2.29227 16.3149 2.38764 16.3924 2.19095 16.5235C1.33868 17.1195 1.35656 17.9897 2.19096 18.6095L2.44723 18.7943C2.76138 18.9803 3.12724 19.0597 3.49023 19.0208C6.58943 19.0208 9.68664 19.0208 12.7819 19.0208C12.9266 19.0386 13.0734 19.0272 13.2137 18.9873C13.3539 18.9473 13.4847 18.8797 13.5984 18.7883Z" fill="white" fill-opacity="0.3"/>
<path fill-rule="evenodd" clip-rule="evenodd" d="M22.4073 14.664C22.4073 13.18 22.4073 11.684 22.4073 10.206C22.4073 9.90795 22.4073 9.75895 22.008 9.75895C20.1961 9.78279 18.3843 9.78279 16.5724 9.75895C16.2148 9.75895 16.1612 9.87816 16.1612 10.194C16.1612 13.174 16.1612 16.154 16.1612 19.1638C16.1612 19.5393 16.2625 19.6466 16.644 19.6406C18.4022 19.6406 20.1604 19.6406 21.9186 19.6406C22.3536 19.6406 22.4132 19.4916 22.4132 19.1102C22.3953 17.6381 22.4073 16.154 22.4073 14.664Z" fill="white" fill-opacity="0.3"/>
</svg>
