<svg width="23" height="20" viewBox="0 0 23 20" fill="none" xmlns="http://www.w3.org/2000/svg">
<path fill-rule="evenodd" clip-rule="evenodd" d="M8.81484 18.7884C8.34996 18.4963 7.94468 18.0732 7.32484 18.1328C7.08644 18.1328 7.14007 17.9599 7.13411 17.8288L7.13411 10.8139C7.13411 10.647 7.13412 10.504 7.32484 10.4086C9.11284 9.50866 9.88763 7.73854 10.9843 6.23662C11.5441 5.48412 11.947 4.62683 12.1692 3.71564C12.3913 2.80445 12.4282 1.85792 12.2776 0.932214C12.2001 0.401774 12.4504 0.169339 12.9213 0.0620586C13.1594 -0.0179318 13.4167 -0.020665 13.6564 0.0542557C13.8962 0.129178 14.1061 0.277923 14.2563 0.479257C14.7705 1.43383 15.1153 2.47033 15.2755 3.5427C15.3828 4.43074 15.0609 5.29494 14.9536 6.17106C14.8702 6.81474 14.7212 7.44649 14.596 8.10209C14.7569 8.21533 14.9358 8.15573 15.1026 8.15573L21.0328 8.15573C21.8672 8.15573 22.2725 8.39414 22.3858 8.94246C22.45 9.28304 22.4008 9.6353 22.2458 9.9453C22.0908 10.2553 21.8385 10.506 21.5275 10.6589C21.3785 10.7305 21.1103 10.6589 21.0924 10.8973C21.0745 11.1357 21.3547 11.1059 21.4858 11.2013C22.201 11.696 22.0818 12.7032 21.2414 13.2873C21.0447 13.4303 20.6454 13.3648 20.6454 13.6568C20.6454 13.9489 20.9971 13.8893 21.164 14.0502C21.76 14.6462 21.45 15.6892 20.568 16.1183C20.4498 16.1538 20.3342 16.1976 20.2223 16.2494C20.1209 16.315 20.0256 16.3925 20.2223 16.5236C21.0745 17.1196 21.0567 17.9897 20.2223 18.6096L19.966 18.7943C19.6518 18.9803 19.286 19.0598 18.923 19.0208C15.8238 19.0208 12.7266 19.0208 9.63136 19.0208C9.48663 19.0386 9.33979 19.0272 9.19954 18.9873C9.0593 18.9474 8.92849 18.8797 8.81484 18.7884Z" fill="white" fill-opacity="0.3"/>
<path fill-rule="evenodd" clip-rule="evenodd" d="M0.00596138 14.6641C0.00596151 13.18 0.00596164 11.6841 0.00596177 10.206C0.00596179 9.90799 0.00595179 9.75898 0.405271 9.75899C2.21711 9.78283 4.02895 9.78283 5.84079 9.75899C6.19839 9.75899 6.25203 9.87819 6.25203 10.1941C6.25203 13.1741 6.25203 16.1541 6.25203 19.1639C6.25203 19.5393 6.15071 19.6466 5.76927 19.6407C4.01107 19.6407 2.25287 19.6407 0.494667 19.6407C0.059587 19.6407 -4.75533e-06 19.4917 -4.72198e-06 19.1102C0.0178754 17.6381 0.00596125 16.1541 0.00596138 14.6641Z" fill="white" fill-opacity="0.3"/>
</svg>
