<svg width="298" height="298" viewBox="0 0 298 298" fill="none" xmlns="http://www.w3.org/2000/svg">
<g clip-path="url(#clip0_0_536)">
<rect width="298" height="298" rx="25" fill="#7653DC"/>
<path d="M25.1393 101.445C45.2221 97.5504 65.5543 95.0749 85.9849 94.0369C88.5418 93.8998 91.0926 93.8104 93.6495 93.6971C96.2063 93.5839 98.7632 93.566 101.314 93.4945C103.865 93.423 106.428 93.4528 108.985 93.4349C110.266 93.4349 111.541 93.4349 112.823 93.4349C114.104 93.4349 115.392 93.5243 116.667 93.6256C121.775 94.0249 126.847 94.7699 131.889 95.6103C136.931 96.4507 141.961 97.3983 146.968 98.4353C166.993 102.607 186.84 107.56 206.627 112.704C216.513 115.29 226.387 117.94 236.248 120.654C246.11 123.368 255.942 126.165 265.744 129.046C255.906 126.265 246.049 123.559 236.171 120.928C226.293 118.298 216.412 115.684 206.526 113.085C186.727 108.007 166.88 103.108 146.854 99.0135C141.848 98.0062 136.836 97.0109 131.799 96.1646C126.763 95.3183 121.709 94.5494 116.625 94.1382C115.358 94.0309 114.088 93.9634 112.817 93.9355C111.541 93.9355 110.26 93.9355 108.985 93.9355C106.434 93.9355 103.877 93.8938 101.326 93.9713C98.7751 94.0488 96.2182 94.0428 93.6614 94.1441C91.1046 94.2455 88.5596 94.3289 86.0088 94.4541C75.8013 94.9626 65.6196 95.807 55.4638 96.9871C45.296 98.1254 35.164 99.532 25.1393 101.445Z" fill="#8A6DE1"/>
<path d="M26.7723 88.208C36.9043 87.9517 47.0363 87.7848 57.1683 87.6537C67.3003 87.5226 77.4323 87.5166 87.5643 87.5166L102.768 87.5703L110.367 87.6239C111.637 87.6239 112.9 87.6239 114.17 87.6776C115.439 87.7312 116.709 87.755 117.972 87.8504C123.038 88.1842 128.104 88.7384 133.111 89.3881C138.117 90.0377 143.159 90.741 148.166 91.5337C168.185 94.6984 188.098 98.4711 207.992 102.363C217.925 104.326 227.859 106.336 237.792 108.395C247.725 110.453 257.633 112.582 267.515 114.784C257.581 112.698 247.648 110.661 237.715 108.675C227.781 106.688 217.848 104.713 207.915 102.75C188.02 98.936 168.072 95.217 148.07 92.1237C143.07 91.343 138.057 90.6039 133.039 89.9424C128.021 89.2808 122.985 88.7146 117.942 88.363C116.679 88.2616 115.421 88.2199 114.158 88.1782C112.894 88.1365 111.625 88.1365 110.361 88.1126L102.762 88.0292L87.5643 87.9279C77.4323 87.8921 67.3003 87.904 57.1683 87.9636C47.0363 87.9934 36.9043 88.059 26.7723 88.208Z" fill="#8A6DE1"/>
<path d="M28.6616 72.9385L58.855 75.3225L89.0364 77.7959L104.127 79.0296C109.157 79.4468 114.194 79.8163 119.218 80.3468C121.733 80.5732 124.236 80.901 126.745 81.1752C129.255 81.4494 131.764 81.7712 134.267 82.0692C139.277 82.6851 144.284 83.3248 149.286 83.9883C169.3 86.6763 189.284 89.5609 209.262 92.4813L239.216 96.9215L269.148 101.535L209.196 92.8568C189.212 90.002 169.222 87.1829 149.203 84.5605C139.202 83.2433 129.189 81.9202 119.158 80.8414C114.146 80.2991 109.11 79.9057 104.085 79.4706L88.9947 78.1833L58.8252 75.6086L28.6616 72.9385Z" fill="#8A6DE1"/>
<path d="M31.29 51.6851C40.9988 54.534 50.7911 57.0908 60.6072 59.5225C70.4233 61.9542 80.2752 64.2905 90.1748 66.3646L97.6009 67.9023L105.045 69.3684C107.524 69.8631 110.016 70.2922 112.501 70.7631C114.986 71.2339 117.478 71.6571 119.975 72.0326C129.97 73.5345 140.03 74.6371 150.085 75.7337C170.2 77.9151 190.35 79.7627 210.507 81.5328L240.748 84.0837L271.001 86.569L240.724 84.3698C230.64 83.5751 220.556 82.7586 210.471 81.9202C190.309 80.2216 170.152 78.4336 150.025 76.3178C144.991 75.7854 139.963 75.2073 134.94 74.5834C129.916 73.9874 124.898 73.308 119.897 72.5332C117.394 72.1518 114.897 71.7107 112.412 71.2339C109.926 70.7571 107.435 70.322 104.956 69.8154L97.5175 68.3254L90.0854 66.752C70.328 62.4787 50.66 57.5378 31.29 51.6851Z" fill="#8A6DE1"/>
<path d="M33.7753 31.588C42.8703 36.356 52.0964 40.8359 61.4536 45.0278C70.7869 49.2713 80.2395 53.2764 89.8649 56.8047C99.4903 60.3331 109.318 63.3607 119.444 64.9699C129.57 66.5791 139.756 67.7473 149.96 68.7188C170.382 70.6141 190.845 71.8637 211.348 72.4676C216.473 72.6583 221.599 72.712 226.724 72.8193L234.419 72.861H238.263L242.107 72.8252C252.364 72.7418 262.627 72.5093 272.837 71.4783C262.639 72.6047 252.37 72.9325 242.113 73.1113L238.269 73.1709H234.419H226.724C221.593 73.0815 216.461 73.0398 211.336 72.8729C190.821 72.3246 170.337 71.1326 149.882 69.2969C139.667 68.2897 129.463 67.1453 119.337 65.4408C109.211 63.7362 99.3294 60.6728 89.704 57.1564C70.4889 50.0044 51.8997 41.2015 33.7753 31.588Z" fill="#8A6DE1"/>
<path d="M137.354 77.2356C137.103 77.7667 136.701 78.2119 136.198 78.5152C135.695 78.8185 135.114 78.9665 134.527 78.9404C133.94 78.9144 133.374 78.7155 132.9 78.3688C132.426 78.0221 132.065 77.5431 131.863 76.9918C131.66 76.4405 131.625 75.8417 131.761 75.2704C131.898 74.6992 132.2 74.1811 132.63 73.7811C133.06 73.3811 133.599 73.1172 134.179 73.0224C134.758 72.9276 135.353 73.0062 135.888 73.2484C136.248 73.4114 136.572 73.6445 136.842 73.934C137.111 74.2236 137.32 74.5638 137.456 74.9349C137.593 75.306 137.654 75.7005 137.636 76.0955C137.619 76.4905 137.523 76.8781 137.354 77.2356Z" fill="#8A6DE1"/>
<path d="M143.745 63.5186L141.664 62.55L135.291 76.2356L137.372 77.2042L143.745 63.5186Z" fill="#8A6DE1"/>
<path d="M148.005 77.3787C147.753 77.9096 147.35 78.3542 146.846 78.6567C146.342 78.9592 145.76 79.106 145.173 79.0787C144.587 79.0514 144.021 78.8511 143.547 78.5032C143.074 78.1552 142.714 77.675 142.512 77.123C142.311 76.571 142.277 75.9718 142.416 75.4007C142.554 74.8296 142.858 74.3121 143.29 73.9133C143.721 73.5145 144.261 73.2522 144.841 73.1594C145.421 73.0665 146.016 73.1472 146.55 73.3914C146.91 73.5555 147.233 73.7894 147.501 74.0794C147.769 74.3694 147.976 74.7098 148.112 75.0808C148.247 75.4518 148.307 75.846 148.289 76.2405C148.27 76.635 148.174 77.0219 148.005 77.3787Z" fill="#8A6DE1"/>
<path d="M154.394 63.6624L152.314 62.6938L145.941 76.3794L148.021 77.348L154.394 63.6624Z" fill="#8A6DE1"/>
<path d="M154.382 63.6945L140.805 64.3799L141.657 62.5502L155.234 61.8648L154.382 63.6945Z" fill="#8A6DE1"/>
<path d="M152.773 67.1394L139.202 67.8308L140.054 66.0011L153.625 65.3097L152.773 67.1394Z" fill="#8A6DE1"/>
<path d="M54.385 235.557C54.032 236.316 53.4619 236.953 52.7467 237.388C52.0315 237.823 51.2034 238.036 50.3671 238C49.5309 237.965 48.724 237.682 48.0486 237.187C47.3731 236.693 46.8595 236.009 46.5727 235.223C46.2858 234.437 46.2386 233.583 46.437 232.77C46.6354 231.956 47.0706 231.22 47.6874 230.654C48.3042 230.089 49.075 229.718 49.9022 229.591C50.7294 229.463 51.576 229.583 52.3347 229.937C53.3495 230.413 54.1346 231.271 54.5187 232.324C54.9029 233.377 54.8548 234.539 54.385 235.557Z" fill="#8A6DE1"/>
<path d="M63.3721 216.234L60.4437 214.87L51.4667 234.147L54.3951 235.511L63.3721 216.234Z" fill="#8A6DE1"/>
<path d="M69.3923 235.76C69.0393 236.519 68.4692 237.156 67.754 237.591C67.0388 238.026 66.2107 238.239 65.3745 238.203C64.5382 238.167 63.7313 237.884 63.0559 237.39C62.3805 236.895 61.8668 236.212 61.58 235.425C61.2931 234.639 61.2459 233.785 61.4443 232.972C61.6428 232.159 62.0779 231.423 62.6947 230.857C63.3115 230.291 64.0823 229.921 64.9095 229.793C65.7368 229.666 66.5833 229.786 67.3421 230.139C68.359 230.613 69.1462 231.471 69.5307 232.525C69.9151 233.579 69.8654 234.742 69.3923 235.76Z" fill="#8A6DE1"/>
<path d="M78.3925 216.437L75.4641 215.074L66.4871 234.351L69.4155 235.715L78.3925 216.437Z" fill="#8A6DE1"/>
<path d="M78.374 216.479L59.2484 217.451L60.4523 214.87L79.5779 213.898L78.374 216.479Z" fill="#8A6DE1"/>
<path d="M76.1151 221.337L56.9895 222.308L58.1875 219.727L77.3131 218.762L76.1151 221.337Z" fill="#8A6DE1"/>
<path d="M248.276 111.81C248.064 112.265 247.722 112.647 247.293 112.908C246.864 113.169 246.368 113.297 245.866 113.276C245.364 113.255 244.88 113.085 244.475 112.789C244.07 112.493 243.761 112.083 243.589 111.611C243.416 111.14 243.388 110.628 243.506 110.14C243.625 109.652 243.885 109.21 244.255 108.87C244.624 108.531 245.086 108.308 245.583 108.231C246.079 108.153 246.587 108.225 247.042 108.436C247.652 108.721 248.124 109.236 248.356 109.868C248.587 110.5 248.558 111.198 248.276 111.81Z" fill="#8A6DE1"/>
<path d="M253.675 100.205L251.919 99.3876L246.53 110.961L248.286 111.778L253.675 100.205Z" fill="#8A6DE1"/>
<path d="M257.281 111.935C257.069 112.39 256.727 112.772 256.297 113.033C255.868 113.293 255.371 113.421 254.87 113.399C254.368 113.377 253.884 113.207 253.479 112.91C253.074 112.613 252.766 112.203 252.594 111.731C252.422 111.259 252.394 110.746 252.514 110.259C252.633 109.771 252.895 109.329 253.265 108.99C253.635 108.651 254.098 108.429 254.594 108.353C255.091 108.276 255.598 108.349 256.054 108.561C256.664 108.846 257.136 109.361 257.366 109.994C257.596 110.626 257.566 111.325 257.281 111.935Z" fill="#8A6DE1"/>
<path d="M262.68 100.332L260.924 99.5147L255.534 111.088L257.29 111.905L262.68 100.332Z" fill="#8A6DE1"/>
<path d="M262.675 100.36L251.196 100.939L251.917 99.3949L263.396 98.8108L262.675 100.36Z" fill="#8A6DE1"/>
<path d="M78.6065 64.5587C78.3948 65.014 78.0529 65.3963 77.624 65.6573C77.1951 65.9184 76.6985 66.0464 76.1968 66.0251C75.6952 66.0039 75.2111 65.8345 74.8058 65.5382C74.4004 65.2419 74.0921 64.8321 73.9196 64.3605C73.7471 63.889 73.7184 63.3769 73.8369 62.889C73.9555 62.4011 74.216 61.9593 74.5856 61.6195C74.9552 61.2797 75.4172 61.057 75.9133 60.9797C76.4094 60.9025 76.9173 60.974 77.3727 61.1853C77.9827 61.4701 78.4551 61.985 78.6863 62.6172C78.9175 63.2495 78.8888 63.9476 78.6065 64.5587Z" fill="#8A6DE1"/>
<path d="M84.0016 52.9626L82.2456 52.1449L76.8564 63.7179L78.6123 64.5356L84.0016 52.9626Z" fill="#8A6DE1"/>
<path d="M87.612 64.6839C87.3998 65.1391 87.0575 65.5211 86.6282 65.7817C86.1989 66.0423 85.7019 66.1698 85.2002 66.1479C84.6985 66.126 84.2145 65.9559 83.8095 65.6589C83.4044 65.362 83.0966 64.9516 82.9248 64.4797C82.7531 64.0078 82.7251 63.4955 82.8445 63.0077C82.9639 62.5199 83.2253 62.0785 83.5956 61.7392C83.9659 61.4 84.4285 61.1782 84.9249 61.1019C85.4213 61.0256 85.9291 61.0982 86.3842 61.3105C86.6868 61.4508 86.9587 61.6495 87.1843 61.8952C87.4099 62.1409 87.5848 62.4287 87.6989 62.7422C87.8129 63.0556 87.864 63.3885 87.8491 63.7217C87.8342 64.0549 87.7536 64.3819 87.612 64.6839Z" fill="#8A6DE1"/>
<path d="M93.0144 53.0842L91.2585 52.2665L85.8693 63.8396L87.6252 64.6572L93.0144 53.0842Z" fill="#8A6DE1"/>
<path d="M93.0058 53.1095L81.5268 53.6936L82.248 52.144L93.7269 51.5599L93.0058 53.1095Z" fill="#8A6DE1"/>
<path d="M215.037 246.023C214.825 246.478 214.482 246.86 214.053 247.121C213.624 247.381 213.127 247.509 212.625 247.487C212.123 247.465 211.639 247.295 211.234 246.998C210.829 246.701 210.521 246.291 210.35 245.819C210.178 245.347 210.15 244.835 210.269 244.347C210.389 243.859 210.65 243.417 211.02 243.078C211.391 242.739 211.853 242.517 212.35 242.441C212.846 242.365 213.354 242.437 213.809 242.65C214.112 242.79 214.384 242.989 214.609 243.234C214.835 243.48 215.01 243.768 215.124 244.081C215.238 244.395 215.289 244.727 215.274 245.061C215.259 245.394 215.178 245.721 215.037 246.023Z" fill="#8A6DE1"/>
<path d="M220.442 234.42L218.686 233.602L213.297 245.175L215.053 245.993L220.442 234.42Z" fill="#8A6DE1"/>
<path d="M224.048 246.148C223.835 246.602 223.492 246.984 223.063 247.243C222.634 247.503 222.137 247.63 221.635 247.607C221.134 247.584 220.651 247.414 220.246 247.117C219.842 246.82 219.534 246.409 219.363 245.938C219.192 245.466 219.164 244.954 219.283 244.467C219.403 243.979 219.664 243.538 220.034 243.199C220.404 242.86 220.866 242.638 221.362 242.561C221.858 242.485 222.366 242.557 222.821 242.769C223.123 242.91 223.395 243.109 223.621 243.355C223.847 243.601 224.022 243.89 224.136 244.204C224.25 244.518 224.301 244.851 224.286 245.184C224.271 245.518 224.19 245.846 224.048 246.148Z" fill="#8A6DE1"/>
<path d="M229.452 234.547L227.696 233.729L222.307 245.303L224.063 246.12L229.452 234.547Z" fill="#8A6DE1"/>
<path d="M229.442 234.568L217.963 235.152L218.684 233.608L230.163 233.024L229.442 234.568Z" fill="#8A6DE1"/>
<path d="M195.422 99.9373C195.171 100.468 194.768 100.913 194.264 101.215C193.76 101.518 193.178 101.665 192.591 101.637C192.004 101.61 191.439 101.41 190.965 101.062C190.492 100.714 190.132 100.234 189.93 99.6816C189.729 99.1296 189.695 98.5304 189.833 97.9593C189.972 97.3882 190.276 96.8707 190.707 96.472C191.139 96.0732 191.679 95.8109 192.259 95.718C192.839 95.6251 193.434 95.7059 193.968 95.9501C194.327 96.1142 194.65 96.348 194.918 96.638C195.186 96.9281 195.394 97.2685 195.529 97.6395C195.665 98.0105 195.725 98.4046 195.707 98.7991C195.688 99.1936 195.592 99.5805 195.422 99.9373Z" fill="#8A6DE1"/>
<path d="M201.812 86.2252L199.732 85.2565L193.359 98.9421L195.44 99.9108L201.812 86.2252Z" fill="#8A6DE1"/>
<path d="M210.517 85.9846L208.437 85.0159L206.595 88.9709L208.675 89.9395L210.517 85.9846Z" fill="#8A6DE1"/>
<path d="M210.269 86.5154L198.879 87.0875L199.732 85.2578L211.121 84.6856L210.269 86.5154Z" fill="#8A6DE1"/>
<path d="M208.66 89.9662L197.27 90.5324L198.122 88.7027L209.512 88.1365L208.66 89.9662Z" fill="#8A6DE1"/>
<path d="M169.544 219.614C169.756 220.736 169.631 221.896 169.184 222.947C168.737 223.998 167.989 224.893 167.033 225.518C166.078 226.144 164.958 226.472 163.816 226.462C162.674 226.451 161.561 226.102 160.617 225.459C159.674 224.816 158.942 223.908 158.514 222.849C158.087 221.79 157.983 220.628 158.215 219.51C158.448 218.392 159.007 217.368 159.821 216.568C160.636 215.767 161.67 215.226 162.791 215.013C164.297 214.729 165.854 215.053 167.12 215.916C168.386 216.779 169.258 218.109 169.544 219.614Z" fill="#8A6DE1"/>
<path d="M164.144 191.008L159.811 191.828L165.211 220.353L169.544 219.532L164.144 191.008Z" fill="#8A6DE1"/>
<path d="M177.451 180.906L173.118 181.726L174.677 189.971L179.011 189.151L177.451 180.906Z" fill="#8A6DE1"/>
<path d="M177.674 181.989L160.521 195.655L159.8 191.84L176.952 178.174L177.674 181.989Z" fill="#8A6DE1"/>
<path d="M179.032 189.176L161.88 202.843L161.158 199.028L178.311 185.362L179.032 189.176Z" fill="#8A6DE1"/>
<path d="M231.248 73.8325C231.107 74.1773 230.867 74.4727 230.558 74.6812C230.25 74.8896 229.886 75.0019 229.514 75.0037C229.141 75.0055 228.776 74.8968 228.466 74.6914C228.155 74.486 227.912 74.193 227.768 73.8495C227.624 73.5061 227.585 73.1275 227.656 72.7618C227.726 72.3961 227.904 72.0597 228.166 71.795C228.428 71.5304 228.763 71.3494 229.128 71.275C229.493 71.2005 229.872 71.236 230.217 71.377C230.678 71.5672 231.046 71.9321 231.239 72.3922C231.432 72.8522 231.435 73.37 231.248 73.8325Z" fill="#8A6DE1"/>
<path d="M234.852 65.0668L233.524 64.5215L229.928 73.283L231.257 73.8283L234.852 65.0668Z" fill="#8A6DE1"/>
<path d="M240.306 64.6582L238.977 64.113L237.938 66.6438L239.267 67.1891L240.306 64.6582Z" fill="#8A6DE1"/>
<path d="M240.176 64.9878L233.054 65.6732L233.537 64.5051L240.659 63.8137L240.176 64.9878Z" fill="#8A6DE1"/>
<path d="M239.27 67.193L232.148 67.8844L232.631 66.7103L239.753 66.0249L239.27 67.193Z" fill="#8A6DE1"/>
<path d="M67.9857 95.807C67.8444 96.1518 67.604 96.4469 67.2949 96.6551C66.9857 96.8632 66.6218 96.9749 66.2492 96.9761C65.8765 96.9773 65.5119 96.868 65.2014 96.6619C64.891 96.4558 64.6486 96.1622 64.5051 95.8183C64.3615 95.4745 64.3232 95.0957 64.3949 94.73C64.4667 94.3644 64.6453 94.0282 64.9082 93.7641C65.1711 93.5 65.5065 93.3198 65.8718 93.2464C66.2371 93.1729 66.6161 93.2095 66.9606 93.3515C67.4218 93.5415 67.7888 93.9068 67.981 94.3672C68.1732 94.8276 68.1749 95.3454 67.9857 95.807Z" fill="#8A6DE1"/>
<path d="M71.5785 87.0256L70.2497 86.4804L66.6545 95.2419L67.9834 95.7872L71.5785 87.0256Z" fill="#8A6DE1"/>
<path d="M77.0322 86.6208L75.7034 86.0756L74.6649 88.6064L75.9937 89.1517L77.0322 86.6208Z" fill="#8A6DE1"/>
<path d="M76.9019 86.9624L69.7797 87.6478L70.2624 86.4796L77.3846 85.7882L76.9019 86.9624Z" fill="#8A6DE1"/>
<path d="M75.996 89.1676L68.8738 89.8589L69.3506 88.6848L76.4728 87.9994L75.996 89.1676Z" fill="#8A6DE1"/>
<path d="M149.358 100.331C149.216 100.675 148.975 100.969 148.666 101.177C148.357 101.384 147.994 101.496 147.622 101.497C147.25 101.498 146.885 101.389 146.575 101.183C146.265 100.977 146.023 100.684 145.879 100.341C145.735 99.9978 145.696 99.6196 145.767 99.2542C145.838 98.8889 146.016 98.5528 146.278 98.2883C146.54 98.0238 146.874 97.8429 147.239 97.7683C147.603 97.6937 147.982 97.7288 148.327 97.8692C148.556 97.9627 148.765 98.1006 148.941 98.2751C149.117 98.4495 149.257 98.6571 149.353 98.8858C149.449 99.1144 149.499 99.3598 149.5 99.6078C149.5 99.8557 149.452 100.101 149.358 100.331Z" fill="#8A6DE1"/>
<path d="M152.944 91.5536L151.615 91.0083L148.02 99.7698L149.349 100.315L152.944 91.5536Z" fill="#8A6DE1"/>
<path d="M158.397 91.151L157.068 90.6058L156.03 93.1366L157.359 93.6819L158.397 91.151Z" fill="#8A6DE1"/>
<path d="M158.268 91.4801L151.146 92.1714L151.628 91.0033L158.751 90.3119L158.268 91.4801Z" fill="#8A6DE1"/>
<path d="M157.362 93.6912L150.24 94.3825L150.722 93.2084L157.845 92.5171L157.362 93.6912Z" fill="#8A6DE1"/>
<path d="M54.3611 67.2586C54.0339 67.5777 53.6366 67.8161 53.201 67.9547C52.7655 68.0934 52.3035 68.1285 51.852 68.0572C50.9405 67.9807 50.0641 67.6707 49.3071 67.1573C48.5391 66.6394 47.9451 65.9021 47.6025 65.0415C47.2754 64.1705 47.1909 63.227 47.3581 62.3118C47.6351 60.4598 48.6309 58.7917 50.1295 57.669C51.7005 56.604 53.6255 56.1955 55.4935 56.5306C57.3469 56.8222 59.0623 57.6872 60.3986 59.004C61.7569 60.3368 62.5904 62.1138 62.7469 64.0104C62.8377 65.8733 62.5393 67.7346 61.8707 69.4757C61.2232 71.2447 60.1361 72.8199 58.7119 74.053C57.2495 75.2757 55.466 76.0516 53.5744 76.288C51.7092 76.5057 49.8192 76.3433 48.0184 75.8107C46.2176 75.278 44.5434 74.3861 43.0967 73.1888C41.6523 71.9716 40.496 70.449 39.7115 68.7307C38.9282 67.0075 38.551 65.1275 38.6089 63.2356C38.6825 61.354 39.1431 59.5077 39.9618 57.812C40.7766 56.1351 41.8552 54.5998 43.1563 53.2645C44.4327 51.9543 45.8032 50.7392 47.2568 49.6289C50.1176 47.4058 53.1215 45.4569 55.7975 43.1146C57.1356 41.981 58.3556 40.715 59.4391 39.336C60.5075 38.0114 61.214 36.4322 61.4893 34.7528C61.5931 33.9592 61.482 33.1524 61.1675 32.4164C61.0201 32.0732 60.804 31.7639 60.5323 31.5076C60.2606 31.2513 59.9393 31.0535 59.5881 30.9264C59.2395 30.817 58.8701 30.7913 58.5097 30.8513C58.1493 30.9114 57.8082 31.0556 57.514 31.2721C56.8748 31.7532 56.38 32.4005 56.0836 33.1436C55.5246 34.8025 55.1469 36.517 54.9571 38.2572C54.7009 40.0452 54.4863 41.8034 54.2837 43.5855C53.4969 50.7375 52.9129 57.8895 52.1738 65.0415C51.7864 68.6175 51.3752 72.1935 50.8447 75.7695C50.5765 77.5575 50.2487 79.3455 49.8852 81.0858C49.7045 81.97 49.4554 82.8388 49.1402 83.6844C48.9412 84.0922 48.6633 84.4565 48.3227 84.7562C47.982 85.0559 47.5853 85.2852 47.1555 85.4306C47.5742 85.2731 47.9574 85.034 48.2827 84.727C48.6081 84.4201 48.8692 84.0514 49.0508 83.6426C49.3336 82.7924 49.5508 81.9216 49.7004 81.0381C50.0401 79.2501 50.2964 77.5038 50.511 75.7218C50.9461 72.1458 51.2619 68.5698 51.554 64.9938C52.15 57.8418 52.6506 50.6898 53.342 43.4961C53.5148 41.7081 53.6996 39.9201 53.938 38.1321C54.0572 37.2381 54.2002 36.3441 54.3671 35.4441C54.5179 34.5181 54.7677 33.611 55.1121 32.7383C55.4744 31.7926 56.0937 30.9669 56.9001 30.3543C57.3345 30.0388 57.8367 29.8292 58.3665 29.7423C58.8964 29.6554 59.4392 29.6935 59.9516 29.8536C60.4513 30.0271 60.9101 30.3012 61.2996 30.6589C61.6892 31.0167 62.0012 31.4505 62.2164 31.9337C62.6244 32.8536 62.7728 33.8677 62.6455 34.866C62.3668 36.7568 61.5914 38.5399 60.3986 40.0333C59.2785 41.4861 58.0124 42.8202 56.62 44.0146C53.8784 46.3986 50.8686 48.425 48.0614 50.6123C45.2543 52.7996 42.5305 55.1896 41.0405 58.3186C40.2856 59.8659 39.8555 61.5515 39.777 63.2714C39.7177 64.9851 40.0521 66.6896 40.7545 68.2539C41.4602 69.8233 42.5091 71.2144 43.8239 72.3246C45.1422 73.4383 46.6761 74.2681 48.3296 74.7622C49.9857 75.2586 51.724 75.4207 53.4433 75.239C55.1463 75.0599 56.761 74.3913 58.0921 73.314C60.7503 71.1505 62.0615 67.497 61.9721 64.076C61.8519 62.3521 61.1182 60.7282 59.9039 59.4987C58.6779 58.2599 57.1009 57.4277 55.3863 57.1147C54.5323 56.9158 53.6463 56.8963 52.7844 57.0575C51.9225 57.2188 51.1035 57.5571 50.3791 58.0513C49.6547 58.5454 49.0408 59.1845 48.5762 59.9281C48.1116 60.6717 47.8064 61.5037 47.68 62.3714C47.5006 63.2356 47.5624 64.1326 47.8588 64.964C48.1648 65.7903 48.7132 66.5049 49.4322 67.0142C50.1548 67.5304 50.9987 67.8507 51.8818 67.944C52.3199 68.028 52.7715 68.0098 53.2015 67.891C53.6315 67.7721 54.0283 67.5557 54.3611 67.2586Z" fill="#8A6DE1"/>
<path d="M48.872 84.036C48.5679 84.5383 48.1221 84.9396 47.5906 85.1894C47.0591 85.4392 46.4657 85.5264 45.8849 85.4401C45.304 85.3538 44.7616 85.0978 44.3257 84.7042C43.8899 84.3107 43.58 83.7971 43.4351 83.228C43.2902 82.6589 43.3166 82.0597 43.511 81.5056C43.7055 80.9515 44.0594 80.4672 44.5282 80.1135C44.997 79.7599 45.5598 79.5526 46.146 79.5177C46.7322 79.4829 47.3157 79.622 47.8231 79.9176C48.1649 80.1168 48.4636 80.382 48.7018 80.6978C48.9401 81.0135 49.1131 81.3736 49.2107 81.757C49.3083 82.1403 49.3287 82.5392 49.2705 82.9305C49.2124 83.3218 49.0769 83.6976 48.872 84.036Z" fill="#8A6DE1"/>
<path d="M200.667 267.604C200.667 269.797 177.536 271.573 149 271.573C120.464 271.573 97.3328 269.785 97.3328 267.604C97.3328 265.423 120.464 263.629 149 263.629C177.536 263.629 200.667 265.423 200.667 267.604Z" fill="#8A6DE1"/>
<path d="M130.661 223.053C129.104 228.221 126.049 232.81 121.884 236.242C117.718 239.674 112.629 241.794 107.259 242.333C101.889 242.872 96.4791 241.808 91.7142 239.273C86.9493 236.738 83.0429 232.848 80.4889 228.093C77.935 223.338 76.8482 217.933 77.3658 212.561C77.8835 207.189 79.9825 202.091 83.3974 197.911C86.8122 193.732 91.3897 190.659 96.5509 189.081C101.712 187.503 107.225 187.49 112.394 189.045C115.827 190.078 119.022 191.777 121.798 194.045C124.574 196.314 126.876 199.107 128.573 202.265C130.269 205.423 131.327 208.884 131.685 212.451C132.043 216.018 131.695 219.621 130.661 223.053Z" fill="#101010"/>
<path d="M170.299 91.3758L150.337 85.364L110.768 216.752L130.731 222.764L170.299 91.3758Z" fill="#101010"/>
<path d="M226.706 210.507C225.15 215.677 222.095 220.269 217.929 223.702C213.763 227.136 208.672 229.257 203.3 229.797C197.928 230.337 192.517 229.272 187.751 226.737C182.984 224.202 179.076 220.31 176.522 215.554C173.967 210.798 172.88 205.391 173.398 200.017C173.916 194.643 176.016 189.544 179.433 185.364C182.849 181.183 187.428 178.11 192.591 176.532C197.754 174.954 203.27 174.943 208.439 176.499C211.872 177.532 215.068 179.231 217.844 181.5C220.62 183.768 222.922 186.561 224.618 189.719C226.315 192.877 227.372 196.338 227.73 199.905C228.089 203.472 227.741 207.075 226.706 210.507Z" fill="#101010"/>
<path d="M266.36 78.8066L246.397 72.7983L206.851 204.193L226.815 210.202L266.36 78.8066Z" fill="#101010"/>
<path d="M266.293 79.0892L145.054 102.923L150.341 85.3532L271.579 61.5251L266.293 79.0892Z" fill="#101010"/>
<path d="M256.322 112.197L135.089 136.031L140.376 118.467L261.608 94.6329L256.322 112.197Z" fill="#101010"/>
<path d="M33.3223 116.047C33.0192 116.696 32.5303 117.24 31.9177 117.611C31.305 117.981 30.5962 118.162 29.8809 118.129C29.1655 118.097 28.4759 117.853 27.8994 117.428C27.3228 117.004 26.8853 116.418 26.6421 115.744C26.3989 115.071 26.3611 114.34 26.5334 113.645C26.7057 112.95 27.0804 112.322 27.61 111.84C28.1396 111.358 28.8003 111.044 29.5085 110.938C30.2166 110.832 30.9403 110.938 31.588 111.243C32.4527 111.653 33.1204 112.388 33.4453 113.288C33.7702 114.188 33.726 115.18 33.3223 116.047Z" fill="white"/>
<path d="M41.0142 99.5185L38.5065 98.3528L30.8392 114.848L33.347 116.014L41.0142 99.5185Z" fill="white"/>
<path d="M46.1542 116.22C45.8526 116.869 45.3652 117.414 44.7538 117.786C44.1423 118.158 43.4343 118.34 42.7193 118.31C42.0042 118.279 41.3143 118.037 40.7368 117.614C40.1593 117.192 39.7201 116.607 39.4748 115.935C39.2296 115.263 39.1893 114.533 39.359 113.837C39.5287 113.142 39.9008 112.513 40.4283 112.029C40.9558 111.545 41.6148 111.229 42.3222 111.12C43.0295 111.011 43.7533 111.114 44.402 111.416C45.271 111.821 45.9436 112.555 46.2722 113.455C46.6007 114.356 46.5583 115.351 46.1542 116.22Z" fill="white"/>
<path d="M53.8357 99.688L51.3282 98.5219L43.6581 115.016L46.1656 116.182L53.8357 99.688Z" fill="white"/>
<path d="M53.8307 99.7168L37.4764 100.557L38.5016 98.3579L54.8558 97.5175L53.8307 99.7168Z" fill="white"/>
<path d="M87.6894 81.7593C87.7322 82.9041 87.4346 84.036 86.8342 85.0117C86.2337 85.9875 85.3575 86.7633 84.3162 87.241C83.2749 87.7188 82.1153 87.8771 80.984 87.6958C79.8528 87.5146 78.8006 87.002 77.9607 86.2229C77.1207 85.4438 76.5306 84.4331 76.2651 83.3186C75.9995 82.2042 76.0703 81.036 76.4686 79.9617C76.8668 78.8875 77.5747 77.9555 78.5026 77.2836C79.4306 76.6116 80.5369 76.2299 81.6818 76.1867C82.4424 76.1572 83.2013 76.278 83.9151 76.5422C84.629 76.8065 85.2837 77.2089 85.8417 77.7266C86.3998 78.2442 86.8502 78.8669 87.1673 79.5589C87.4844 80.2509 87.6618 80.9986 87.6894 81.7593Z" fill="white"/>
<path d="M86.5876 52.5915L82.1685 52.759L83.2709 81.8527L87.69 81.6852L86.5876 52.5915Z" fill="white"/>
<path d="M101.316 44.5328L96.8965 44.7003L97.2152 53.1097L101.634 52.9423L101.316 44.5328Z" fill="white"/>
<path d="M101.362 45.6595L82.3135 56.6557L82.1645 52.7639L101.213 41.7677L101.362 45.6595Z" fill="white"/>
<path d="M101.636 52.9904L82.5877 63.9866L82.4446 60.0947L101.487 49.0985L101.636 52.9904Z" fill="white"/>
<path d="M247.537 234.288C247.222 234.844 246.75 235.294 246.18 235.582C245.61 235.87 244.968 235.982 244.334 235.905C243.7 235.827 243.103 235.564 242.618 235.148C242.134 234.731 241.784 234.181 241.613 233.566C241.441 232.95 241.456 232.298 241.655 231.691C241.854 231.084 242.229 230.55 242.731 230.156C243.234 229.762 243.842 229.526 244.479 229.477C245.115 229.429 245.752 229.57 246.309 229.883C246.68 230.091 247.006 230.37 247.268 230.704C247.531 231.038 247.724 231.421 247.838 231.83C247.953 232.239 247.985 232.667 247.933 233.089C247.881 233.511 247.746 233.918 247.537 234.288Z" fill="white"/>
<path d="M255.507 220.107L253.357 218.896L245.387 233.047L247.537 234.258L255.507 220.107Z" fill="white"/>
<path d="M264.871 220.569L262.721 219.358L260.417 223.45L262.567 224.661L264.871 220.569Z" fill="white"/>
<path d="M264.576 221.116L252.311 220.782L253.377 218.893L265.643 219.221L264.576 221.116Z" fill="white"/>
<path d="M262.568 224.68L250.302 224.352L251.369 222.457L263.635 222.791L262.568 224.68Z" fill="white"/>
<path d="M25.2346 152.117C26.9094 153.309 80.3587 169.902 82.7903 169.246C83.0585 169.169 83.6188 166.767 86.0326 160.801C86.1458 160.515 87.6835 159.692 90.0317 158.584C98.8525 154.412 119.188 146.068 119.188 146.068L98.3281 115.552L65.4408 134.41L56.8882 139.315C56.8882 139.315 32.0409 144.029 29.4424 145.031C26.8438 146.032 23.5599 150.919 25.2346 152.117Z" fill="#F7A9A0"/>
<path d="M25.2346 152.123C26.9094 153.315 80.3587 169.902 82.7903 169.246C83.0585 169.169 83.6188 166.767 86.0326 160.801C77.9866 159.949 36.195 151.265 36.0341 146.056C35.9745 144 43.0192 142.116 44.2887 141.794C37.7327 143.1 30.7655 144.542 29.4602 145.049C26.8736 146.062 23.5598 150.919 25.2346 152.123Z" fill="#263238"/>
<path d="M78.1415 124.928L81.0619 130.768L95.6163 159.919C95.6163 159.919 129.648 146.622 139.839 141.967C140.167 141.818 167.059 173.811 190.017 184.641C207.611 192.943 222.028 189.26 233.799 173.913L206.764 152.367C184.438 133.015 160.825 105.337 142.808 102.899C123.235 100.205 78.1415 124.928 78.1415 124.928Z" fill="#263238"/>
<path d="M85.1267 124.91C88.1782 130.637 87.3796 128.951 90.3715 134.714C91.8376 137.533 99.234 151.694 100.164 154.549C100.164 154.614 100.086 154.662 100.051 154.608C98.2625 152.171 91.1999 137.855 89.7874 135.012C86.9028 129.195 87.7908 130.84 84.9658 124.987C84.96 124.977 84.9565 124.965 84.9554 124.953C84.9543 124.941 84.9556 124.929 84.9593 124.917C84.9631 124.906 84.9691 124.895 84.977 124.886C84.985 124.877 84.9947 124.869 85.0056 124.864C85.0165 124.859 85.0284 124.856 85.0404 124.855C85.0525 124.855 85.0646 124.857 85.0759 124.861C85.0872 124.865 85.0976 124.872 85.1063 124.88C85.115 124.888 85.1219 124.899 85.1267 124.91Z" fill="#37474F"/>
<path d="M83.3744 135.405L95.6103 159.919C95.6103 159.919 129.654 146.628 139.839 141.967C140.167 141.818 167.059 173.811 190.011 184.641C207.611 192.943 222.034 189.26 233.793 173.913L206.764 152.361C203.784 149.799 200.804 147.093 197.824 144.321C169.705 142.176 108.079 137.348 83.3744 135.405Z" fill="#37474F"/>
<path d="M38.5731 217.91C40.5578 218.458 96.4447 215.526 98.5009 214.095C98.7214 213.928 98.4175 211.479 98.6201 205.048C98.6201 204.744 99.8121 203.439 101.6 201.585C108.442 194.63 124.653 179.783 124.653 179.783L94.5435 158.327L70.2088 187.406L63.8733 194.964C63.8733 194.964 42.1849 208.004 40.0929 209.792C38.0009 211.58 36.5825 217.355 38.5731 217.91Z" fill="#F7A9A0"/>
<path d="M38.5671 217.91C40.5578 218.458 96.4447 215.526 98.5009 214.095C98.7214 213.928 98.4174 211.479 98.6261 205.048C90.7827 207.027 48.5621 213.344 46.6131 208.487C45.8443 206.58 51.8043 202.378 52.8831 201.639C47.1615 205.131 41.124 208.886 40.0929 209.792C38.0188 211.657 36.5884 217.355 38.5671 217.91Z" fill="#263238"/>
<path d="M240.826 150.383C240.826 150.383 247.078 172.333 236.32 183.014C228.572 190.708 217.588 192.46 207.891 192.031C181.101 190.839 155.616 161.081 146.664 160.229C142.069 159.794 110.01 198.295 110.01 198.295L79.864 174.3C86.2769 167.536 123.968 121.256 145.054 119.206C159.484 117.805 198.987 144.238 199.833 143.809C201.222 143.094 207.325 139.398 207.325 139.398L240.826 150.383Z" fill="#263238"/>
<path d="M85.1863 170.933C88.9113 173.502 92.4396 176.35 95.9977 179.122C99.5558 181.893 103.066 184.671 106.547 187.502C108.526 189.111 110.492 190.726 112.406 192.401C112.453 192.442 112.406 192.508 112.34 192.472C108.651 189.85 105.087 187.067 101.523 184.289C97.9585 181.512 94.4541 178.74 90.9615 175.945C88.9887 174.342 86.9862 172.745 85.0969 171.052C85.0373 170.975 85.1147 170.885 85.1863 170.933Z" fill="#37474F"/>
<path d="M218.595 149.054C218.631 148.928 218.821 149 218.803 149.119C218.336 152.546 219.091 156.028 220.937 158.953C223.053 162.195 226.534 164.317 229.657 166.481C229.961 166.683 229.657 167.154 229.323 167.011C227.349 166.095 225.481 164.968 223.75 163.65C222.154 162.496 220.81 161.03 219.799 159.341C218.895 157.804 218.321 156.095 218.113 154.324C217.906 152.553 218.07 150.758 218.595 149.054Z" fill="#37474F"/>
<path d="M199.565 146.103C200.316 145.424 201.12 144.792 201.895 144.137C203.731 142.587 205.578 141.031 207.474 139.559C207.658 139.422 207.909 139.708 207.742 139.863C206.425 141.085 205.048 142.247 203.695 143.439C203 144.043 202.3 144.639 201.597 145.227C200.886 145.759 200.227 146.358 199.63 147.015C199.082 147.719 199.511 148.481 200.304 148.708C201.016 148.852 201.757 148.716 202.372 148.327C203.802 147.582 205.03 146.372 206.282 145.347C207.05 144.751 207.813 144.155 208.588 143.523C209.363 142.891 210.275 142.295 211.097 141.663C211.151 141.622 211.222 141.705 211.175 141.747C210.43 142.474 209.72 143.243 208.97 143.964C208.219 144.685 207.468 145.4 206.705 146.109C205.942 146.819 205.239 147.427 204.482 148.052C203.846 148.616 203.121 149.069 202.336 149.393C201.067 149.876 199.034 149.673 198.677 148.07C198.636 147.693 198.698 147.312 198.854 146.966C199.01 146.621 199.255 146.323 199.565 146.103Z" fill="#37474F"/>
<path d="M110.546 188.992C118.258 180.087 139.255 157.29 144.125 153.345C144.618 152.955 145.187 152.671 145.795 152.51C146.403 152.349 147.037 152.315 147.659 152.409C149.03 152.606 150.204 153.5 151.342 154.233L155.413 156.855L163.757 162.261C168.984 165.64 174.181 169.061 179.45 172.393C184.105 175.422 188.982 178.096 194.04 180.391C203.766 184.623 215.74 186.769 225.479 181.363C229.89 178.855 233.24 174.831 234.907 170.039C236.66 165.271 237.089 160.074 237.166 155.008C237.166 153.78 237.166 152.554 237.166 151.33C237.166 151.265 237.262 151.259 237.262 151.33C237.709 160.831 237.262 171.934 229.871 178.925C222.016 186.351 209.947 186.363 200.178 183.413C189.236 180.105 179.676 173.412 170.176 167.261L153.583 156.45C152.242 155.58 150.919 154.662 149.548 153.845C148.177 153.029 146.598 152.463 145.215 153.458C140.614 156.766 111.786 188.086 110.767 189.176C110.641 189.307 110.427 189.129 110.546 188.992Z" fill="#37474F"/>
<path d="M178.419 131.621C170.825 127.234 162.958 123.223 154.579 120.44C152.477 119.727 150.315 119.21 148.118 118.896C147.003 118.734 145.871 118.712 144.75 118.83C143.637 118.961 142.538 119.192 141.467 119.522C137.193 120.839 133.331 123.098 129.636 125.482C125.986 127.944 122.471 130.6 119.105 133.438C115.737 136.269 112.453 139.196 109.3 142.253C102.972 148.348 96.962 154.766 91.2953 161.48C94.2753 158.25 97.2553 155.043 100.348 151.944C103.442 148.845 106.547 145.74 109.753 142.754C116.178 136.794 122.818 131.037 130.113 126.215C133.748 123.831 137.563 121.596 141.693 120.297C143.731 119.613 145.896 119.397 148.028 119.665C150.182 119.968 152.307 120.446 154.382 121.095C158.555 122.425 162.64 124.017 166.612 125.863C170.617 127.604 174.545 129.558 178.419 131.621Z" fill="#37474F"/>
<path d="M207.146 110.171C207.136 110.268 207.162 110.366 207.219 110.446C207.276 110.526 207.36 110.583 207.456 110.606L209.047 110.713C210.537 106.726 212.128 103.561 211.705 104.795C211.064 106.741 210.697 108.767 210.614 110.814C211.318 110.856 212.945 110.933 213.761 110.969C215.114 103.96 216.783 98.7572 216.664 100.36C216.157 106.833 216.485 108.913 216.866 111.13C224.465 111.494 234.431 111.851 241.642 111.947C242.536 108.067 243.329 103.871 243.43 104.163C244.378 106.356 244.592 109.527 244.575 111.976C246.875 111.976 248.711 111.976 249.831 111.875C249.831 111.875 250.427 108.615 250.511 107.542C250.762 104.802 250.535 102.039 249.837 99.377C249.116 96.6652 247.835 94.2634 246.619 91.8078C246.613 91.7881 246.602 91.7699 246.589 91.7542C245.787 90.144 245.17 88.4486 244.747 86.7001C244.749 86.6863 244.749 86.6722 244.747 86.6584C244.463 85.3821 244.285 84.0843 244.217 82.7784C243.961 78.0104 241.505 73.8384 237.321 72.5988C229.508 64.6124 221.503 67.9917 219 74.1364C218.762 74.7324 218.523 75.4178 218.297 76.1688C217.439 78.9342 216.652 82.5281 215.913 85.2995C215.913 85.2995 215.913 85.2995 215.913 85.3293C215.646 86.4173 215.314 87.4881 214.918 88.5358C212.838 93.572 208.213 96.409 207.146 110.171Z" fill="#101010"/>
<path d="M239.139 73.904C240.493 74.6018 241.644 75.6382 242.48 76.9123C243.315 78.1864 243.807 79.6549 243.907 81.1752C244.122 83.2135 244.217 85.1982 244.92 87.1352C245.69 89.02 246.73 90.7827 248.008 92.3681C249.921 94.9428 251.238 97.5115 251.488 100.945C251.738 104.377 251.518 108.532 250.368 111.786H250.338C251.286 108.49 251.381 103.93 250.886 100.462C250.344 96.6712 248.377 94.2932 246.369 91.4145C244.748 89.1268 243.752 86.4564 243.478 83.6665C243.299 81.944 243.353 80.1441 242.727 78.517C241.982 76.58 240.456 75.3463 238.942 74.2497C238.907 74.219 238.883 74.1769 238.875 74.1307C238.867 74.0844 238.875 74.0367 238.898 73.9959C238.922 73.9551 238.958 73.9236 239.002 73.9068C239.046 73.89 239.094 73.889 239.139 73.904Z" fill="#263238"/>
<path d="M210.215 93.9296C212.206 91.2119 214.268 88.8994 215.466 85.526C216.551 82.4566 217.2 79.2144 218.303 76.1509C218.303 76.1414 218.307 76.1324 218.313 76.1256C218.32 76.1189 218.329 76.1152 218.339 76.1152C218.348 76.1152 218.357 76.1189 218.364 76.1256C218.371 76.1324 218.374 76.1414 218.374 76.1509C216.658 81.5924 216.253 87.0816 212.897 91.6469C211.073 94.1382 209.25 96.4149 208.028 99.3949C206.78 102.532 206.102 105.866 206.025 109.241C206.025 109.36 205.876 109.354 205.864 109.241C205.484 103.786 207.023 98.3694 210.215 93.9296Z" fill="#263238"/>
<path d="M236.862 72.408C237.285 73.6 243.853 74.792 247.03 70.483C250.207 66.1739 246.684 60.6132 241.273 62.884C237.852 64.3203 235.956 69.9108 236.862 72.408Z" fill="#101010"/>
<path d="M247.483 64.4395C246.421 63.1456 244.949 62.2522 243.311 61.9065C242.554 61.7264 241.762 61.749 241.016 61.9718C240.27 62.1947 239.596 62.61 239.062 63.176C237.972 64.3792 237.23 65.8565 236.916 67.4493C236.732 68.2601 236.622 69.086 236.588 69.9167C236.516 70.7555 236.601 71.6003 236.838 72.408C236.424 71.6432 236.182 70.797 236.129 69.9287C236.047 69.059 236.069 68.1826 236.195 67.3182C236.415 65.5401 237.181 63.8742 238.388 62.5502C239.041 61.8757 239.865 61.3915 240.772 61.1496C241.671 60.9359 242.61 60.9626 243.496 61.2271C244.343 61.4648 245.134 61.8721 245.819 62.4243C246.504 62.9765 247.07 63.6621 247.483 64.4395Z" fill="#101010"/>
<path d="M220.139 111.208C205.942 114.891 182.984 119.051 178.663 115.195C176.607 113.353 172.536 110.516 172.012 105.736C170.873 95.3123 174.944 81.1156 179.068 74.6311C180.534 72.3246 194.123 76.878 194.064 79.7984C193.932 86.6405 191 97.6188 191.632 98.1135C193.968 99.9551 209.22 100.664 219.382 101.815C232.13 103.263 226.605 109.527 220.139 111.208Z" fill="#F7A9A0"/>
<path d="M204.744 116.041L206.758 98.34C206.758 98.34 219.107 100.015 225.955 103.108C232.804 106.201 230.127 109.849 223.16 112.048C216.193 114.247 204.744 116.041 204.744 116.041Z" fill="#F3A13B"/>
<path d="M210.638 99.8777C210.567 102.643 210.138 110.129 209.19 114.962H209.065C209.214 110.826 210.138 102.619 210.465 99.8777C210.471 99.8121 210.644 99.8241 210.638 99.8777Z" fill="#263238"/>
<path opacity="0.1" d="M223.16 111.994C216.181 114.182 204.744 116.041 204.744 116.041L205.775 106.988L229.943 106.815C230.056 108.782 227.422 110.659 223.16 111.994Z" fill="black"/>
<path d="M197.806 142.825C197.806 142.825 240.933 161.021 242.643 160.771C242.643 160.771 243.543 137.765 241.237 118.825C238.775 98.5307 227.666 100.867 223.417 102.882C218.38 105.266 206.794 116.202 205.537 118.58C203.439 122.514 205.691 128.206 205.691 128.206L197.806 142.825Z" fill="#F3A13B"/>
<path opacity="0.1" d="M242.268 130.631C242.447 133.307 242.56 135.954 242.638 138.516C242.345 138.516 242.042 138.516 241.767 138.516C239.789 138.516 237.774 138.743 235.67 138.892C233.566 139.041 231.391 139.19 229.114 139.297C227.988 139.351 226.832 139.392 225.663 139.404H224.775C224.483 139.404 224.179 139.404 223.887 139.369C223.288 139.344 222.691 139.284 222.099 139.19L221.64 139.118C221.486 139.093 221.332 139.059 221.182 139.017C220.878 138.957 220.586 138.868 220.276 138.779C219.966 138.689 219.68 138.57 219.388 138.469C219.096 138.367 218.821 138.212 218.547 138.075C217.503 137.523 216.506 136.885 215.567 136.168C213.708 134.768 211.991 133.26 210.239 131.799C208.594 130.393 206.979 129.004 205.525 127.723C205.036 126.251 203.826 121.834 205.554 118.61C205.554 118.562 205.614 118.515 205.638 118.467C205.92 118.618 206.192 118.785 206.454 118.968C206.998 119.348 207.515 119.764 208.004 120.213C208.922 121.064 209.742 122.016 210.448 123.05C211.674 124.943 212.767 126.918 213.72 128.962C214.603 130.863 215.786 132.61 217.224 134.136C217.922 134.828 218.727 135.403 219.608 135.84C219.835 135.936 220.049 136.031 220.27 136.109L220.591 136.204L220.758 136.252L220.919 136.293C221.146 136.339 221.375 136.373 221.605 136.395C221.724 136.395 221.837 136.424 221.956 136.424H222.308C222.791 136.418 223.273 136.376 223.75 136.299C224.239 136.212 224.728 136.099 225.216 135.96C226.218 135.668 227.202 135.316 228.161 134.905C230.139 134.088 232.16 133.117 234.311 132.425C236.512 131.679 238.776 131.134 241.076 130.798C241.475 130.739 241.875 130.685 242.268 130.631Z" fill="black"/>
<path opacity="0.1" d="M242.798 146.491C242.798 147.295 242.798 148.094 242.798 148.875C242.626 148.69 242.447 148.505 242.268 148.327C240.925 146.924 239.238 145.896 237.375 145.347C235.545 144.864 233.566 145.054 231.582 145.347C230.586 145.49 229.579 145.668 228.548 145.829C227.517 145.99 226.48 146.157 225.419 146.252C224.358 146.348 223.285 146.425 222.207 146.437C221.128 146.449 220.037 146.437 218.941 146.342C216.75 146.198 214.576 145.875 212.438 145.376C211.908 145.245 211.371 145.114 210.847 144.953C210.322 144.792 209.798 144.637 209.291 144.458C208.785 144.28 208.266 144.095 207.748 143.91C207.229 143.725 206.746 143.499 206.252 143.278C203.912 142.246 201.664 141.02 199.529 139.613L201.972 135.077L203.075 135.596L204.434 136.192L205.096 136.496L205.781 136.782C206.234 136.967 206.687 137.157 207.134 137.378C207.354 137.479 207.587 137.557 207.813 137.646L208.493 137.908C208.952 138.081 209.393 138.284 209.858 138.445C210.322 138.606 210.763 138.761 211.21 138.94C211.657 139.118 212.116 139.279 212.575 139.416L213.255 139.655L213.94 139.875C215.771 140.446 217.636 140.9 219.525 141.234C221.432 141.55 223.369 141.711 225.354 141.878L228.393 142.11C229.424 142.182 230.461 142.259 231.522 142.367C232.583 142.474 233.644 142.599 234.729 142.778C235.82 142.961 236.893 143.24 237.935 143.612L238.323 143.767L238.704 143.934C238.96 144.041 239.211 144.166 239.461 144.292C239.711 144.417 239.926 144.578 240.17 144.709L240.867 145.132C241.297 145.448 241.75 145.728 242.179 146.062C242.399 146.181 242.572 146.33 242.798 146.491Z" fill="black"/>
<path opacity="0.1" d="M240.987 117.019C241.052 117.472 241.124 117.936 241.183 118.425H240.343L239.079 118.378C238.656 118.378 238.227 118.318 237.804 118.276C236.053 118.152 234.33 117.77 232.69 117.144C231.084 116.428 229.599 115.465 228.292 114.289C227.01 113.168 225.842 111.965 224.656 110.808C223.494 109.629 222.234 108.55 220.889 107.584C220.12 107.038 219.292 106.578 218.422 106.213L219.018 105.748C219.796 106.116 220.551 106.532 221.277 106.994C222.713 107.906 224.084 108.883 225.449 109.89C226.814 110.898 228.125 111.905 229.448 112.87C230.701 113.839 232.049 114.677 233.471 115.374C233.644 115.445 233.805 115.523 233.99 115.594L234.544 115.779C234.907 115.916 235.301 115.999 235.682 116.101C236.064 116.202 236.463 116.286 236.874 116.381C237.285 116.476 237.667 116.53 238.066 116.613C238.996 116.762 239.985 116.905 240.987 117.019Z" fill="black"/>
<path opacity="0.1" d="M240.385 113.89C240.498 114.396 240.611 114.909 240.706 115.463C239.652 115.35 238.591 115.243 237.512 115.105C235.798 114.952 234.116 114.55 232.517 113.913C230.975 113.149 229.591 112.102 228.435 110.826C227.243 109.634 226.164 108.323 225.085 107.042C224.108 105.85 223.16 104.699 222.213 103.561C222.636 103.299 223.053 103.078 223.405 102.899L223.768 102.738C224.579 103.93 225.312 105.122 226.051 106.314C226.903 107.73 227.87 109.074 228.941 110.332C229.98 111.585 231.302 112.574 232.798 113.216C233.172 113.355 233.554 113.472 233.942 113.568C234.335 113.658 234.733 113.728 235.134 113.776C235.945 113.869 236.761 113.917 237.577 113.919C238.507 113.931 239.449 113.908 240.385 113.89Z" fill="black"/>
<path d="M213.332 128.021C215.209 128.779 217.026 129.678 218.768 130.709C219.632 131.227 220.46 131.788 221.283 132.372C221.694 132.658 222.111 132.932 222.528 133.206C222.96 133.504 223.426 133.748 223.917 133.933C223.923 133.931 223.929 133.93 223.934 133.93C223.94 133.931 223.946 133.933 223.951 133.936C223.956 133.939 223.96 133.944 223.963 133.949C223.966 133.954 223.967 133.96 223.967 133.966C223.967 133.972 223.966 133.978 223.963 133.983C223.96 133.988 223.956 133.993 223.951 133.996C223.946 133.999 223.94 134.001 223.934 134.002C223.929 134.002 223.923 134.001 223.917 133.999C222.963 133.775 222.052 133.395 221.223 132.872C220.347 132.354 219.495 131.788 218.625 131.257C216.837 130.184 215.108 129.117 213.261 128.176C213.171 128.14 213.243 127.985 213.332 128.021Z" fill="#263238"/>
<path d="M208.04 128.277C209.68 128.596 211.302 129.006 212.897 129.505C213.696 129.761 214.471 130.053 215.239 130.375C215.609 130.53 215.978 130.685 216.342 130.852C216.706 131.019 217.117 131.263 217.534 131.448C217.576 131.448 217.534 131.537 217.534 131.519C217.147 131.364 216.735 131.275 216.342 131.144L215.15 130.75C214.357 130.488 213.565 130.238 212.766 129.964C211.187 129.427 209.607 128.903 207.998 128.42C207.915 128.384 207.956 128.259 208.04 128.277Z" fill="#263238"/>
<path d="M231.755 112.519C233.698 122.174 236.302 142.718 243.734 146.64C252.436 151.235 253.866 138.683 253.318 131.972C252.865 126.435 244.658 114.772 240.152 108.847C235.378 102.572 229.257 100.092 231.755 112.519Z" fill="#F7A9A0"/>
<path d="M250.803 121.745L233.996 127.705C233.996 127.705 230.08 115.88 229.824 108.371C229.567 100.861 234.043 101.648 239.073 106.964C244.104 112.28 250.803 121.745 250.803 121.745Z" fill="#F3A13B"/>
<path d="M233.781 124.385C236.326 123.306 243.317 120.583 248.085 119.432C248.115 119.432 248.157 119.54 248.133 119.552C244.306 121.131 236.457 123.724 233.829 124.552C233.793 124.564 233.733 124.403 233.781 124.385Z" fill="#263238"/>
<path d="M229.46 115.076C229.949 115.791 230.926 116.935 231.004 117.072C230.89 116.703 230.622 115.338 230.372 114.015C230.371 114.002 230.374 113.99 230.381 113.979C230.388 113.969 230.398 113.961 230.41 113.957C230.422 113.954 230.435 113.955 230.447 113.96C230.458 113.965 230.468 113.974 230.473 113.985C231.099 115.254 233.62 126.382 234.049 127.693C234.557 127.468 235.076 127.269 235.605 127.097C235.766 127.055 235.67 127.216 235.652 127.222C235.325 127.425 233.864 128.247 233.763 128.074C233.513 127.544 231.469 118.842 231.296 118.288C231.212 118.157 229.818 115.839 229.436 115.07L229.46 115.076Z" fill="#263238"/>
<path d="M222.904 107.489L222.654 107.322C222.648 107.341 222.648 107.362 222.654 107.381C222.612 107.036 220.586 104.401 218.952 102.25C216.914 99.5856 214.983 97.0646 214.78 96.4447C214.429 95.2527 215.186 88.3093 215.216 88.0113L215.514 88.0471C215.514 88.1186 214.733 95.1991 215.067 96.3911C215.227 96.9573 217.319 99.687 219.167 102.101C222.523 106.428 223.077 107.238 222.904 107.489Z" fill="#263238"/>
<path d="M222.826 85.1684C222.165 88.3153 219.394 90.3894 216.634 89.8112C213.875 89.2331 212.176 86.2352 212.838 83.0645C213.499 79.8938 216.276 77.8436 219.036 78.4276C221.795 79.0117 223.5 82.0275 222.826 85.1684Z" fill="#F3A13B"/>
<path d="M224.376 85.7346C223.637 89.2331 220.556 91.5456 217.486 90.896C214.417 90.2463 212.528 86.8908 213.261 83.3923C213.994 79.8938 217.087 77.5873 220.15 78.231C223.214 78.8746 225.115 82.248 224.376 85.7346Z" fill="#DBDBDB"/>
<path d="M233.245 105.176C232.923 105.981 228.095 110.796 224.305 110.028C223.071 109.777 224.144 102.971 224.144 102.971L224.108 102.452L223.613 95.1633L232.708 91.1284L234.007 90.6099C234.007 90.6099 234.007 92.6125 234.007 95.1037V95.4554C234.007 95.5984 234.007 95.7355 234.007 95.8666C234.007 96.2361 234.007 96.6176 234.007 96.9931C234.007 97.3685 234.007 97.5891 234.007 97.8692C234.007 98.1493 234.007 98.4652 233.978 98.7691C233.881 100.919 233.636 103.06 233.245 105.176Z" fill="#F7A9A0"/>
<path d="M233.984 95.1037C232.969 96.9736 231.558 98.5998 229.851 99.8689C228.143 101.138 226.179 102.02 224.096 102.452L223.601 95.1633L232.696 91.1284L233.996 90.6099C233.996 90.6099 234.007 92.6125 233.984 95.1037Z" fill="#101010"/>
<path d="M216.527 81.199C212.671 93.423 219.56 97.1063 222.195 97.9347C224.579 98.6857 232.839 100.915 237.929 89.1795C243.019 77.4442 238.555 71.7644 233.161 69.7558C227.767 67.7473 220.377 68.9691 216.527 81.199Z" fill="#F7A9A0"/>
<path d="M219.096 80.0428C219.391 80.0577 219.688 80.0577 219.984 80.0428C220.294 80.0906 220.611 80.0384 220.889 79.8938C220.968 79.8304 221.023 79.7429 221.047 79.6449C221.071 79.5468 221.061 79.4437 221.021 79.3515C220.911 79.1823 220.758 79.0453 220.578 78.9542C220.398 78.8632 220.197 78.8213 219.995 78.8329C219.585 78.798 219.176 78.9146 218.845 79.1607C218.765 79.2196 218.704 79.3018 218.671 79.3963C218.639 79.4907 218.636 79.5929 218.663 79.689C218.69 79.7851 218.746 79.8705 218.824 79.9338C218.901 79.9971 218.996 80.0351 219.096 80.0428Z" fill="#263238"/>
<path d="M227.505 82.248C227.233 82.1363 226.966 82.011 226.706 81.8725C226.408 81.7769 226.148 81.5865 225.967 81.3302C225.926 81.2381 225.916 81.1347 225.94 81.0364C225.963 80.9381 226.019 80.8506 226.099 80.7878C226.272 80.6868 226.47 80.6336 226.671 80.6336C226.872 80.6336 227.069 80.6868 227.243 80.7878C227.626 80.9427 227.938 81.2335 228.119 81.6043C228.154 81.6914 228.163 81.7866 228.145 81.8787C228.128 81.9707 228.084 82.0558 228.019 82.1236C227.954 82.1915 227.872 82.2393 227.78 82.2613C227.689 82.2834 227.594 82.2788 227.505 82.248Z" fill="#263238"/>
<path d="M224.126 91.2237C223.929 91.4383 223.732 91.7303 223.417 91.7721C223.092 91.7787 222.769 91.7178 222.469 91.5933C222.463 91.5885 222.455 91.5865 222.447 91.5876C222.439 91.5887 222.432 91.5929 222.427 91.5992C222.422 91.6056 222.42 91.6135 222.422 91.6213C222.423 91.6291 222.427 91.6362 222.433 91.6409C222.566 91.8051 222.741 91.9307 222.939 92.0051C223.137 92.0795 223.351 92.0998 223.56 92.0641C223.736 92.0101 223.892 91.9046 224.008 91.7612C224.123 91.6178 224.194 91.4431 224.209 91.2595C224.221 91.188 224.156 91.188 224.126 91.2237Z" fill="#263238"/>
<path d="M220.878 87.6895C220.878 87.6895 220.454 88.9351 220.335 89.5371C220.335 89.5907 220.466 89.6503 220.669 89.698C221.166 89.8911 221.707 89.9442 222.232 89.8518C222.758 89.7593 223.248 89.5247 223.649 89.1735C223.657 89.1624 223.661 89.1491 223.661 89.1355C223.661 89.1218 223.657 89.1085 223.649 89.0973C223.642 89.0862 223.63 89.0777 223.617 89.0732C223.605 89.0687 223.591 89.0684 223.577 89.0722C222.705 89.4468 221.735 89.5304 220.812 89.3106C220.812 89.1318 221.611 87.2008 221.515 87.1769C221.039 87.1264 220.558 87.1405 220.085 87.2186C220.901 84.6022 222.123 82.1348 222.898 79.5124C222.902 79.5022 222.905 79.4913 222.905 79.4802C222.905 79.4692 222.903 79.4582 222.899 79.448C222.894 79.4377 222.888 79.4284 222.88 79.4205C222.873 79.4127 222.863 79.4064 222.853 79.4021C222.843 79.3978 222.832 79.3955 222.821 79.3954C222.81 79.3954 222.799 79.3975 222.789 79.4016C222.779 79.4058 222.769 79.4119 222.762 79.4196C222.754 79.4274 222.747 79.4366 222.743 79.4468C221.277 81.9381 220.276 84.93 219.37 87.612C219.286 87.9517 220.615 87.7431 220.878 87.6895Z" fill="#263238"/>
<path d="M221.313 89.6682C221.54 90.1109 221.876 90.4883 222.29 90.7648C222.52 90.9069 222.789 90.9736 223.059 90.9556C223.655 90.9138 223.756 90.4013 223.732 89.9424C223.721 89.6957 223.679 89.4514 223.607 89.2152C222.911 89.6103 222.106 89.7692 221.313 89.6682Z" fill="#263238"/>
<path d="M222.308 90.7649C222.538 90.9069 222.807 90.9736 223.077 90.9556C223.673 90.9139 223.774 90.4013 223.75 89.9424C223.452 89.8965 223.148 89.9528 222.886 90.1021C222.624 90.2515 222.42 90.485 222.308 90.7649Z" fill="#FF9BBC"/>
<path d="M220.18 83.7082C220.18 83.6724 220.109 83.7082 220.097 83.7499C219.841 84.5188 219.417 85.3532 218.637 85.3472C218.637 85.3472 218.601 85.3889 218.637 85.3949C219.507 85.5856 220.061 84.4711 220.18 83.7082Z" fill="#263238"/>
<path d="M218.798 82.844C218.734 82.9817 218.684 83.1255 218.649 83.2731C218.563 83.3586 218.467 83.4327 218.362 83.4936C218.263 83.5548 218.148 83.5872 218.032 83.5872C217.915 83.5872 217.8 83.5548 217.701 83.4936C217.296 83.2254 217.343 82.6771 217.546 82.2301C217.546 82.1944 217.588 82.1884 217.594 82.2301C217.653 82.552 217.743 82.8976 218.017 82.987C218.291 83.0764 218.529 82.9096 218.78 82.8619L218.798 82.844Z" fill="#263238"/>
<path d="M219.924 84.5366C219.813 84.7288 219.653 84.8874 219.459 84.9956C219.351 85.0513 219.233 85.0833 219.111 85.0895C218.99 85.0956 218.869 85.0758 218.756 85.0313C218.64 84.9857 218.536 84.9134 218.453 84.8202C218.37 84.727 218.311 84.6155 218.279 84.4949C218.228 84.2834 218.228 84.0628 218.279 83.8513C218.31 83.726 218.347 83.6026 218.392 83.4817C218.486 83.227 218.64 82.9982 218.839 82.8142C218.757 82.9915 218.695 83.1775 218.654 83.3685C218.615 83.5389 218.589 83.7123 218.577 83.887C218.577 84.2506 218.643 84.5903 218.905 84.6678C219.167 84.7452 219.453 84.638 219.686 84.3578C219.914 84.0614 220.113 83.7441 220.282 83.4102C220.254 83.8088 220.131 84.1949 219.924 84.5366Z" fill="#263238"/>
<path d="M224.912 85.1267C224.912 85.0969 224.96 85.1803 224.954 85.2101C224.698 85.979 224.531 86.8968 225.157 87.3617C225.157 87.3617 225.157 87.4153 225.157 87.4034C224.316 87.016 224.549 85.824 224.912 85.1267Z" fill="#263238"/>
<path d="M226.546 85.228C226.514 85.3765 226.471 85.5221 226.414 85.6631C226.429 85.7818 226.459 85.898 226.504 86.0088C226.546 86.1184 226.618 86.214 226.712 86.2846C226.806 86.3552 226.917 86.398 227.034 86.4081C227.523 86.4379 227.809 85.973 227.922 85.4902C227.922 85.4545 227.922 85.4306 227.887 85.4485C227.648 85.669 227.374 85.8896 227.1 85.8002C226.826 85.7108 226.73 85.4306 226.563 85.2399L226.546 85.228Z" fill="#263238"/>
<path d="M224.638 85.9551C224.612 86.1763 224.645 86.4004 224.734 86.6048C224.789 86.7131 224.865 86.8092 224.958 86.8871C225.051 86.965 225.16 87.023 225.276 87.0577C225.396 87.0904 225.523 87.0945 225.645 87.0696C225.767 87.0448 225.881 86.9917 225.979 86.9147C226.149 86.777 226.284 86.6014 226.373 86.4021C226.425 86.2843 226.469 86.1628 226.504 86.0386C226.582 85.7797 226.598 85.5062 226.552 85.2399C226.51 85.4295 226.446 85.6135 226.361 85.7882C226.292 85.9505 226.208 86.1061 226.11 86.2531C225.908 86.5511 225.64 86.7716 225.377 86.6822C225.115 86.5928 224.96 86.3246 224.942 85.9611C224.94 85.5874 224.972 85.2143 225.038 84.8466C224.82 85.1799 224.683 85.5595 224.638 85.9551Z" fill="#263238"/>
<path d="M237.363 89.4C235.277 89.1258 235.706 84.7154 235.706 84.7154C235.706 84.7154 231.534 83.8512 231.409 77.5634C231.15 79.3916 231.429 81.2557 232.213 82.9274C232.213 82.9274 225.014 80.603 223.202 73.7848C223.202 73.7848 223.798 77.188 224.71 78.5528C224.71 78.5528 221.801 77.039 220.818 74.2139C220.818 74.2139 218.786 77.5038 217.582 78.2786C217.582 78.2786 220.591 65.4527 232.249 69.3386C232.249 69.3386 239.622 71.4068 241.064 77.8853C242.506 84.3638 237.363 89.4 237.363 89.4Z" fill="#101010"/>
<path d="M235.694 89.5073C235.694 89.5073 239.27 86.2054 240.85 87.5762C242.429 88.947 239.091 94.1322 236.838 94.46C236.551 94.5192 236.254 94.5195 235.967 94.4608C235.679 94.4021 235.407 94.2856 235.165 94.1184C234.924 93.9513 234.719 93.7369 234.563 93.4883C234.407 93.2397 234.303 92.962 234.258 92.672L235.694 89.5073Z" fill="#F7A9A0"/>
<path d="M239.86 89.0424C239.868 89.0424 239.876 89.0456 239.881 89.0511C239.887 89.0567 239.89 89.0643 239.89 89.0722C239.89 89.0801 239.887 89.0877 239.881 89.0933C239.876 89.0989 239.868 89.102 239.86 89.102C238.269 89.3702 237.202 90.5503 236.35 91.8317C236.467 91.7041 236.61 91.6035 236.77 91.5369C236.93 91.4703 237.102 91.4394 237.275 91.4462C237.448 91.453 237.618 91.4974 237.772 91.5763C237.926 91.6552 238.061 91.7668 238.168 91.9032C238.203 91.939 238.168 91.9867 238.114 91.9688C237.875 91.8318 237.6 91.7714 237.326 91.7959C237.052 91.8205 236.793 91.9286 236.582 92.1059C236.23 92.4059 235.913 92.7437 235.635 93.1131C235.539 93.2263 235.319 93.1131 235.402 92.9701V92.9343C235.795 91.0688 237.804 88.804 239.86 89.0424Z" fill="#263238"/>
<path d="M191.084 124.034C189.063 124.034 187.365 123.187 186.018 120.499C184.504 117.484 189.403 102.619 192.639 92.7793C193.712 89.5252 194.558 86.9564 194.928 85.5618C195.554 83.1778 195.834 77.331 195.834 77.2714H196.132C196.132 77.5158 195.852 83.2314 195.214 85.6154C194.844 87.022 194.022 89.5967 192.925 92.8568C189.898 102.053 184.826 117.442 186.286 120.35C188.539 124.856 191.727 123.926 196.138 122.734C197.646 122.28 199.178 121.91 200.727 121.626C205.334 120.857 207.688 121.417 209.583 121.87C211.967 122.436 213.505 122.812 217.957 119.802C220.21 118.282 222.356 107.882 222.38 107.781C222.773 106.684 226.516 104.58 230.128 102.548C232.661 101.123 235.056 99.7764 235.843 99.0254C236.928 97.9884 238.412 94.162 238.424 94.1263L238.704 94.2336C238.644 94.3945 237.178 98.1552 236.046 99.24C235.235 100.021 232.827 101.374 230.271 102.816C226.867 104.729 223.005 106.899 222.66 107.876C222.576 108.287 220.472 118.473 218.118 120.058C213.559 123.14 211.944 122.758 209.506 122.174C207.64 121.727 205.334 121.173 200.769 121.936C199.232 122.216 197.711 122.583 196.215 123.032C194.555 123.586 192.83 123.923 191.084 124.034Z" fill="#263238"/>
<path d="M196.462 81.7353L196.865 77.1938L195.564 77.0784L195.162 81.62L196.462 81.7353Z" fill="#F3A13B"/>
<path d="M240.325 87.1888C240.325 87.1888 242.512 80.4242 241.446 76.1211C240.254 71.3531 234.925 66.3646 228.125 67.8665C228.125 67.8665 235.462 69.3208 238.65 75.7397C240.111 78.7197 237.983 86.8014 237.983 86.8014L240.325 87.1888Z" fill="#DBDBDB"/>
<path d="M233.036 89.0305C232.118 92.529 233.87 96.0156 236.94 96.8142C240.009 97.6129 243.234 95.4315 244.151 91.933C245.069 88.4345 243.317 84.9479 240.248 84.1492C237.178 83.3506 233.948 85.532 233.036 89.0305Z" fill="#DBDBDB"/>
<path d="M234.705 89.251C233.882 92.3979 235.456 95.5328 238.215 96.254C240.975 96.9752 243.877 95.0084 244.7 91.8674C245.522 88.7265 243.949 85.5856 241.189 84.8644C238.43 84.1433 235.527 86.1101 234.705 89.251Z" fill="#F3A13B"/>
<path d="M242.477 143.386C246.285 149.03 251.202 146.544 252.436 141.955C255.332 131.174 250.618 112.155 248.395 107.191C248.085 106.487 229.633 110.981 230.276 114.39C231.176 119.158 234.752 131.931 242.477 143.386Z" fill="#F7A9A0"/>
<path d="M241.088 141.139C240.424 140.25 239.807 139.327 239.24 138.373C238.644 137.42 238.132 136.424 237.619 135.393C237.107 134.362 236.654 133.331 236.242 132.252C235.817 131.164 235.462 130.049 235.182 128.915C235.432 129.427 235.635 129.964 235.885 130.47C236.135 130.977 236.35 131.507 236.594 132.014C237.083 133.033 237.56 134.058 238.066 135.066L241.088 141.139Z" fill="#263238"/>
<path d="M247.87 109.855C247.87 109.855 249.301 102.804 250.016 98.1433C250.415 95.5448 250.707 91.0271 250.129 88.9828C249.259 85.9253 243.686 73.6954 240.689 74.9828C237.977 76.1748 244.104 86.0505 244.104 86.0505C244.104 86.0505 238.805 75.5132 235.801 77.5158C232.798 79.5183 241.201 89.7874 241.201 89.7874C241.201 89.7874 235.515 79.0594 232.744 81.6401C230.652 83.5711 237.738 93.2979 237.738 93.2979C237.738 93.2979 232.792 84.1314 230.551 86.0267C228.071 88.1186 234.055 97.5116 234.055 97.5116C229.168 103.287 228.024 109.259 230.271 113.949C230.652 114.694 247.87 109.855 247.87 109.855Z" fill="#F7A9A0"/>
<path d="M246.148 89.5788C245.552 88.3153 244.992 87.0398 244.306 85.8359C243.621 84.632 242.888 83.4519 242.089 82.3136C241.078 80.809 239.899 79.4252 238.573 78.1892C240.766 80.5732 243.293 84.8287 243.979 86.0326C244.664 87.2365 245.415 88.4166 246.1 89.6086L246.148 89.5788Z" fill="#263238"/>
<path d="M241.863 92.1357C241.058 90.5622 240.313 88.9649 239.437 87.4213C238.561 85.8776 237.601 84.5128 236.63 83.0407C236.552 82.9275 236.517 83.0049 236.588 83.1182C237.506 84.6261 238.233 86.0982 239.133 87.612C240.033 89.1259 240.993 90.592 241.827 92.1595L241.863 92.1357Z" fill="#263238"/>
<path d="M238.567 95.0024C237.387 92.5543 235.959 90.2336 234.305 88.0769C234.222 87.9696 234.186 88.0769 234.264 88.1901C235.724 90.4609 236.886 92.237 238.477 95.0382C238.507 95.0858 238.591 95.0501 238.567 95.0024Z" fill="#263238"/>
<path d="M233.036 81.4196C232.778 81.537 232.577 81.751 232.476 82.0156C232.389 82.2867 232.354 82.5719 232.374 82.8559C232.42 83.4285 232.544 83.9921 232.744 84.5307C233.135 85.6137 233.62 86.6606 234.192 87.6597L234.961 89.0364L233.906 87.8444C233.46 87.3292 232.956 86.8672 232.404 86.4677C232.14 86.2826 231.846 86.1454 231.534 86.0624C231.249 85.9923 230.948 86.035 230.694 86.1816C230.492 86.3777 230.362 86.6359 230.324 86.9147C230.264 87.2348 230.246 87.5614 230.271 87.8862C230.328 88.5601 230.46 89.2257 230.664 89.8708C231.085 91.186 231.62 92.4623 232.261 93.6852C232.571 94.2812 232.917 94.907 233.239 95.5209L234.282 97.3089L234.389 97.4996L234.24 97.6546C233.228 98.7108 232.353 99.8902 231.635 101.165C230.902 102.434 230.33 103.79 229.931 105.2C229.547 106.619 229.378 108.088 229.43 109.557C229.492 111.036 229.771 112.498 230.259 113.896C229.676 112.52 229.312 111.062 229.18 109.575C229.062 108.073 229.185 106.562 229.543 105.099C229.897 103.639 230.451 102.235 231.188 100.927C231.918 99.602 232.811 98.3745 233.847 97.2732L233.805 97.6188L232.726 95.8308C232.398 95.2348 232.041 94.6031 231.737 93.9713C231.094 92.7126 230.561 91.4004 230.145 90.0496C229.933 89.362 229.801 88.652 229.752 87.9338C229.728 87.5625 229.754 87.1896 229.829 86.8253C229.858 86.6181 229.928 86.4188 230.035 86.2395C230.143 86.0602 230.286 85.9047 230.455 85.7823C230.82 85.5852 231.247 85.5361 231.647 85.6452C232.008 85.7524 232.347 85.9218 232.649 86.1458C233.219 86.5793 233.733 87.0818 234.18 87.6418L233.888 87.8444C233.339 86.8206 232.894 85.7444 232.559 84.632C232.387 84.0692 232.291 83.4859 232.273 82.8976C232.264 82.5994 232.318 82.3026 232.434 82.0275C232.488 81.891 232.57 81.7668 232.673 81.6624C232.777 81.558 232.9 81.4754 233.036 81.4196Z" fill="#263238"/>
<path d="M202.413 57.3114L203.248 79.3157C203.343 79.9772 202.932 80.4064 202.33 80.2812L191.548 77.9985C191.225 77.9028 190.936 77.7178 190.713 77.4647C190.491 77.2116 190.344 76.9008 190.291 76.5681L189.45 54.5638C189.361 53.9022 189.772 53.4731 190.374 53.5983L201.15 55.881C201.474 55.9757 201.765 56.1603 201.989 56.4135C202.212 56.6666 202.36 56.9779 202.413 57.3114Z" fill="#37474F"/>
<path d="M201.138 57.0312L201.972 79.0356C202.068 79.6912 201.651 80.1262 201.049 80.0011L190.273 77.7124C189.95 77.6182 189.659 77.4344 189.436 77.1824C189.212 76.9304 189.064 76.6203 189.009 76.288L188.175 54.2837C188.08 53.6221 188.497 53.193 189.099 53.3182L199.875 55.6008C200.199 55.6956 200.489 55.8802 200.713 56.1334C200.937 56.3865 201.084 56.6978 201.138 57.0312Z" fill="#455A64"/>
<path d="M197.979 57.359C197.943 57.5412 197.962 57.73 198.034 57.9014C198.105 58.0727 198.226 58.2189 198.381 58.3213C198.536 58.4237 198.718 58.4777 198.904 58.4764C199.089 58.4751 199.271 58.4186 199.424 58.314C199.577 58.2095 199.696 58.0616 199.766 57.8892C199.835 57.7169 199.851 57.5279 199.812 57.3462C199.774 57.1645 199.682 56.9985 199.549 56.8692C199.415 56.7398 199.247 56.6531 199.064 56.62C198.822 56.5762 198.573 56.6292 198.37 56.7674C198.167 56.9057 198.027 57.1182 197.979 57.359Z" fill="#263238"/>
<path d="M178.27 69.9466C180.713 64.8687 182.12 63.9389 181.905 58.557C181.762 55.0287 183.955 53.4195 185.797 56.6021C188.777 61.8112 187.025 69.0228 185.69 71.3472L178.27 69.9466Z" fill="#F7A9A0"/>
<path d="M175.987 86.0624C175.987 86.0624 175.111 78.1177 177.179 72.4497C178.603 68.5281 182.668 60.345 194.916 58.0742C197.818 57.5319 202.342 58.8252 197.896 61.4297C194.749 63.2773 192.198 63.5038 190.565 64.9104C190.565 64.9104 196.12 67.2348 196.525 70.1671C196.898 72.733 197.087 75.3222 197.091 77.9151C196.618 78.0248 196.138 78.1025 195.655 78.1475C195.655 78.1475 195.792 80.9249 193.128 84.2088L175.987 86.0624Z" fill="#F7A9A0"/>
<path d="M179.14 68.9214C181.053 67.8665 185.153 65.6971 189.123 65.0892C193.533 64.4157 202.205 64.3024 202.67 67.5626C203.015 69.9466 199.69 70.2863 199.69 70.2863C199.69 70.2863 203.266 70.9955 203.123 73.2246C202.974 75.251 200.399 75.3582 200.399 75.3582C200.399 75.3582 202.509 76.1628 201.984 78.0879C201.359 80.4064 197.044 78.3383 194.385 80.1382C193.795 80.5435 179.14 68.9214 179.14 68.9214Z" fill="#F7A9A0"/>
<path d="M189.057 69.8691C192.54 68.9032 196.235 69.0238 199.648 70.2148C199.731 70.2505 199.755 70.328 199.648 70.3161C196.141 69.7525 192.579 69.6164 189.039 69.9108C189.039 69.9108 189.039 69.8751 189.057 69.8691Z" fill="#263238"/>
<path d="M189.868 74.2974C191.626 73.8742 196.662 73.6477 200.417 75.2748C200.506 75.3106 200.518 75.394 200.417 75.3821C196.947 74.6372 193.404 74.2873 189.856 74.3391C189.856 74.3391 189.85 74.3033 189.868 74.2974Z" fill="#263238"/>
<path d="M98.5665 72.4915C98.7758 73.0783 98.8768 73.6983 98.8645 74.3212C98.8788 74.9443 98.7778 75.5646 98.5665 76.1509C98.3581 75.5639 98.2571 74.9441 98.2685 74.3212C98.2592 73.6985 98.3601 73.079 98.5665 72.4915Z" fill="white"/>
<path d="M93.7091 77.48C94.8978 77.0905 96.1798 77.0905 97.3685 77.48C96.1811 77.8776 94.8965 77.8776 93.7091 77.48Z" fill="white"/>
<path d="M98.6857 82.3195C98.2882 81.1341 98.2882 79.8514 98.6857 78.666C99.0832 79.8514 99.0832 81.1341 98.6857 82.3195Z" fill="white"/>
<path d="M103.543 77.3489C102.356 77.7464 101.071 77.7464 99.8837 77.3489C100.47 77.1366 101.09 77.0356 101.713 77.0509C102.336 77.0395 102.956 77.1404 103.543 77.3489Z" fill="white"/>
<path d="M261.304 197.342C261.702 198.529 261.702 199.814 261.304 201.001C260.907 199.814 260.907 198.529 261.304 197.342Z" fill="white"/>
<path d="M256.447 202.318C257.034 202.11 257.654 202.009 258.277 202.02C258.9 202.005 259.52 202.106 260.106 202.318C258.919 202.716 257.634 202.716 256.447 202.318Z" fill="white"/>
<path d="M261.423 207.176C261.215 206.589 261.114 205.969 261.125 205.346C261.111 204.723 261.212 204.102 261.423 203.516C261.632 204.103 261.733 204.723 261.721 205.346C261.73 205.969 261.629 206.588 261.423 207.176Z" fill="white"/>
<path d="M266.281 202.199C265.694 202.408 265.074 202.509 264.451 202.497C263.828 202.512 263.208 202.411 262.621 202.199C263.809 201.801 265.093 201.801 266.281 202.199Z" fill="white"/>
<path d="M37.3633 221.241C37.5721 221.826 37.6731 222.444 37.6613 223.065C37.6766 223.688 37.5755 224.309 37.3633 224.895C36.9657 223.709 36.9657 222.427 37.3633 221.241Z" fill="white"/>
<path d="M32.5059 226.212C33.6933 225.814 34.9779 225.814 36.1653 226.212C35.5791 226.423 34.9587 226.525 34.3356 226.51C33.7127 226.521 33.0929 226.42 32.5059 226.212Z" fill="white"/>
<path d="M37.4824 231.069C37.2731 230.482 37.1721 229.862 37.1844 229.24C37.1701 228.616 37.2711 227.996 37.4824 227.41C37.88 228.597 37.88 229.882 37.4824 231.069Z" fill="white"/>
<path d="M42.316 226.099C41.1286 226.496 39.844 226.496 38.6566 226.099C39.844 225.701 41.1286 225.701 42.316 226.099Z" fill="white"/>
<path d="M252.883 117.335C253.082 117.7 253.185 118.11 253.181 118.527C253.187 118.943 253.085 119.354 252.883 119.719C252.679 119.355 252.576 118.943 252.585 118.527C252.578 118.11 252.681 117.699 252.883 117.335Z" fill="#263238"/>
<path d="M249.664 120.624C250.039 120.429 250.455 120.326 250.877 120.326C251.3 120.326 251.716 120.429 252.09 120.624C251.716 120.82 251.3 120.923 250.877 120.923C250.455 120.923 250.039 120.82 249.664 120.624Z" fill="#263238"/>
<path d="M252.96 123.843C252.759 123.478 252.656 123.067 252.662 122.651C252.653 122.234 252.756 121.822 252.96 121.459C253.162 121.823 253.265 122.234 253.258 122.651C253.262 123.067 253.16 123.477 252.96 123.843Z" fill="#263238"/>
<path d="M256.179 120.547C255.804 120.743 255.388 120.845 254.966 120.845C254.543 120.845 254.127 120.743 253.753 120.547C254.127 120.351 254.543 120.249 254.966 120.249C255.388 120.249 255.804 120.351 256.179 120.547Z" fill="#263238"/>
<path d="M171.779 55.6545C171.981 56.019 172.084 56.4299 172.077 56.8465C172.087 57.2634 171.984 57.6752 171.779 58.0385C171.577 57.674 171.475 57.263 171.481 56.8465C171.477 56.4302 171.58 56.0199 171.779 55.6545Z" fill="white"/>
<path d="M168.561 58.9504C168.935 58.7546 169.351 58.6523 169.774 58.6523C170.196 58.6523 170.612 58.7546 170.986 58.9504C170.612 59.1462 170.196 59.2485 169.774 59.2485C169.351 59.2485 168.935 59.1462 168.561 58.9504Z" fill="white"/>
<path d="M171.857 62.1688C171.659 61.8027 171.556 61.3928 171.559 60.9768C171.552 60.5602 171.655 60.1492 171.857 59.7848C172.061 60.1483 172.164 60.5599 172.155 60.9768C172.161 61.3933 172.058 61.8043 171.857 62.1688Z" fill="white"/>
<path d="M175.075 58.8729C174.701 59.0687 174.285 59.171 173.862 59.171C173.44 59.171 173.024 59.0687 172.649 58.8729C173.024 58.6771 173.44 58.5748 173.862 58.5748C174.285 58.5748 174.701 58.6771 175.075 58.8729Z" fill="white"/>
<path d="M56.3101 234.985C56.5059 235.359 56.6082 235.775 56.6082 236.198C56.6082 236.62 56.5059 237.036 56.3101 237.411C56.1143 237.036 56.012 236.62 56.012 236.198C56.012 235.775 56.1143 235.359 56.3101 234.985Z" fill="white"/>
<path d="M53.0917 238.281C53.466 238.085 53.8821 237.983 54.3045 237.983C54.727 237.983 55.1431 238.085 55.5174 238.281C55.1431 238.477 54.727 238.579 54.3045 238.579C53.8821 238.579 53.466 238.477 53.0917 238.281Z" fill="white"/>
<path d="M56.3876 241.499C56.1918 241.126 56.0895 240.711 56.0895 240.289C56.0895 239.868 56.1918 239.453 56.3876 239.079C56.5834 239.453 56.6857 239.868 56.6857 240.289C56.6857 240.711 56.5834 241.126 56.3876 241.499Z" fill="white"/>
<path d="M59.6 238.203C59.2257 238.399 58.8096 238.501 58.3872 238.501C57.9648 238.501 57.5486 238.399 57.1743 238.203C57.5486 238.008 57.9648 237.905 58.3872 237.905C58.8096 237.905 59.2257 238.008 59.6 238.203Z" fill="white"/>
<path d="M146.396 170.849C146.793 172.035 146.793 173.317 146.396 174.503C145.998 173.317 145.998 172.035 146.396 170.849Z" fill="white"/>
<path d="M141.538 175.82C142.726 175.422 144.01 175.422 145.198 175.82C144.611 176.032 143.991 176.133 143.368 176.118C142.745 176.129 142.125 176.028 141.538 175.82Z" fill="white"/>
<path d="M146.515 180.677C146.305 180.091 146.204 179.471 146.217 178.848C146.202 178.225 146.303 177.604 146.515 177.018C146.723 177.605 146.824 178.225 146.813 178.848C146.822 179.47 146.721 180.09 146.515 180.677Z" fill="white"/>
<path d="M151.384 175.707C150.195 176.096 148.913 176.096 147.725 175.707C148.912 175.309 150.197 175.309 151.384 175.707Z" fill="white"/>
<path d="M270.65 46.3867C270.401 48.8142 269.482 51.1247 267.995 53.0598C266.509 54.9949 264.513 56.4783 262.231 57.3441C259.95 58.2099 257.473 58.4241 255.076 57.9625C252.68 57.501 250.46 56.382 248.663 54.7307L242.077 55.7022L245.373 50.0104C244.619 48.1571 244.298 46.1563 244.433 44.1601C244.569 42.1639 245.158 40.2248 246.155 38.4904C247.153 36.756 248.533 35.2719 250.19 34.151C251.847 33.03 253.738 32.3017 255.719 32.0214C257.7 31.7411 259.719 31.9163 261.623 32.5335C263.526 33.1508 265.263 34.1939 266.703 35.5835C268.142 36.9731 269.246 38.6727 269.93 40.5529C270.614 42.4332 270.86 44.4447 270.65 46.4344V46.3867Z" fill="white"/>
<path d="M263.14 47.5012C261.659 49.4681 259.773 51.094 257.609 52.2692C255.448 51.0929 253.564 49.467 252.084 47.5012C250.141 44.9205 250.237 40.8916 253.02 40.0214C256.095 39.0559 257.609 43.6868 257.609 43.6868C257.609 43.6868 259.147 39.0261 262.204 40.0214C264.976 40.9214 265.083 44.9205 263.14 47.5012Z" fill="#F3A13B"/>
</g>
<defs>
<clipPath id="clip0_0_536">
<rect width="298" height="298" fill="white"/>
</clipPath>
</defs>
</svg>
