<svg width="298" height="298" viewBox="0 0 298 298" fill="none" xmlns="http://www.w3.org/2000/svg">
<path d="M215.227 283.66C203.027 274.506 200.739 258.205 201.728 243.657C201.889 241.225 201.728 238.65 202.92 236.558C204.112 234.466 206.895 233.096 209.041 234.174C210.829 235.08 211.532 237.208 212.486 238.978C213.755 241.343 215.669 243.3 218.005 244.622C219.525 245.475 221.426 246.035 222.981 245.218C225.115 244.128 225.461 241.243 225.526 238.823L225.902 225.294C225.967 222.91 226.045 220.407 226.873 218.142C227.702 215.877 229.436 213.797 231.761 213.231C234.085 212.665 236.88 214.089 237.285 216.473C237.458 217.463 237.22 218.476 237.256 219.483C237.291 220.49 237.721 221.617 238.662 221.927C239.604 222.237 240.611 221.593 241.356 220.907C243.937 218.523 245.737 215.46 247.423 212.391C249.11 209.321 250.755 206.162 253.109 203.576C255.463 200.989 258.67 198.981 262.139 198.903C265.607 198.826 269.225 201.084 269.988 204.517C270.751 207.95 268.647 211.348 266.412 214.053C263.063 218.04 259.154 221.521 254.808 224.388C254.027 224.901 253.181 225.461 252.865 226.343C252.269 227.94 253.759 229.591 255.332 230.175C257.12 230.837 259.075 230.718 260.953 231.004C262.83 231.29 264.844 232.196 265.5 233.984C266.406 236.487 264.248 239.008 262.162 240.635C257.973 243.899 253.254 246.417 248.21 248.079C246.422 248.675 244.515 249.176 243.037 250.38C241.559 251.584 240.653 253.723 241.434 255.458C242.214 257.192 244.449 257.812 246.321 257.526C248.192 257.24 249.897 256.292 251.685 255.678C255.052 254.54 259.337 254.909 261.37 257.853C262.705 259.79 262.741 262.425 261.966 264.648C261.191 266.871 259.677 268.796 258.068 270.542C252.531 276.61 245.552 281.413 237.738 283.821C229.925 286.229 222.773 286.718 215.204 283.66" fill="#8A6DE1"/>
<path d="M219.328 274.655C222.011 266.8 225.146 259.107 228.715 251.613C229.651 249.617 230.58 247.644 231.486 245.701C232.392 243.758 233.31 241.839 234.311 240.015C236.243 236.522 238.368 233.14 240.677 229.883C242.858 226.748 245.039 223.852 247.102 221.164C249.164 218.476 251.142 216.002 253.062 213.827C256.034 210.381 259.276 207.179 262.759 204.249C263.986 203.212 264.97 202.461 265.643 201.919L266.406 201.323C266.491 201.252 266.583 201.19 266.68 201.138C266.605 201.218 266.523 201.292 266.436 201.359L265.697 201.955C265.041 202.491 264.082 203.29 262.872 204.339C259.443 207.314 256.243 210.543 253.3 214C251.423 216.181 249.468 218.655 247.417 221.348C245.367 224.042 243.198 226.945 241.034 230.08C238.744 233.339 236.635 236.721 234.717 240.212C233.721 242.03 232.827 243.937 231.91 245.88C230.992 247.823 230.08 249.796 229.144 251.792C225.582 259.271 222.442 266.943 219.739 274.774" fill="#E0E0E0"/>
<path d="M234.413 239.997C234.303 239.661 234.235 239.313 234.21 238.96C234.103 238.287 233.984 237.309 233.858 236.099C233.596 233.68 233.352 230.324 233.09 226.629C232.827 222.934 232.541 219.584 232.243 217.176C232.1 215.984 231.975 215.001 231.874 214.328C231.804 213.98 231.772 213.627 231.778 213.273C231.906 213.603 231.996 213.947 232.047 214.298C232.196 214.959 232.368 215.931 232.553 217.135C232.935 219.519 233.28 222.892 233.537 226.593C233.793 230.294 234.002 233.549 234.168 236.07C234.252 237.208 234.323 238.168 234.383 238.942C234.431 239.292 234.441 239.646 234.413 239.997Z" fill="#E0E0E0"/>
<path d="M265.697 235.235C265.289 235.315 264.873 235.351 264.457 235.343C263.652 235.39 262.496 235.444 261.066 235.563C258.211 235.772 254.271 236.207 249.944 236.868C245.618 237.53 241.738 238.317 238.942 238.96C237.542 239.27 236.415 239.556 235.635 239.741C235.237 239.866 234.827 239.952 234.413 239.997C234.795 239.818 235.195 239.676 235.605 239.574C236.374 239.33 237.488 238.978 238.883 238.65C241.672 237.923 245.564 237.101 249.897 236.421C253.597 235.833 257.325 235.435 261.066 235.229C262.502 235.152 263.664 235.14 264.469 235.152C264.88 235.142 265.291 235.169 265.697 235.235Z" fill="#E0E0E0"/>
<path d="M219.698 274.094C219.617 273.974 219.551 273.843 219.501 273.707C219.364 273.397 219.203 273.022 219.006 272.563C218.583 271.573 218.005 270.113 217.314 268.307C215.937 264.696 214.185 259.647 212.331 254.045C210.477 248.443 208.755 243.389 207.474 239.741C206.836 237.953 206.311 236.517 205.918 235.438L205.501 234.246C205.441 234.112 205.403 233.969 205.388 233.823C205.466 233.945 205.532 234.075 205.584 234.21C205.721 234.52 205.882 234.896 206.079 235.354C206.502 236.35 207.08 237.804 207.772 239.61C209.148 243.222 210.901 248.27 212.754 253.872C214.608 259.475 216.33 264.535 217.612 268.176C218.249 269.964 218.774 271.395 219.167 272.473L219.584 273.665C219.644 273.802 219.682 273.946 219.698 274.094Z" fill="#E0E0E0"/>
<path d="M261.465 262.174C261.335 262.242 261.197 262.294 261.054 262.329L259.862 262.687L255.392 263.974C251.613 265.059 246.416 266.621 240.671 268.349C234.925 270.077 229.71 271.591 225.908 272.598C224.007 273.105 222.469 273.498 221.396 273.749L220.162 274.029C220.02 274.073 219.871 274.096 219.721 274.094C219.853 274.026 219.994 273.974 220.139 273.939L221.331 273.576L225.801 272.295C229.579 271.21 234.776 269.648 240.522 267.92C246.267 266.191 251.482 264.672 255.285 263.664C257.18 263.164 258.724 262.77 259.796 262.52L261.048 262.24C261.183 262.197 261.324 262.175 261.465 262.174Z" fill="#E0E0E0"/>
<path d="M249.807 115.07C267.131 115.07 281.175 101.026 281.175 83.7023C281.175 66.3785 267.131 52.3348 249.807 52.3348C232.484 52.3348 218.44 66.3785 218.44 83.7023C218.44 101.026 232.484 115.07 249.807 115.07Z" fill="#8A6DE1"/>
<g opacity="0.3">
<path d="M224.019 94.4303C223.703 94.6448 222.785 93.8343 222.308 92.4337C221.831 91.0331 222.046 89.8351 222.427 89.8113C222.809 89.7874 223.226 90.7768 223.619 91.9748C224.013 93.1727 224.352 94.2157 224.019 94.4303Z" fill="white"/>
</g>
<path d="M79.9807 159.908C83.4128 146.132 75.0277 132.183 61.252 128.75C47.4764 125.318 33.5267 133.703 30.0946 147.479C26.6625 161.255 35.0476 175.204 48.8233 178.636C62.5989 182.069 76.5486 173.683 79.9807 159.908Z" fill="#8A6DE1"/>
<path d="M77.9568 150.317C78.3442 150.317 78.7733 150.973 79.0832 152.296C79.4561 154.168 79.4864 156.093 79.1726 157.976C78.7462 160.815 77.7943 163.55 76.3655 166.04C74.6116 169.165 72.1798 171.859 69.2487 173.921C66.3175 175.984 62.9615 177.364 59.4271 177.96C56.6012 178.471 53.7043 178.449 50.8865 177.894C49.0078 177.554 47.2065 176.875 45.5701 175.892C44.4318 175.158 43.9371 174.527 44.0861 174.169C44.4199 173.376 47.1317 173.972 51.2381 173.835C53.6145 173.766 55.9739 173.409 58.265 172.774C63.7829 171.313 68.5989 167.932 71.8478 163.238C73.2161 161.295 74.3447 159.194 75.2092 156.98C76.7469 153.118 77.1045 150.365 77.9568 150.317Z" fill="#E0E0E0"/>
<path d="M62.7469 150.496C62.8184 150.526 62.431 151.587 61.1615 152.844C59.4911 154.507 57.2639 155.493 54.9097 155.611C52.5555 155.728 50.2411 154.97 48.4131 153.482C47.0244 152.355 46.5357 151.336 46.6251 151.301C46.7145 151.265 47.3701 152.093 48.7587 153.047C50.542 154.323 52.7042 154.958 54.8941 154.85C57.0839 154.741 59.1729 153.896 60.8218 152.451C62.0853 151.384 62.6336 150.424 62.7469 150.496Z" fill="white"/>
<path d="M44.5331 145.287C44.3128 144.871 43.9718 144.531 43.5549 144.312C43.138 144.092 42.6646 144.004 42.1968 144.059C41.9112 144.075 41.6352 144.167 41.3981 144.327C41.0433 144.605 40.769 144.972 40.6035 145.391C40.438 145.811 40.3872 146.266 40.4565 146.711C40.5208 147.017 40.6478 147.305 40.8295 147.559C41.0112 147.813 41.2436 148.026 41.512 148.185C41.7804 148.344 42.0789 148.446 42.3886 148.483C42.6984 148.521 43.0126 148.494 43.3113 148.404C43.6005 148.285 43.8627 148.109 44.082 147.886C44.3013 147.663 44.4732 147.397 44.5873 147.106C44.7015 146.815 44.7555 146.504 44.7462 146.191C44.7369 145.878 44.6644 145.571 44.5331 145.287Z" fill="white"/>
<path d="M71.52 147.772C71.3889 147.772 71.52 146.938 71.0849 145.811C70.8145 145.169 70.386 144.605 69.8393 144.172C69.1638 143.669 68.3391 143.407 67.497 143.427C66.6545 143.433 65.839 143.725 65.1845 144.256C64.6488 144.704 64.2382 145.283 63.9925 145.937C63.5634 147.075 63.7541 147.885 63.623 147.903C63.4919 147.921 63.1402 147.123 63.474 145.77C63.666 145.09 64.0244 144.468 64.5168 143.961C65.0092 143.454 65.6201 143.078 66.2944 142.866C66.9686 142.654 67.685 142.614 68.3788 142.748C69.0726 142.883 69.722 143.188 70.2684 143.636C70.8917 144.165 71.3491 144.862 71.5855 145.645C71.967 146.974 71.5796 147.808 71.52 147.772Z" fill="white"/>
<path d="M45.5761 39.2764C45.5013 40.0636 45.1946 40.8108 44.6946 41.4234C44.1947 42.0361 43.5242 42.4865 42.768 42.7176C42.0118 42.9487 41.2041 42.9501 40.4471 42.7217C39.6901 42.4932 39.018 42.0452 38.5159 41.4343C38.0138 40.8235 37.7044 40.0773 37.6269 39.2904C37.5493 38.5035 37.7071 37.7113 38.0803 37.0142C38.4535 36.3171 39.0252 35.7465 39.723 35.3746C40.4209 35.0028 41.2134 34.8465 42.0001 34.9256C43.0507 35.0296 44.0172 35.5461 44.6876 36.3617C45.358 37.1773 45.6775 38.2255 45.5761 39.2764Z" fill="#E0E0E0"/>
<path d="M45.1231 37.8996C44.9145 38.0308 42.6319 34.4905 40.6651 29.7344C38.6983 24.9784 37.1725 21.152 37.3632 21.0507C37.5539 20.9494 39.5267 24.6267 41.4756 29.3947C43.4245 34.1627 45.3317 37.7745 45.1231 37.8996Z" fill="#E0E0E0"/>
<path d="M45.1112 17.3496C45.3198 17.439 44.2768 19.4356 41.9107 20.6574C39.5446 21.8792 37.3156 21.611 37.3632 21.3905C37.4109 21.1699 39.3777 21.015 41.4995 19.8826C43.6212 18.7502 44.8967 17.1946 45.1112 17.3496Z" fill="#E0E0E0"/>
<path d="M46.488 21.2593C46.7145 21.3309 45.7609 23.3632 43.3649 24.3883C40.969 25.4135 38.8413 24.7519 38.9426 24.5433C39.0439 24.3347 40.9154 24.5433 43.0133 23.5837C45.1112 22.6242 46.2734 21.1103 46.488 21.2593Z" fill="#E0E0E0"/>
<path d="M30.8728 111.994C30.764 112.518 30.5024 112.998 30.121 113.373C29.7397 113.748 29.2557 114.002 28.7302 114.102C28.2047 114.202 27.6613 114.144 27.1687 113.936C26.676 113.727 26.2563 113.377 25.9624 112.93C25.6686 112.483 25.5138 111.959 25.5177 111.424C25.5216 110.889 25.684 110.368 25.9843 109.925C26.2847 109.482 26.7095 109.139 27.2051 108.937C27.7007 108.736 28.2449 108.686 28.7689 108.794C29.1174 108.866 29.4482 109.005 29.7426 109.205C30.037 109.405 30.2891 109.661 30.4845 109.958C30.68 110.255 30.8148 110.588 30.8815 110.937C30.9481 111.287 30.9451 111.646 30.8728 111.994Z" fill="#E0E0E0"/>
<path d="M30.6701 111.035C30.4377 111.148 29.0848 108.609 28.1133 105.248C27.1418 101.886 26.4803 99.1982 26.7067 99.1088C26.9332 99.0194 28.0597 101.648 29.0133 104.979C29.9669 108.311 30.9026 110.922 30.6701 111.035Z" fill="#E0E0E0"/>
<path d="M35.4441 98.2983C35.5871 98.4652 33.9303 100.003 31.2363 100.498C30.0909 100.733 28.9026 100.646 27.8034 100.247C26.9511 99.9134 26.6114 99.4128 26.6829 99.3353C26.7544 99.2578 27.2133 99.4784 27.9941 99.6154C29.0156 99.7861 30.0597 99.77 31.0754 99.5678C33.4952 99.1386 35.2891 98.048 35.4441 98.2983Z" fill="#E0E0E0"/>
<path d="M39.6042 111.19C39.4954 111.714 39.2338 112.193 38.8524 112.569C38.4711 112.944 37.9871 113.197 37.4616 113.298C36.9361 113.398 36.3927 113.34 35.9001 113.131C35.4074 112.923 34.9877 112.573 34.6938 112.126C34.3999 111.679 34.2452 111.155 34.2491 110.62C34.253 110.085 34.4154 109.563 34.7157 109.12C35.0161 108.678 35.4409 108.334 35.9365 108.133C36.4321 107.931 36.9763 107.881 37.5003 107.989C38.2024 108.137 38.8177 108.556 39.2118 109.156C39.606 109.756 39.747 110.487 39.6042 111.19Z" fill="#E0E0E0"/>
<path d="M39.4015 110.224C39.1691 110.337 37.8221 107.799 36.8507 104.443C35.8792 101.088 35.2176 98.3877 35.4441 98.2983C35.6706 98.2089 36.7911 100.843 37.7447 104.169C38.6983 107.495 39.634 110.117 39.4015 110.224Z" fill="#E0E0E0"/>
<path d="M36.0401 100.051C36.2189 100.211 34.7349 101.785 32.2257 102.339C29.7166 102.893 27.708 102.119 27.8034 101.892C27.8988 101.666 29.7762 101.946 32.0231 101.421C34.27 100.897 35.8673 99.83 36.0401 100.051Z" fill="#E0E0E0"/>
<path d="M240.552 177.012C235.09 177.012 229.853 174.843 225.991 170.981C222.129 167.119 219.96 161.881 219.96 156.42C219.96 150.959 222.129 145.721 225.991 141.86C229.853 137.998 235.09 135.828 240.552 135.828C246.013 135.828 251.25 137.998 255.112 141.86C258.974 145.721 261.143 150.959 261.143 156.42C261.143 161.881 258.974 167.119 255.112 170.981C251.25 174.843 246.013 177.012 240.552 177.012Z" fill="#F3A13B"/>
<path d="M125.756 234.925C123.772 238.843 122.019 242.872 120.505 246.994C118.306 253.139 113.896 286.605 113.896 286.605L204.851 286.342L206.895 286.247C206.895 286.247 204.106 244.843 192.293 231.343L125.756 234.925Z" fill="#263238"/>
<path d="M214.083 164.603C212.981 163.441 211.622 162.464 210.895 161.027C208.999 157.308 212.259 152.862 211.562 148.75C210.591 142.992 203.117 141.3 199.279 136.895C194.654 131.591 196.126 123.563 197.276 116.631C198.647 108.347 199.147 99.7167 196.716 91.6827C195.494 87.6418 192.711 83.5592 189.236 80.1799C184.437 75.5744 178.11 72.8969 171.463 72.6583C165.503 72.408 159.972 78.6183 155.097 82.0871C144.613 89.5013 139.053 97.3923 137.02 111.637C134.398 130.029 140.799 148.94 151.7 163.983C160.527 176.166 172.804 186.476 187.46 189.957C192.824 191.227 198.474 191.554 203.749 190.023C209.023 188.491 213.881 184.957 216.169 179.974C218.458 174.992 217.868 168.585 214.083 164.603Z" fill="#263238"/>
<path d="M194.767 165.968C195.06 165.309 195.234 164.602 195.279 163.882C195.242 161.903 194.503 160.002 193.193 158.518C192.436 157.523 191.489 156.516 190.577 155.33C189.54 154.077 188.828 152.589 188.503 150.997C188.343 150.109 188.404 149.196 188.682 148.338C188.98 147.45 189.57 146.735 189.874 145.954C190.049 145.577 190.11 145.155 190.049 144.743C189.987 144.331 189.806 143.946 189.528 143.636C188.98 142.945 188.193 142.349 187.615 141.508C186.541 139.887 186.007 137.968 186.089 136.025C186.139 134.252 186.471 132.497 187.072 130.828C188.151 127.651 189.427 124.922 189.844 122.484C190.261 120.554 190.163 118.547 189.558 116.667C189.299 115.99 188.98 115.338 188.604 114.718C189.118 115.252 189.513 115.891 189.76 116.59C190.459 118.496 190.622 120.557 190.231 122.55C189.85 125.094 188.592 127.878 187.555 131.013C186.989 132.638 186.677 134.341 186.631 136.061C186.557 137.887 187.06 139.691 188.068 141.216C188.58 141.979 189.343 142.551 189.963 143.326C190.286 143.724 190.507 144.194 190.607 144.697C190.678 145.203 190.606 145.72 190.398 146.187C190.023 147.075 189.451 147.772 189.206 148.571C188.956 149.34 188.897 150.158 189.033 150.955C189.329 152.483 189.994 153.915 190.97 155.127C191.846 156.319 192.758 157.326 193.533 158.351C195.107 160.378 195.667 162.523 195.518 163.96C195.484 164.513 195.34 165.054 195.095 165.551C195.008 165.707 194.898 165.847 194.767 165.968Z" fill="#455A64"/>
<path d="M181.649 149.37C181.649 149.37 181.571 149.268 181.476 149.06C181.332 148.758 181.209 148.448 181.107 148.13C180.728 146.952 180.528 145.725 180.511 144.488C180.481 142.656 180.698 140.828 181.154 139.053C181.713 136.895 182.42 134.778 183.27 132.717C184.146 130.524 184.963 128.438 185.559 126.495C186.106 124.787 186.467 123.024 186.637 121.238C186.888 118.169 186.22 116.315 186.345 116.292C186.536 116.701 186.673 117.134 186.751 117.579C187.007 118.789 187.1 120.028 187.025 121.262C186.911 123.082 186.583 124.883 186.047 126.626C185.451 128.605 184.659 130.715 183.789 132.902C182.944 134.94 182.232 137.031 181.655 139.16C181.183 140.89 180.931 142.672 180.904 144.464C180.874 147.564 181.78 149.334 181.649 149.37Z" fill="#455A64"/>
<path d="M141.848 130.369C140.847 131.037 117.835 130.035 114.498 134.368C114.498 134.368 118.074 225.252 125.768 234.925L192.305 231.349L183.83 148.058L187.651 139.017L167.536 133.057L141.848 130.369Z" fill="#F3A13B"/>
<g opacity="0.2">
<path d="M119.921 195.583C122.627 196.507 125.696 195.863 128.134 194.391C130.572 192.919 132.455 190.643 134.017 188.253C138.439 181.476 140.573 173.424 141.389 165.372C142.206 157.32 141.681 149.209 141.163 141.133C140.34 149.286 139.512 157.463 137.634 165.444C135.757 173.424 132.789 181.232 128.009 187.889C126.849 189.643 125.379 191.17 123.67 192.395C122.81 193.001 121.834 193.424 120.804 193.639C119.774 193.853 118.711 193.853 117.68 193.64" fill="black"/>
</g>
<path d="M143.517 108.877C141.355 106.94 139.924 104.318 139.464 101.451C139.254 100.027 139.366 98.5732 139.791 97.1975C140.216 95.8218 140.943 94.5586 141.919 93.5005C142.921 92.4636 144.19 91.7247 145.587 91.3659C146.983 91.0071 148.451 91.0425 149.828 91.4681" fill="#F3A13B"/>
<path d="M159.311 74.9172C165.396 71.3412 169.783 71.5081 174.586 72.5332C181.875 74.0828 189.015 78.2727 192.919 84.6141C196.495 90.443 196.835 97.8394 195.118 104.461C194.522 106.797 192.991 108.669 191.513 110.576C190.035 112.483 186.5 114.253 184.098 114.509C181.697 114.766 181.118 113.764 180.046 111.613C179.378 110.296 179.307 108.77 179.235 107.298C178.913 101.064 178.204 94.764 175.82 89.0007C173.436 83.2374 169.002 78.076 163.143 75.9602" fill="#455A64"/>
<path d="M151.7 86.2233C151.975 83.8661 152.809 81.6087 154.133 79.639C155.457 77.6693 157.232 76.0443 159.311 74.8993C162.452 73.2186 166.123 72.7358 169.675 72.9444C174.443 73.2305 179.271 74.8039 182.787 78.0641C186.304 81.3242 188.241 86.4081 187.066 91.0449C186.53 93.1488 185.386 95.1276 185.332 97.297C185.332 98.2446 185.469 99.2817 184.915 100.045C184.637 100.378 184.268 100.623 183.853 100.751C183.439 100.879 182.996 100.884 182.579 100.766C181.748 100.517 180.997 100.057 180.397 99.4307C178.252 97.4162 176.821 94.7699 175.45 92.1714" fill="#263238"/>
<path d="M150.842 88.357C153.559 82.1824 160.598 75.9661 166.648 78.9461L184.492 91.1403C185.378 91.5793 186.068 92.3342 186.425 93.2564C186.783 94.1786 186.782 95.2013 186.423 96.1229L166.88 142.772L159.841 146.801C153.333 150.532 144.941 146.431 144.232 138.963C144.174 138.536 144.174 138.103 144.232 137.676C144.282 137.329 144.352 136.984 144.441 136.645C144.975 134.385 145.746 132.187 146.741 130.089C148.1 126.245 148.678 124.677 148.666 124.725C148.654 124.773 141.079 120.416 143.302 109.265C144.399 103.704 147.808 95.2169 150.842 88.357Z" fill="#FFBE9D"/>
<path d="M149.924 95.8129C150.025 96.0513 151.33 95.6699 152.785 96.2063C154.239 96.7427 155.032 97.8632 155.258 97.744C155.365 97.6963 155.312 97.3149 154.972 96.8023C154.5 96.1378 153.837 95.6327 153.071 95.354C152.316 95.0724 151.49 95.0411 150.716 95.2646C150.138 95.4434 149.87 95.7056 149.924 95.8129Z" fill="#263238"/>
<path d="M164.454 101.32C164.556 101.558 165.861 101.177 167.309 101.713C168.757 102.25 169.562 103.37 169.788 103.251C169.89 103.197 169.842 102.822 169.496 102.309C169.029 101.64 168.364 101.134 167.595 100.861C166.84 100.581 166.016 100.547 165.241 100.766C164.669 100.95 164.401 101.219 164.454 101.32Z" fill="#263238"/>
<path d="M156.015 107.876C156.051 107.793 155.204 107.28 153.81 106.577C153.452 106.404 153.13 106.201 153.16 105.927C153.268 105.531 153.495 105.178 153.81 104.914L155.949 102.494C158.929 99.0254 161.272 96.1229 161.129 96.0037C160.986 95.8845 158.441 98.5963 155.437 102.059L153.339 104.515C152.944 104.88 152.687 105.371 152.612 105.903C152.618 106.054 152.659 106.201 152.73 106.334C152.801 106.468 152.901 106.583 153.023 106.672C153.207 106.803 153.407 106.909 153.619 106.988C155.067 107.62 155.979 107.959 156.015 107.876Z" fill="#263238"/>
<path d="M148.69 124.719C153.625 126.614 158.989 127.105 164.186 126.137C164.186 126.137 157.958 132.127 147.778 127.27L148.69 124.719Z" fill="#EB996E"/>
<path d="M172.983 97.5116C173.09 97.0765 171.696 96.3792 170.313 95.1872C168.93 93.9952 167.983 92.7614 167.571 92.9402C167.381 93.0296 167.369 93.5005 167.637 94.168C168.004 95.0289 168.572 95.7892 169.294 96.3851C170.004 96.9978 170.85 97.433 171.761 97.6546C172.464 97.8036 172.923 97.744 172.983 97.5116Z" fill="#263238"/>
<path d="M157.725 89.2272C157.481 88.8517 156.384 89.1258 155.109 89.0305C153.834 88.9351 152.767 88.5894 152.487 88.9351C152.361 89.102 152.487 89.4656 152.946 89.841C153.547 90.2923 154.269 90.5557 155.019 90.5981C155.77 90.6405 156.517 90.4601 157.165 90.0794C157.648 89.7576 157.827 89.4 157.725 89.2272Z" fill="#263238"/>
<path d="M176.952 112.674C177.244 111.893 178.83 110.373 179.652 110.54C181.84 110.975 185.505 112.513 183.61 117.781C181.017 124.981 174.324 120.893 174.384 120.684C174.443 120.475 175.951 115.386 176.952 112.674Z" fill="#FFBE9D"/>
<path d="M177.566 118.747C177.608 118.747 177.662 118.878 177.84 119.051C178.091 119.288 178.425 119.417 178.77 119.409C179.628 119.409 180.707 118.425 181.208 117.144C181.448 116.532 181.55 115.875 181.506 115.219C181.52 114.97 181.473 114.722 181.369 114.495C181.265 114.269 181.107 114.071 180.91 113.919C180.78 113.828 180.622 113.786 180.464 113.8C180.305 113.815 180.157 113.884 180.046 113.997C179.879 114.164 179.873 114.319 179.831 114.319C179.789 114.319 179.718 114.146 179.885 113.866C179.99 113.703 180.148 113.582 180.332 113.52C180.456 113.48 180.587 113.465 180.717 113.476C180.847 113.488 180.973 113.525 181.089 113.586C181.363 113.75 181.591 113.982 181.751 114.26C181.91 114.537 181.996 114.851 182 115.171C182.08 115.905 181.98 116.648 181.708 117.335C181.142 118.771 179.92 119.862 178.764 119.79C178.551 119.777 178.344 119.717 178.157 119.614C177.971 119.511 177.809 119.367 177.685 119.194C177.519 118.926 177.536 118.753 177.566 118.747Z" fill="#EB996E"/>
<path d="M166.117 77.3429C165.777 79.1928 165.941 81.1003 166.594 82.8645C167.246 84.6287 168.362 86.1844 169.824 87.3676C171.398 88.6073 173.49 89.5907 173.954 91.5396C174.419 93.4885 172.912 95.5626 173.287 97.5711C173.817 100.36 177.679 101.743 177.787 104.568C177.834 105.808 177.101 106.982 177.191 108.216C177.286 109.867 178.883 111.196 180.528 111.273C181.355 111.28 182.174 111.106 182.926 110.763C183.679 110.42 184.347 109.917 184.885 109.288C185.948 108.022 186.801 106.593 187.412 105.057C188.741 102.077 189.963 99.0135 190.166 95.7772C190.589 88.9887 185.088 77.2297 178.591 75.2152" fill="#263238"/>
<path d="M179.08 78.8746C179.038 79.0475 176.041 77.784 172.208 78.2786C168.376 78.7733 165.742 80.6269 165.652 80.466C166.122 79.9452 166.694 79.5272 167.333 79.2382C170.342 77.6143 173.856 77.1986 177.161 78.076C177.849 78.2067 178.502 78.4786 179.08 78.8746Z" fill="#455A64"/>
<path d="M171.243 75.4596C171.243 75.6264 169.455 75.7695 167.75 77.1284C166.046 78.4872 165.461 80.1918 165.307 80.1084C165.152 80.0249 165.307 79.6256 165.593 78.9164C166.011 78.0278 166.63 77.2489 167.402 76.6416C168.174 76.0343 169.077 75.6153 170.039 75.4178C170.778 75.3284 171.243 75.394 171.243 75.4596Z" fill="#455A64"/>
<path d="M157.082 115.278C158.506 115.01 159.817 114.229 159.972 112.733C160.037 112.425 160.009 112.105 159.891 111.813C159.773 111.521 159.571 111.271 159.311 111.094C158.859 110.878 158.355 110.791 157.857 110.844C156.343 111.202 155.014 111.643 153.464 111.601C153.464 111.601 152.725 113.014 153.464 114.086C154.203 115.159 155.657 115.547 157.082 115.278Z" fill="#EB996E"/>
<path d="M155.371 115.254C155.371 115.254 155.562 115.296 155.908 115.314C156.393 115.327 156.878 115.275 157.35 115.159C158.044 115.029 158.675 114.667 159.138 114.134C159.423 113.815 159.624 113.43 159.723 113.014C159.822 112.597 159.815 112.163 159.704 111.75C159.648 111.55 159.538 111.37 159.387 111.228C159.236 111.086 159.049 110.989 158.846 110.945C158.444 110.891 158.036 110.934 157.654 111.071C156.958 111.327 156.233 111.499 155.496 111.583C155.001 111.631 154.504 111.647 154.006 111.631C153.822 111.638 153.638 111.622 153.458 111.583C153.458 111.524 154.239 111.524 155.473 111.369C156.191 111.251 156.896 111.061 157.576 110.802C158.005 110.637 158.469 110.584 158.923 110.647C159.179 110.701 159.416 110.822 159.608 110.998C159.801 111.174 159.943 111.399 160.02 111.649C160.146 112.11 160.153 112.597 160.039 113.062C159.926 113.527 159.695 113.955 159.37 114.307C159.099 114.616 158.769 114.867 158.399 115.046C157.609 115.385 156.744 115.512 155.89 115.415C155.556 115.374 155.359 115.272 155.371 115.254Z" fill="#263238"/>
<path d="M114.706 133.808C114.706 133.808 110.761 137.414 109.265 141.097C107.405 145.668 100.432 154.048 100.712 160.711C100.933 165.855 102.774 174.276 116.327 171.964C129.88 169.651 131.615 159.412 131.615 159.412L124.403 136.913L114.706 133.808Z" fill="#F3A13B"/>
<g opacity="0.3">
<path d="M114.831 134.017C114.831 134.017 110.528 137.646 109.265 141.097C107.566 145.728 100.432 154.048 100.712 160.711C100.933 165.855 102.774 174.276 116.327 171.964C129.88 169.651 124.183 160.842 124.183 160.842L124.403 136.913L114.831 134.017Z" fill="black"/>
</g>
<path d="M124.695 157.106C124.695 157.106 112.715 149.358 101.117 157.433C100.891 157.588 101.499 155.914 102.446 153.857C104.234 150.049 107.036 144.578 107.036 144.578C107.036 144.578 113.174 133.152 116.142 133.152L124.695 135.739V157.106Z" fill="#F3A13B"/>
<path d="M108.198 154.257C108.198 154.257 106.732 171.237 107.095 177.739C107.459 184.241 113.401 201.883 125.607 192.848C137.813 183.812 142.015 131.597 142.015 131.597L132.908 127.633L122.234 155.83C120.163 154.808 117.923 154.174 115.624 153.959C113.149 153.648 110.64 153.748 108.198 154.257Z" fill="#FFBE9D"/>
<path d="M132.723 128.968L127.759 104.956L132.735 92.9224C133.323 93.2122 133.81 93.6741 134.129 94.2469C134.448 94.8197 134.586 95.4761 134.523 96.1288C134.338 98.4771 132.103 104.133 132.103 104.133L138.475 95.4196C138.475 95.4196 140.263 96.1884 139.315 98.3281C138.367 100.468 135.471 105.033 135.471 105.033L138.576 113.157C138.576 113.157 139.226 108.955 140.608 109.271C141.991 109.587 141.717 113.109 141.717 113.109L141.431 120.064C141.431 120.064 143.642 124.755 143.1 127.812C142.838 129.511 142.292 131.153 141.484 132.67L132.723 128.968Z" fill="#FFBE9D"/>
<path d="M194.171 144.035C191.119 140.006 187.514 139.106 187.514 139.106L182.15 149.459L189.433 175.349C195.202 172.053 201.543 169.985 206.824 170.361C206.812 170.361 198.349 149.542 194.171 144.035Z" fill="#F3A13B"/>
<g opacity="0.2">
<path d="M188.044 139.094C189.832 142.754 187.782 147.069 187.794 151.152C187.794 157.517 192.907 162.929 193.348 169.276C193.468 170.975 193.193 172.804 192.079 174.092C190.964 175.379 188.819 175.85 187.513 174.747C186.844 174.069 186.37 173.223 186.143 172.298L180.886 156.974C180.165 154.871 179.432 152.689 179.646 150.478C180.064 146.193 183.788 143.1 187.221 140.507" fill="black"/>
</g>
<path d="M188.662 116.537C189.841 111.515 186.993 106.552 182.302 105.451C177.61 104.349 172.852 107.527 171.673 112.549C170.494 117.57 173.342 122.534 178.033 123.635C182.725 124.736 187.483 121.558 188.662 116.537Z" fill="#F3A13B"/>
<path d="M177.358 123.479C177.358 123.479 177.262 123.449 177.101 123.354C176.866 123.222 176.641 123.072 176.428 122.907C175.624 122.311 174.95 121.557 174.449 120.69C173.726 119.384 173.346 117.916 173.347 116.423C173.262 114.595 173.674 112.778 174.539 111.166C175.413 109.558 176.701 108.212 178.27 107.268C179.548 106.485 181.019 106.072 182.519 106.076C183.527 106.068 184.519 106.329 185.392 106.833C185.626 106.97 185.844 107.134 186.041 107.322C186.178 107.447 186.244 107.518 186.232 107.53C186.22 107.542 185.922 107.292 185.314 106.976C184.447 106.546 183.486 106.341 182.519 106.38C181.082 106.42 179.682 106.846 178.466 107.614C176.964 108.535 175.73 109.837 174.89 111.386C174.052 112.934 173.641 114.676 173.698 116.435C173.68 117.87 174.013 119.288 174.67 120.565C175.14 121.414 175.76 122.171 176.499 122.8C176.799 123.009 177.086 123.235 177.358 123.479Z" fill="#263238"/>
<path d="M173.901 108.097C174.014 108.097 173.901 108.806 174.336 109.414C174.771 110.022 175.474 110.105 175.462 110.218C175.45 110.332 175.284 110.332 174.986 110.284C174.597 110.209 174.248 109.998 174.002 109.688C173.765 109.365 173.657 108.966 173.698 108.567C173.74 108.234 173.853 108.085 173.901 108.097Z" fill="#263238"/>
<path d="M173.597 110.975C173.662 110.88 173.925 110.939 174.229 111.017C174.533 111.094 174.783 111.178 174.789 111.297C174.795 111.416 174.491 111.518 174.121 111.416C173.752 111.315 173.537 111.071 173.597 110.975Z" fill="#263238"/>
<path d="M171.839 118.491C171.898 118.389 172.31 118.532 172.804 118.449C173.299 118.366 173.656 118.139 173.746 118.217C173.835 118.294 173.519 118.771 172.864 118.86C172.208 118.95 171.761 118.604 171.839 118.491Z" fill="#263238"/>
<path d="M187.996 113.472C187.996 113.472 195.786 111.827 197.497 107.888C197.798 110.166 197.624 112.481 196.984 114.688L186.256 119.79L187.996 113.472Z" fill="#F3A13B"/>
<path d="M188.765 112.888C188.869 113.22 188.919 113.566 188.914 113.913C188.988 114.75 188.962 115.592 188.837 116.423C188.718 117.274 188.41 118.089 187.937 118.807C187.567 119.343 187.227 119.575 187.204 119.552C187.18 119.528 187.442 119.23 187.752 118.687C188.146 117.975 188.411 117.198 188.533 116.393C188.646 115.581 188.702 114.763 188.7 113.943C188.667 113.59 188.689 113.235 188.765 112.888Z" fill="#263238"/>
<path d="M171.678 187.305C171.63 187.463 171.572 187.618 171.505 187.77L170.957 189.069C170.831 189.355 170.7 189.665 170.551 190.011C170.402 190.356 170.206 190.708 170.009 191.101C169.61 191.876 169.192 192.782 168.614 193.718C168.334 194.189 168.018 194.689 167.744 195.202C167.47 195.714 167.071 196.227 166.719 196.769C166.028 197.866 165.175 198.951 164.305 200.113C160.396 205.086 155.648 209.338 150.275 212.677C149.024 213.416 147.85 214.143 146.699 214.709C146.103 215.001 145.579 215.305 145.031 215.555L143.457 216.259C142.462 216.729 141.514 217.045 140.704 217.361C140.292 217.51 139.917 217.665 139.559 217.778C139.202 217.892 138.88 217.987 138.582 218.076L137.229 218.482C137.074 218.536 136.915 218.576 136.752 218.601C136.899 218.527 137.053 218.467 137.211 218.422L138.546 217.963L139.512 217.641C139.863 217.516 140.233 217.355 140.638 217.2C141.449 216.872 142.384 216.545 143.368 216.062L144.923 215.341C145.466 215.09 146.008 214.781 146.58 214.483C147.731 213.887 148.899 213.177 150.156 212.432C155.48 209.077 160.197 204.845 164.109 199.916C164.985 198.76 165.837 197.687 166.534 196.603C166.892 196.066 167.255 195.565 167.565 195.053C167.875 194.54 168.161 194.052 168.453 193.581C169.049 192.657 169.473 191.793 169.884 191C170.086 190.613 170.283 190.255 170.45 189.921C170.617 189.588 170.748 189.278 170.873 188.998C171.124 188.461 171.326 188.038 171.469 187.722C171.528 187.578 171.598 187.439 171.678 187.305Z" fill="#263238"/>
<path d="M125.309 141.115C124.911 139.6 124.399 138.118 123.777 136.681C123.056 135.291 122.235 133.954 121.322 132.682C121.689 132.969 122.012 133.308 122.281 133.689C123.682 135.46 124.66 137.526 125.142 139.732C125.268 140.182 125.324 140.648 125.309 141.115Z" fill="#263238"/>
<path d="M152.743 182.567C152.706 182.808 152.636 183.043 152.534 183.264C152.292 183.888 151.988 184.487 151.628 185.052C150.444 186.928 148.736 188.415 146.714 189.328C144.692 190.242 142.447 190.541 140.257 190.19C139.598 190.086 138.951 189.918 138.326 189.689C138.091 189.623 137.868 189.523 137.664 189.391C138.525 189.644 139.401 189.843 140.286 189.987C142.431 190.277 144.614 189.959 146.587 189.068C148.56 188.178 150.242 186.751 151.444 184.951C151.925 184.184 152.359 183.387 152.743 182.567Z" fill="#263238"/>
<g opacity="0.2">
<path d="M138.975 190.184C137.98 189.2 136.103 189.665 135.399 190.887C135.105 191.521 135.008 192.229 135.122 192.919C135.236 193.609 135.554 194.249 136.037 194.755C137.028 195.748 138.302 196.41 139.684 196.65C142.774 197.352 146.015 196.822 148.72 195.172C150.05 194.338 151.175 193.216 152.013 191.888C152.851 190.56 153.379 189.061 153.559 187.502C153.627 187.211 153.619 186.908 153.537 186.621C153.454 186.334 153.3 186.073 153.089 185.863C152.355 185.338 151.402 186.029 150.705 186.62C148.944 188.14 146.856 189.234 144.604 189.817C142.351 190.4 139.995 190.456 137.718 189.981" fill="black"/>
</g>
<g opacity="0.2">
<path d="M146.02 219.984C155.345 217.783 163.671 212.54 169.687 205.084C170.599 203.939 171.684 202.64 173.144 202.652C173.653 202.682 174.144 202.85 174.564 203.139C174.985 203.428 175.318 203.826 175.528 204.291C175.929 205.234 175.996 206.285 175.719 207.271C174.992 210.173 172.399 212.158 169.92 213.827C166.379 216.211 162.69 218.452 158.643 219.787C154.596 221.122 150.138 221.575 146.062 220.294" fill="black"/>
</g>
<path d="M132.735 92.9224C132.735 92.9224 132.813 92.9224 132.938 92.9939C133.13 93.0675 133.307 93.1744 133.462 93.3098C134.055 93.8064 134.431 94.5138 134.511 95.2825C134.63 96.3991 134.512 97.5282 134.166 98.5963L132.854 102.435C132.652 103.031 132.443 103.627 132.258 104.181V104.079C133.105 106.362 133.832 108.371 134.338 109.813L134.934 111.518C135.014 111.71 135.074 111.909 135.113 112.114C134.997 111.927 134.903 111.727 134.833 111.518L134.16 109.849C133.605 108.424 132.842 106.428 131.984 104.151V104.097V104.05C132.181 103.483 132.384 102.893 132.58 102.297L133.909 98.4771C134.258 97.4484 134.394 96.3594 134.309 95.2766C134.251 94.5495 133.929 93.8688 133.403 93.3634C133.259 93.2271 133.099 93.109 132.926 93.0118C132.859 92.9895 132.795 92.9595 132.735 92.9224Z" fill="#EB996E"/>
<path d="M141.771 122.49C141.729 122.49 141.437 121.894 140.877 121.024C140.143 119.857 139.277 118.779 138.296 117.811C137.31 116.851 136.218 116.005 135.042 115.29C134.136 114.748 133.534 114.468 133.558 114.42C133.711 114.446 133.859 114.494 133.999 114.563C134.394 114.718 134.778 114.899 135.149 115.105C137.624 116.449 139.673 118.46 141.061 120.911C141.272 121.277 141.461 121.655 141.627 122.043C141.741 122.323 141.794 122.478 141.771 122.49Z" fill="#EB996E"/>
<path d="M140.799 120.326C140.71 120.326 140.292 118.538 139.607 116.411C138.922 114.283 138.177 112.578 138.26 112.543C138.509 112.863 138.71 113.219 138.856 113.598C139.263 114.483 139.619 115.39 139.923 116.315C140.227 117.238 140.479 118.178 140.68 119.128C140.774 119.521 140.814 119.924 140.799 120.326Z" fill="#EB996E"/>
<path d="M177.197 127.955C177.197 127.955 173.984 127.955 173.567 132.431C173.406 134.541 173.126 136.641 172.727 138.719C172.727 138.719 168.555 144.447 168.555 147.385C168.555 150.323 169.514 156.426 169.514 156.426L183.115 152.957L182.185 149.381L190.78 133.838L195.81 117.627C195.81 117.627 193.992 116.506 192.734 117.627C191.477 118.747 189.105 123.074 189.105 123.074C189.105 123.074 186.584 119.724 184.933 119.862C184.702 119.874 184.478 119.946 184.284 120.072C184.089 120.197 183.931 120.371 183.824 120.577C183.614 120.99 183.55 121.463 183.643 121.918C183.736 122.373 183.981 122.782 184.337 123.08L185.773 124.338L185.35 128.653L177.948 135.518L177.197 127.955Z" fill="#FFBE9D"/>
<path d="M180.797 141.663C180.903 141.397 181.039 141.143 181.202 140.906C181.636 140.258 182.12 139.644 182.65 139.071C183.318 138.338 184.17 137.533 185.106 136.627C186.138 135.683 187.065 134.63 187.871 133.486C188.651 132.329 189.153 131.007 189.337 129.624C189.482 128.49 189.508 127.343 189.415 126.203C189.349 125.226 189.254 124.415 189.194 123.891C189.145 123.609 189.123 123.324 189.129 123.038C189.213 123.311 189.275 123.59 189.313 123.873C189.409 124.415 189.54 125.202 189.635 126.185C189.766 127.342 189.766 128.509 189.635 129.666C189.461 131.093 188.953 132.459 188.151 133.653C187.331 134.817 186.381 135.885 185.32 136.836C184.373 137.73 183.532 138.51 182.829 139.22C182.291 139.775 181.787 140.362 181.321 140.978C181.164 141.219 180.989 141.449 180.797 141.663Z" fill="#EB996E"/>
<path d="M185.833 128.337C185.663 128.54 185.473 128.726 185.267 128.891L183.645 130.321C182.275 131.513 180.385 133.188 178.329 135.089C176.273 136.991 174.449 138.701 173.12 139.953C172.494 140.549 171.964 141.043 171.547 141.431C171.365 141.622 171.165 141.795 170.951 141.949C171.103 141.733 171.276 141.534 171.469 141.353C171.821 140.978 172.333 140.453 172.977 139.804C174.258 138.504 176.07 136.746 178.126 134.869C180.183 132.991 182.102 131.352 183.49 130.19C184.2 129.594 184.772 129.147 185.177 128.837C185.376 128.647 185.596 128.479 185.833 128.337Z" fill="#EB996E"/>
<path d="M169.49 156.426C169.49 156.426 177.721 201.4 179.938 204.702C182.155 208.004 188.497 217.373 195.601 216.515C202.706 215.657 206.878 208.201 207.76 201.257C208.642 194.314 202.276 170.116 202.276 170.116C196.364 169.461 194.677 170.361 190.744 173.823L183.091 152.963L169.49 156.426Z" fill="#FFBE9D"/>
<path d="M182.424 149.137C182.205 149.517 181.948 149.872 181.655 150.198L179.736 152.713C178.246 154.686 176.869 156.164 176.797 156.098C177.015 155.716 177.272 155.358 177.566 155.032L179.485 152.522C180.975 150.544 182.376 149.066 182.424 149.137Z" fill="#EB996E"/>
<path d="M197.276 196.012C197.262 195.848 197.262 195.682 197.276 195.518C197.276 195.196 197.276 194.713 197.234 194.099C197.136 192.367 196.891 190.646 196.501 188.956C195.913 186.448 195.116 183.994 194.117 181.619C193.569 180.272 192.925 178.883 192.329 177.417C191.733 175.951 191.137 174.437 190.493 172.864C188.056 166.588 186.018 160.848 184.533 156.694L182.841 151.754L182.406 150.407C182.349 150.251 182.303 150.092 182.269 149.93C182.349 150.073 182.412 150.225 182.459 150.383L182.954 151.712C183.389 152.904 183.997 154.567 184.742 156.617C186.25 160.789 188.318 166.481 190.762 172.751C191.358 174.312 191.984 175.838 192.585 177.298C193.187 178.758 193.819 180.153 194.373 181.512C195.366 183.913 196.148 186.395 196.71 188.932C197.083 190.639 197.297 192.377 197.348 194.123C197.348 194.719 197.348 195.22 197.348 195.542C197.338 195.7 197.314 195.858 197.276 196.012Z" fill="#EB996E"/>
<path d="M132.604 128.396C132.604 128.396 132.604 128.444 132.568 128.533L132.437 128.927C132.306 129.29 132.127 129.785 131.907 130.411C131.418 131.728 130.715 133.581 129.892 135.87L123.145 153.822C122.484 155.568 121.84 157.296 121.071 158.894C120.303 160.491 119.492 161.993 118.687 163.417C117.883 164.842 117.168 166.189 116.53 167.476C115.937 168.672 115.419 169.904 114.98 171.165C114.346 172.99 114 174.902 113.955 176.833C113.934 177.137 113.934 177.441 113.955 177.745V178.413C113.955 178.574 113.955 178.711 113.955 178.824C113.962 178.869 113.962 178.915 113.955 178.961C113.946 178.916 113.946 178.869 113.955 178.824C113.955 178.711 113.955 178.579 113.913 178.413C113.872 178.246 113.913 178.001 113.86 177.745C113.838 177.442 113.838 177.137 113.86 176.833C113.857 174.882 114.174 172.943 114.796 171.094C115.224 169.821 115.734 168.577 116.321 167.369C116.953 166.063 117.68 164.699 118.461 163.28C119.242 161.862 120.04 160.354 120.797 158.762C121.554 157.171 122.192 155.467 122.853 153.714C125.518 146.723 127.931 140.4 129.69 135.793C130.566 133.522 131.287 131.674 131.793 130.369C132.038 129.773 132.234 129.26 132.389 128.903L132.55 128.521C132.561 128.477 132.58 128.435 132.604 128.396Z" fill="#EB996E"/>
<path d="M204.356 11.92L111.071 11.8664C108.401 11.8648 105.758 12.3892 103.292 13.4095C100.825 14.4299 98.5841 15.9262 96.6961 17.813C94.8082 19.6999 93.3105 21.9402 92.2887 24.406C91.2669 26.8719 90.741 29.5149 90.741 32.184L90.6933 266.048C90.6925 268.717 91.2173 271.359 92.2376 273.824C93.258 276.289 94.7539 278.53 96.64 280.417C98.5261 282.304 100.765 283.801 103.23 284.823C105.695 285.845 108.337 286.371 111.005 286.372L204.291 286.432C206.96 286.432 209.603 285.908 212.069 284.887C214.535 283.866 216.776 282.37 218.664 280.483C220.551 278.597 222.049 276.357 223.071 273.891C224.093 271.426 224.62 268.783 224.62 266.114L224.692 32.2317C224.69 29.5628 224.163 26.9203 223.14 24.4551C222.118 21.9899 220.619 19.7503 218.731 17.8642C216.843 15.9781 214.601 14.4824 212.135 13.4625C209.669 12.4426 207.025 11.9184 204.356 11.92ZM218.44 262.699C218.439 264.568 218.07 266.419 217.354 268.145C216.638 269.871 215.589 271.44 214.267 272.761C212.945 274.082 211.376 275.13 209.649 275.844C207.921 276.559 206.071 276.926 204.202 276.925L111.1 276.872C107.327 276.87 103.708 275.37 101.04 272.701C98.3725 270.032 96.8738 266.413 96.8738 262.639L96.9215 34.3713C96.9215 32.5021 97.2899 30.6511 98.0056 28.9243C98.7213 27.1975 99.7703 25.6287 101.093 24.3074C102.415 22.9862 103.985 21.9386 105.712 21.2243C107.439 20.5101 109.291 20.1432 111.16 20.1448H133.349C133.939 20.158 134.521 20.2873 135.061 20.5254C135.601 20.7634 136.089 21.1056 136.497 21.5323C136.905 21.9591 137.225 22.462 137.439 23.0124C137.652 23.5627 137.755 24.1498 137.742 24.74V28.012C137.728 28.6022 137.831 29.1892 138.045 29.7396C138.258 30.29 138.578 30.7929 138.986 31.2196C139.394 31.6464 139.882 31.9885 140.422 32.2266C140.962 32.4647 141.544 32.594 142.134 32.6072H177.387C177.978 32.5948 178.56 32.466 179.101 32.2282C179.641 31.9904 180.13 31.6482 180.538 31.2213C180.946 30.7945 181.265 30.2912 181.479 29.7405C181.692 29.1898 181.794 28.6024 181.78 28.012V24.734C181.754 23.5431 182.203 22.3908 183.026 21.5302C183.85 20.6697 184.982 20.1714 186.173 20.1448H204.261C208.034 20.148 211.651 21.6488 214.317 24.3176C216.984 26.9864 218.482 30.6047 218.482 34.3773L218.44 262.699Z" fill="#101010"/>
<path d="M215.46 41.2015H103.168C102.759 41.2015 102.429 41.5324 102.429 41.9405V42.1193C102.429 42.5275 102.759 42.8584 103.168 42.8584H215.46C215.868 42.8584 216.199 42.5275 216.199 42.1193V41.9405C216.199 41.5324 215.868 41.2015 215.46 41.2015Z" fill="#E0E0E0"/>
<path d="M163.995 41.2015H103.168C102.759 41.2015 102.429 41.5324 102.429 41.9405V42.1193C102.429 42.5275 102.759 42.8584 103.168 42.8584H163.995C164.404 42.8584 164.734 42.5275 164.734 42.1193V41.9405C164.734 41.5324 164.404 41.2015 163.995 41.2015Z" fill="#F3A13B"/>
<path d="M284.185 286.45C284.185 286.533 224.764 286.604 151.479 286.604C78.1952 286.604 18.7561 286.533 18.7561 286.45C18.7561 286.366 78.1654 286.295 151.479 286.295C224.793 286.295 284.185 286.366 284.185 286.45Z" fill="#263238"/>
<path d="M76.9913 238.907C77.6409 236.654 79.0356 234.478 81.1633 233.543C83.4042 232.577 85.9969 233.125 88.2855 233.96C90.5741 234.794 92.827 235.903 95.2646 236.058C97.7023 236.213 100.444 235.05 101.171 232.726C101.856 230.539 100.539 228.202 98.8883 226.617C97.1443 224.938 95.0057 223.725 92.6697 223.09C90.3336 222.455 87.8752 222.418 85.5211 222.982C83.167 223.547 80.9928 224.695 79.1991 226.321C77.4053 227.946 76.0496 229.998 75.2569 232.285" fill="#F3A13B"/>
<g opacity="0.5">
<path d="M76.9913 238.907C77.6409 236.654 79.0356 234.478 81.1633 233.543C83.4042 232.577 85.9969 233.125 88.2855 233.96C90.5741 234.794 92.827 235.903 95.2646 236.058C97.7023 236.213 100.444 235.05 101.171 232.726C101.856 230.539 100.539 228.202 98.8883 226.617C97.1443 224.938 95.0057 223.725 92.6697 223.09C90.3336 222.455 87.8752 222.418 85.5211 222.982C83.167 223.547 80.9928 224.695 79.1991 226.321C77.4053 227.946 76.0496 229.998 75.2569 232.285" fill="black"/>
</g>
<path d="M57.7107 248.681C54.1347 245.29 54.3194 239.383 56.1015 234.794C57.8835 230.205 61.7694 226.677 66.1083 224.352C70.3473 222.126 75.0355 220.889 79.821 220.734C84.6065 220.579 89.3649 221.511 93.7389 223.458C91.5976 223.55 89.5115 224.165 87.663 225.25C85.8146 226.335 84.2603 227.856 83.1361 229.681C81.1812 232.935 80.7521 236.874 79.1309 240.307C77.3079 244.177 74.0718 247.201 70.0879 248.759C66.104 250.316 61.6748 250.288 57.7107 248.681Z" fill="#F3A13B"/>
<path d="M56.024 228.304C52.0725 223.637 51.548 216.145 52.1262 210.06C52.7043 203.975 54.1228 197.842 53.1632 191.805C52.5672 188.229 51.2024 184.808 50.7375 181.22C50.2726 177.632 50.9282 173.561 53.7175 171.243C56.912 168.579 61.9542 169.204 65.2799 171.708C68.6056 174.211 70.5366 178.144 71.9491 182.06C75.0424 190.672 76.1807 200.214 73.6358 209.005C71.0909 217.796 65.1249 225.652 56.3518 228.304" fill="#F3A13B"/>
<path d="M54.0989 266.585C54.0834 266.406 54.0834 266.227 54.0989 266.048C54.0989 265.697 54.0989 265.178 54.1287 264.511C54.1824 263.17 54.3075 261.233 54.6115 258.855C54.9608 256.071 55.4683 253.309 56.1313 250.582C56.9487 247.231 58.2178 244.007 59.904 240.999C61.5963 237.993 63.6718 235.22 66.0785 232.75C68.0358 230.736 70.2038 228.937 72.5451 227.386C73.5345 226.706 74.4881 226.194 75.3106 225.705C76.133 225.216 76.89 224.901 77.4919 224.609L78.9164 224.013C79.0776 223.935 79.2451 223.871 79.417 223.822C79.2654 223.919 79.1059 224.002 78.9402 224.072L77.5277 224.692C76.9317 225.002 76.2105 225.377 75.3821 225.836C74.5536 226.295 73.6298 226.855 72.6584 227.547C67.4981 231.06 63.2156 235.714 60.1424 241.148C56.5068 247.507 55.5114 254.188 54.7784 258.873C54.4506 261.257 54.2896 263.17 54.1824 264.505C54.1406 265.148 54.1108 265.661 54.087 266.042C54.1091 266.222 54.113 266.404 54.0989 266.585Z" fill="#263238"/>
<path d="M20.0018 209.893C12.6888 214.31 12.7127 218.327 13.9345 222.117C15.1563 225.908 19.6442 228.542 23.3632 227.124C25.4671 226.319 26.9928 224.489 28.2921 222.654C29.5914 220.818 30.8192 218.851 32.6429 217.528C34.4667 216.205 37.1129 215.704 38.9426 217.01" fill="#F3A13B"/>
<g opacity="0.5">
<path d="M20.0018 209.893C12.6888 214.31 12.7127 218.327 13.9345 222.117C15.1563 225.908 19.6442 228.542 23.3632 227.124C25.4671 226.319 26.9928 224.489 28.2921 222.654C29.5914 220.818 30.8192 218.851 32.6429 217.528C34.4667 216.205 37.1129 215.704 38.9426 217.01" fill="black"/>
</g>
<path d="M14.5245 214.733C16.4377 212.093 21.164 211.324 24.144 212.647C27.124 213.97 29.3172 216.58 31.296 219.203C33.2747 221.825 35.1521 224.567 37.852 226.391C40.5518 228.214 44.3484 228.864 47.0482 227.034C47.9088 226.391 48.6294 225.58 49.1664 224.65C49.7033 223.719 50.0452 222.689 50.1713 221.623C50.4097 219.488 50.2644 217.329 49.7421 215.245C49.0925 212.182 48.0436 208.975 45.5702 207.027C42.8345 204.857 39.0142 204.75 35.5454 204.869C31.5403 205 27.4756 205.298 23.7148 206.687C19.9541 208.076 16.1158 211.073 14.5186 214.751" fill="#F3A13B"/>
<path d="M48.0197 260.732C48.012 260.679 48.012 260.625 48.0197 260.571C48.0197 260.446 48.0197 260.291 48.0197 260.1C48.0197 259.659 47.978 259.051 47.9542 258.283C47.9065 256.679 47.8409 254.403 47.7635 251.607C47.686 248.812 47.5608 245.433 47.3582 241.714C47.1555 237.995 46.8694 233.9 46.3092 229.645C46.0751 227.574 45.6765 225.525 45.1172 223.518C44.538 221.664 43.7878 219.869 42.8763 218.154C42.0629 216.596 41.1178 215.11 40.0512 213.714C39.1116 212.505 38.0794 211.371 36.9639 210.322C35.3284 208.82 33.4834 207.563 31.4867 206.591C31.1291 206.431 30.8192 206.27 30.5391 206.156L29.8239 205.876L29.3888 205.703C29.3229 205.686 29.2604 205.658 29.204 205.62C29.2572 205.624 29.3094 205.636 29.359 205.656L29.8119 205.805L30.5391 206.055C30.8251 206.156 31.1351 206.311 31.5046 206.466C33.5423 207.398 35.424 208.638 37.0831 210.144C38.2199 211.189 39.2721 212.323 40.23 213.535C41.3158 214.938 42.2789 216.431 43.1087 217.999C44.0352 219.728 44.7994 221.54 45.3914 223.411C45.9667 225.434 46.3773 227.501 46.6191 229.591C47.2151 233.864 47.4535 237.935 47.6443 241.684C47.835 245.433 47.9244 248.77 47.984 251.589C48.0436 254.409 48.0615 256.691 48.0674 258.271C48.0674 259.039 48.0674 259.641 48.0674 260.059C48.0674 260.255 48.0674 260.41 48.0674 260.535C48.0658 260.604 48.0495 260.671 48.0197 260.732Z" fill="#263238"/>
<path d="M50.66 264.028C50.3106 263.004 50.0416 261.953 49.8554 260.887C49.348 257.975 49.2358 255.008 49.5216 252.066C49.9662 247.707 50.9019 243.413 52.3109 239.264C53.8069 234.556 55.8452 229.526 57.5855 224.114C58.444 221.488 59.1465 218.813 59.6894 216.104C60.1693 213.575 60.5155 211.022 60.7264 208.457C61.0596 204.107 61.1372 199.74 60.9589 195.381C60.8337 191.656 60.6311 188.646 60.5119 186.56C60.4523 185.535 60.4046 184.74 60.3688 184.176C60.3688 183.92 60.3688 183.711 60.3688 183.55C60.361 183.481 60.361 183.411 60.3688 183.342C60.3881 183.41 60.4001 183.48 60.4046 183.55C60.4046 183.705 60.4403 183.914 60.4642 184.146C60.5119 184.742 60.5774 185.517 60.6668 186.53C60.8278 188.61 61.0602 191.62 61.2211 195.351C61.4305 199.721 61.3748 204.1 61.0542 208.463C60.8563 211.041 60.5141 213.606 60.0291 216.145C59.4927 218.869 58.7921 221.558 57.9312 224.197C56.1849 229.621 54.1347 234.651 52.6268 239.336C51.2003 243.474 50.2349 247.758 49.7481 252.108C49.4429 255.034 49.5191 257.987 49.9746 260.893C50.1534 261.912 50.3203 262.681 50.4633 263.235C50.5229 263.492 50.5765 263.688 50.6123 263.831C50.6481 263.974 50.66 264.028 50.66 264.028Z" fill="#263238"/>
<path d="M68.7844 267.342H34.4428L33.6561 260.732H68.7844V267.342Z" fill="#101010"/>
<path d="M38.1261 266.591L42.4233 286.414H61.084L65.1011 266.591H38.1261Z" fill="#101010"/>
<path d="M68.7844 267.342C68.7844 267.431 61.2331 267.485 51.9235 267.455C42.614 267.425 35.0567 267.336 35.0567 267.246C35.0567 267.157 42.6081 267.103 51.9235 267.127C61.239 267.151 68.7844 267.252 68.7844 267.342Z" fill="#455A64"/>
<path d="M62.8899 277.14C61.9574 276.437 60.9402 275.855 59.8622 275.406C58.6888 274.947 57.4443 274.697 56.1849 274.667C54.6415 274.67 53.1113 274.95 51.6673 275.495C50.0998 276.025 48.6396 276.645 47.2151 276.979C45.9517 277.252 44.6489 277.293 43.3709 277.098C42.5099 276.973 41.6747 276.709 40.8975 276.318C40.6903 276.204 40.4911 276.077 40.3015 275.936C40.1704 275.841 40.1048 275.787 40.1168 275.775C40.1287 275.763 40.4088 275.948 40.9512 276.198C41.7308 276.54 42.5559 276.767 43.4007 276.872C44.6515 277.03 45.9204 276.967 47.1496 276.687C48.5204 276.347 49.9865 275.722 51.56 275.185C53.042 274.629 54.6141 274.352 56.1968 274.369C57.4887 274.407 58.762 274.686 59.9516 275.191C60.7528 275.526 61.5063 275.965 62.1926 276.496C62.3771 276.64 62.5542 276.793 62.723 276.955C62.8422 277.057 62.8959 277.14 62.8899 277.14Z" fill="#263238"/>
<path d="M62.6277 278.451C61.7281 277.773 60.7544 277.199 59.7252 276.741C58.5981 276.282 57.3958 276.035 56.179 276.014C54.6856 276.014 53.2043 276.28 51.8043 276.8C50.2905 277.301 48.872 277.891 47.5131 278.255C46.3138 278.601 45.0644 278.742 43.8179 278.672C42.9758 278.62 42.1528 278.399 41.3982 278.022C41.1911 277.915 40.992 277.794 40.8022 277.659C40.677 277.563 40.6114 277.51 40.6234 277.498C40.6353 277.486 40.9035 277.665 41.4339 277.909C42.1887 278.232 42.9972 278.412 43.8179 278.439C45.0278 278.475 46.2355 278.314 47.3939 277.962C48.723 277.593 50.1296 276.997 51.6613 276.484C53.0966 275.959 54.6148 275.697 56.1432 275.71C58.247 275.769 60.2744 276.511 61.9184 277.825C62.1509 278.01 62.3178 278.165 62.431 278.272C62.5048 278.322 62.571 278.383 62.6277 278.451Z" fill="white"/>
<path d="M63.2296 275.811C62.2641 275.09 61.2229 274.477 60.1245 273.981C58.9269 273.469 57.6514 273.163 56.3518 273.075C54.7596 273.044 53.1765 273.323 51.6911 273.898C50.1855 274.488 48.6473 274.992 47.084 275.406C45.7704 275.63 44.4283 275.63 43.1146 275.406C42.2282 275.266 41.368 274.993 40.5638 274.595C40.3556 274.483 40.1564 274.356 39.9678 274.214C39.8307 274.112 39.7651 274.059 39.7711 274.047C39.7771 274.035 40.0751 274.226 40.6413 274.482C41.4504 274.826 42.3025 275.059 43.1743 275.173C44.4628 275.361 45.7735 275.337 47.0542 275.102C48.5898 274.668 50.1017 274.155 51.5838 273.564C53.1028 272.977 54.7242 272.701 56.3518 272.753C58.5859 272.936 60.7187 273.765 62.4906 275.137C62.6825 275.286 62.8656 275.445 63.0389 275.614C63.1121 275.67 63.1764 275.736 63.2296 275.811Z" fill="white"/>
<path d="M68.54 267.449C68.54 267.497 60.941 267.533 51.5778 267.533C42.2147 267.533 34.568 267.497 34.568 267.449C34.568 267.401 42.161 267.372 51.5361 267.372C60.9112 267.372 68.54 267.407 68.54 267.449Z" fill="#263238"/>
<path d="M75.4774 107.185C75.2973 107.687 74.972 108.126 74.5428 108.444C74.1135 108.762 73.5996 108.945 73.0661 108.971C72.5325 108.997 72.0033 108.863 71.5454 108.588C71.0875 108.313 70.7215 107.909 70.4937 107.425C70.2659 106.942 70.1865 106.402 70.2656 105.874C70.3448 105.346 70.5788 104.853 70.9382 104.458C71.2975 104.063 71.766 103.783 72.2844 103.654C72.8028 103.525 73.3478 103.553 73.8504 103.734C74.5234 103.976 75.0727 104.476 75.3778 105.123C75.6829 105.77 75.7187 106.511 75.4774 107.185Z" fill="#263238"/>
<path d="M75.4178 106.207C75.2569 106.261 74.357 103.555 73.8742 100.11C73.3914 96.6652 73.0279 93.8998 73.1769 93.87C73.3259 93.8402 73.9815 96.5937 74.4583 100.021C74.9351 103.448 75.5728 106.16 75.4178 106.207Z" fill="#263238"/>
<path d="M78.8687 92.7495C78.9938 92.8449 77.9747 93.9773 76.2165 94.3766C74.4583 94.7759 73.0458 94.2276 73.1173 94.0846C73.1888 93.9415 74.5 94.1799 76.0973 93.7985C77.6946 93.417 78.7614 92.6124 78.8687 92.7495Z" fill="#263238"/>
<path d="M79.113 95.5388C79.2501 95.6223 78.2846 96.7964 76.5383 97.0646C74.792 97.3328 73.5166 96.5401 73.6179 96.4209C73.7192 96.3017 74.9172 96.7368 76.443 96.4745C77.9687 96.2123 78.9998 95.4077 79.113 95.5388Z" fill="#263238"/>
<path d="M50.5408 69.732C49.7573 70.28 48.8289 70.5834 47.873 70.6037C46.9171 70.624 45.9767 70.3604 45.1706 69.8461C44.3646 69.3319 43.7292 68.5901 43.3447 67.7147C42.9603 66.8393 42.8441 65.8695 43.0109 64.9281C43.1776 63.9866 43.6199 63.1158 44.2817 62.4257C44.9434 61.7356 45.795 61.2573 46.7286 61.0512C47.6623 60.8452 48.6361 60.9207 49.5268 61.2681C50.4176 61.6155 51.1853 62.2194 51.7328 63.0032C52.0969 63.523 52.355 64.1096 52.4921 64.7294C52.6293 65.3491 52.6429 65.9898 52.5322 66.6148C52.4215 67.2398 52.1886 67.8368 51.8469 68.3717C51.5052 68.9066 51.0614 69.3688 50.5408 69.732Z" fill="#263238"/>
<path d="M51.4646 68.2182C51.0176 68.0751 52.4063 63.1283 55.2909 57.5855C58.1756 52.0427 60.6549 47.7456 61.0423 47.9065C61.4297 48.0674 59.6596 52.8592 56.7869 58.3424C53.9142 63.8256 51.8997 68.3612 51.4646 68.2182Z" fill="#263238"/>
<path d="M73.308 57.6332C73.308 58.0206 69.2552 57.9729 65.1666 55.2849C63.3907 54.1802 61.9567 52.6037 61.0244 50.7315C60.339 49.2475 60.5059 48.1687 60.7086 48.1687C60.9112 48.1687 61.2152 49.0091 62.0555 50.1474C63.1671 51.6273 64.5359 52.8951 66.0964 53.8903C69.7797 56.316 73.4451 57.1147 73.308 57.6332Z" fill="#263238"/>
<path d="M62.8303 79.4349C62.046 79.9841 61.1165 80.2883 60.1593 80.309C59.202 80.3298 58.2602 80.0662 57.4528 79.5515C56.6455 79.0368 56.0089 78.2942 55.6237 77.4177C55.2386 76.5411 55.122 75.57 55.2889 74.6272C55.4557 73.6844 55.8985 72.8123 56.5612 72.1212C57.2238 71.4301 58.0766 70.9511 59.0115 70.7448C59.9465 70.5385 60.9216 70.6142 61.8136 70.9622C62.7055 71.3103 63.4742 71.915 64.0223 72.7001C64.7565 73.7515 65.0433 75.0513 64.8198 76.3141C64.5963 77.5769 63.8807 78.6993 62.8303 79.4349Z" fill="#263238"/>
<path d="M63.772 77.9389C63.325 77.7959 64.7137 72.8491 67.5983 67.3063C70.483 61.7635 72.9623 57.4663 73.3497 57.6332C73.7371 57.8001 71.967 62.5859 69.0943 68.0691C66.2216 73.5523 64.1892 78.076 63.772 77.9389Z" fill="#263238"/>
<path d="M71.9491 60.6311C71.9849 61.0662 68.1228 61.2688 64.2011 58.8908C60.2794 56.5127 58.6226 53.044 59.004 52.8592C59.4152 52.591 61.4953 55.3565 65.0474 57.4484C68.5996 59.5404 71.9968 60.1364 71.9491 60.6311Z" fill="#263238"/>
<path d="M123.086 88.0888C122.86 88.2288 122.598 88.2987 122.333 88.2897C122.068 88.2807 121.811 88.1931 121.596 88.0381C121.38 87.8831 121.215 87.6676 121.122 87.4189C121.03 87.1702 121.013 86.8995 121.074 86.6412C121.135 86.3828 121.271 86.1484 121.465 85.9676C121.66 85.7868 121.903 85.6677 122.165 85.6255C122.428 85.5833 122.696 85.6199 122.938 85.7306C123.179 85.8412 123.382 86.021 123.521 86.2472C123.614 86.3965 123.676 86.5628 123.704 86.7363C123.733 86.9098 123.727 87.0873 123.686 87.2584C123.646 87.4295 123.572 87.591 123.469 87.7335C123.366 87.876 123.236 87.9967 123.086 88.0888Z" fill="#E0E0E0"/>
<path d="M123.372 87.6895C123.247 87.6478 123.706 86.3008 124.564 84.8108C125.422 83.3208 126.185 82.1646 126.292 82.2122C126.4 82.2599 125.839 83.5652 124.963 85.0373C124.087 86.5094 123.485 87.7372 123.372 87.6895Z" fill="#E0E0E0"/>
<path d="M129.564 85.079C129.564 85.1863 128.438 85.1148 127.341 84.3161C126.867 83.9822 126.494 83.5245 126.263 82.993C126.096 82.5758 126.155 82.2778 126.215 82.2837C126.275 82.2897 126.34 82.5221 126.561 82.8499C126.846 83.274 127.205 83.6435 127.621 83.9406C128.599 84.6618 129.6 84.936 129.564 85.079Z" fill="#E0E0E0"/>
<path d="M126.352 90.9556C126.126 91.0956 125.864 91.1655 125.599 91.1565C125.334 91.1474 125.077 91.0599 124.862 90.9048C124.646 90.7498 124.481 90.5343 124.389 90.2856C124.296 90.037 124.279 89.7663 124.34 89.5079C124.401 89.2496 124.537 89.0151 124.731 88.8343C124.926 88.6535 125.169 88.5345 125.432 88.4923C125.694 88.4501 125.962 88.4866 126.204 88.5973C126.445 88.708 126.648 88.8878 126.787 89.1139C126.88 89.2633 126.942 89.4295 126.971 89.6031C126.999 89.7766 126.993 89.954 126.952 90.1251C126.912 90.2963 126.838 90.4577 126.735 90.6002C126.632 90.7427 126.502 90.8635 126.352 90.9556Z" fill="#E0E0E0"/>
<path d="M126.62 90.5562C126.501 90.5086 126.954 89.1616 127.812 87.6716C128.67 86.1816 129.433 85.0254 129.547 85.079C129.66 85.1326 129.088 86.426 128.217 87.904C127.347 89.3821 126.739 90.592 126.62 90.5562Z" fill="#E0E0E0"/>
<path d="M129.135 85.8896C129.135 86.0088 128.068 86.0088 127.02 85.2936C125.971 84.5784 125.559 83.595 125.673 83.5532C125.786 83.5115 126.328 84.2804 127.276 84.9121C128.223 85.5439 129.153 85.7525 129.135 85.8896Z" fill="#E0E0E0"/>
<path d="M110.695 116.089C110.586 116.613 110.325 117.092 109.943 117.468C109.562 117.843 109.078 118.096 108.552 118.197C108.027 118.297 107.484 118.239 106.991 118.03C106.498 117.822 106.079 117.472 105.785 117.025C105.491 116.578 105.336 116.054 105.34 115.519C105.344 114.984 105.506 114.462 105.807 114.02C106.107 113.577 106.532 113.233 107.027 113.032C107.523 112.83 108.067 112.781 108.591 112.888C108.94 112.96 109.271 113.1 109.565 113.3C109.859 113.499 110.111 113.755 110.307 114.052C110.502 114.35 110.637 114.682 110.704 115.032C110.77 115.381 110.767 115.741 110.695 116.089Z" fill="#263238"/>
<path d="M110.492 115.123C110.254 115.237 108.907 112.698 107.936 109.342C106.964 105.987 106.303 103.287 106.529 103.197C106.756 103.108 107.882 105.736 108.836 109.068C109.789 112.4 110.725 115.028 110.492 115.123Z" fill="#263238"/>
<path d="M115.26 102.393C115.409 102.554 113.753 104.097 111.088 104.586C109.942 104.823 108.751 104.738 107.65 104.342C106.797 104.002 106.458 103.501 106.535 103.424C106.612 103.346 107.065 103.573 107.846 103.704C108.868 103.874 109.911 103.86 110.928 103.662C113.317 103.233 115.105 102.137 115.26 102.393Z" fill="#263238"/>
<path d="M119.426 115.278C119.319 115.803 119.058 116.283 118.677 116.659C118.296 117.035 117.812 117.29 117.287 117.391C116.761 117.492 116.217 117.435 115.724 117.227C115.231 117.019 114.811 116.669 114.516 116.222C114.222 115.775 114.067 115.251 114.07 114.715C114.074 114.18 114.236 113.658 114.537 113.215C114.837 112.772 115.262 112.428 115.758 112.227C116.254 112.025 116.798 111.976 117.323 112.084C118.025 112.229 118.641 112.647 119.036 113.246C119.43 113.845 119.571 114.576 119.426 115.278Z" fill="#263238"/>
<path d="M119.2 114.319C118.962 114.432 117.615 111.893 116.643 108.532C115.672 105.17 115.028 102.512 115.26 102.393C115.493 102.274 116.613 104.932 117.567 108.263C118.521 111.595 119.456 114.206 119.2 114.319Z" fill="#263238"/>
<path d="M115.862 104.139C116.041 104.306 114.557 105.879 112.048 106.428C109.539 106.976 107.53 106.213 107.626 105.987C107.721 105.76 109.592 106.034 111.845 105.51C114.098 104.985 115.69 103.925 115.862 104.139Z" fill="#263238"/>
<path d="M249.5 155.634C250.167 156.019 250.167 156.981 249.5 157.366L238.25 163.861C237.583 164.246 236.75 163.765 236.75 162.995L236.75 150.005C236.75 149.235 237.583 148.754 238.25 149.139L249.5 155.634Z" fill="white"/>
<path d="M266.39 78.0811H234.775V101H266.39V78.0811Z" fill="#F3A13B"/>
<path d="M245.948 75.7079H234.775V78.0811H246.587L245.948 75.7079Z" fill="#F3A13B"/>
<g opacity="0.2">
<path d="M266.39 78.0811H234.775V101H266.39V78.0811Z" fill="black"/>
<path d="M245.948 75.7079H234.775V78.0811H246.587L245.948 75.7079Z" fill="black"/>
</g>
<path d="M245.01 76.4257H235.874V77.8064H245.01V76.4257Z" fill="white"/>
<path d="M262.785 86.1111L267.607 67.822L249.318 63L244.496 81.2892L262.785 86.1111Z" fill="#101010"/>
<path d="M253.071 79.0016C252.982 79.3153 252.801 79.5954 252.552 79.8064C252.304 80.0175 251.998 80.15 251.674 80.1872C251.35 80.2244 251.022 80.1646 250.732 80.0154C250.442 79.8663 250.202 79.6344 250.044 79.3491C249.886 79.0639 249.816 78.7381 249.843 78.413C249.87 78.088 249.993 77.7782 250.196 77.5229C250.399 77.2677 250.673 77.0784 250.984 76.9791C251.294 76.8797 251.628 76.8748 251.941 76.9649C252.149 77.0242 252.343 77.124 252.513 77.2585C252.682 77.393 252.824 77.5597 252.929 77.7489C253.033 77.938 253.1 78.1461 253.125 78.361C253.149 78.576 253.131 78.7937 253.071 79.0016Z" fill="white"/>
<path d="M255.465 70.2765L254.258 69.9371L252.023 77.8833L253.23 78.2227L255.465 70.2765Z" fill="white"/>
<path d="M258.855 78.1602C258.765 78.4731 258.585 78.7525 258.337 78.963C258.089 79.1736 257.784 79.3059 257.461 79.3431C257.138 79.3803 256.811 79.3208 256.521 79.1722C256.232 79.0235 255.993 78.7923 255.835 78.5079C255.677 78.2235 255.607 77.8985 255.633 77.5742C255.66 77.2499 255.782 76.9407 255.984 76.6859C256.187 76.431 256.46 76.2419 256.77 76.1424C257.08 76.0429 257.412 76.0375 257.725 76.1269C258.144 76.2475 258.498 76.5292 258.71 76.9102C258.921 77.2913 258.974 77.7407 258.855 78.1602Z" fill="white"/>
<path d="M261.142 70.1755L259.933 69.8303L257.66 77.7894L258.869 78.1346L261.142 70.1755Z" fill="white"/>
<path d="M261.132 70.2023L253.837 71.7409L254.143 70.6762L261.434 69.1375L261.132 70.2023Z" fill="white"/>
<path d="M260.558 72.2081L253.267 73.7467L253.569 72.682L260.861 71.1433L260.558 72.2081Z" fill="white"/>
<path d="M266.308 101H234.693L232.254 79.9839H263.869L266.308 101Z" fill="#F3A13B"/>
<path d="M243.173 77.8064H232L232.254 79.9839H244.066L243.173 77.8064Z" fill="#F3A13B"/>
</svg>
