<svg width="298" height="298" viewBox="0 0 298 298" fill="none" xmlns="http://www.w3.org/2000/svg">
<g clip-path="url(#clip0_0_363)">
<rect width="298" height="298" rx="25" fill="#7653DC"/>
<path d="M268.339 179.575L260.519 179.742L256.55 179.807C255.221 179.837 253.886 179.807 252.557 179.843H252.294V179.575L252.265 172.906V172.608H252.563L260.454 172.643C263.082 172.643 265.716 172.715 268.345 172.745H268.512V172.906C268.512 174.038 268.464 175.164 268.434 176.273L268.339 179.575ZM268.339 179.575L268.255 176.207C268.226 175.093 268.19 173.996 268.178 172.906L268.339 173.066C265.71 173.096 263.076 173.162 260.448 173.168L252.557 173.204L252.855 172.906L252.825 179.575L252.557 179.307C253.856 179.307 255.155 179.307 256.46 179.342L260.382 179.408L268.339 179.575Z" fill="#8A6DE1"/>
<path d="M259.512 187.984L251.687 188.151L247.717 188.217C246.394 188.247 245.059 188.217 243.73 188.247H243.468V187.978L243.438 181.309V181.011H243.736L251.627 181.047C254.255 181.047 256.89 181.118 259.518 181.148H259.679V181.309C259.679 182.442 259.631 183.568 259.601 184.677L259.512 187.984ZM259.512 187.984L259.429 184.617C259.429 183.502 259.363 182.406 259.351 181.315L259.512 181.476C256.884 181.506 254.249 181.571 251.621 181.577L243.73 181.613L244.028 181.315L244.016 187.984L243.754 187.716C245.053 187.716 246.352 187.716 247.652 187.752L251.573 187.817L259.512 187.984Z" fill="#8A6DE1"/>
<path d="M277.142 187.984L269.322 188.151L265.353 188.217C264.024 188.247 262.689 188.217 261.36 188.247H261.097V187.978L261.062 181.309V181.011H261.36L269.251 181.047C271.885 181.047 274.513 181.118 277.142 181.148H277.309V181.309C277.309 182.442 277.255 183.568 277.225 184.677L277.142 187.984ZM277.142 187.984L277.058 184.617C277.058 183.502 276.993 182.406 276.981 181.315L277.142 181.476C274.513 181.506 271.885 181.571 269.251 181.577L261.36 181.613L261.658 181.315L261.628 187.984L261.36 187.716C262.659 187.716 263.958 187.716 265.263 187.752L269.185 187.817L277.142 187.984Z" fill="#8A6DE1"/>
<path d="M52.7001 179.575L44.8746 179.742L40.9052 179.807C39.5821 179.837 38.2471 179.807 36.918 179.843H36.6498V179.575V172.906V172.608H36.9537L44.8448 172.643C47.4731 172.643 50.1015 172.715 52.7358 172.745H52.8967V172.906C52.8967 174.038 52.8431 175.164 52.8193 176.273L52.7001 179.575ZM52.7001 179.575L52.6166 176.207C52.6166 175.093 52.5451 173.996 52.5332 172.906L52.7001 173.066C50.0657 173.096 47.4374 173.162 44.809 173.168L36.918 173.204L37.216 172.906L37.1802 179.575L36.918 179.307C38.2173 179.307 39.5106 179.307 40.8158 179.342L44.7375 179.408L52.7001 179.575Z" fill="#8A6DE1"/>
<path d="M61.491 187.984L53.6656 188.151L49.72 188.217C48.3969 188.247 47.0619 188.217 45.7328 188.247H45.4646V187.978V181.309V181.011H45.7626L53.6536 181.047C56.282 181.047 58.9163 181.118 61.5447 181.148H61.64V181.309C61.64 182.442 61.5924 183.568 61.5626 184.677L61.491 187.984ZM61.491 187.984L61.4076 184.617C61.4076 183.502 61.3361 182.406 61.3301 181.315L61.491 181.476C58.8627 181.506 56.2284 181.571 53.6 181.577L45.709 181.613L46.007 181.315L45.9712 187.984L45.709 187.716C47.0082 187.716 48.3075 187.716 49.6068 187.752L53.5285 187.817L61.491 187.984Z" fill="#8A6DE1"/>
<path d="M103.783 122.007L95.9637 122.174L91.9943 122.24C90.6653 122.269 89.3302 122.24 88.0011 122.269H87.7389V122.001L87.7091 115.332V115.028H88.0071L95.8981 115.064C98.5265 115.064 101.161 115.129 103.789 115.165H103.956V115.326C103.956 116.458 103.908 117.585 103.879 118.693L103.783 122.007ZM103.783 122.007L103.7 118.634C103.7 117.525 103.634 116.429 103.622 115.338L103.783 115.499C101.155 115.529 98.5205 115.594 95.8922 115.6L88.0011 115.636L88.2991 115.338V122.007L88.0309 121.739C89.3302 121.739 90.6295 121.739 91.9347 121.775L95.8564 121.84L103.783 122.007Z" fill="#8A6DE1"/>
<path d="M94.9803 130.417L87.1548 130.584L83.1854 130.649C81.8623 130.649 80.5273 130.649 79.1982 130.649H78.924V130.381V123.747V123.449H79.222L87.1131 123.485C89.7414 123.485 92.3757 123.551 95.0041 123.587H95.171V123.747C95.171 124.88 95.1233 126.006 95.0935 127.115L94.9803 130.417ZM94.9803 130.417L94.8968 127.043C94.867 125.935 94.8313 124.838 94.8193 123.747L94.9803 123.908C92.3519 123.908 89.7176 124.004 87.0892 124.01L79.1982 124.045L79.4962 123.747L79.4604 130.417L79.1982 130.149C80.4975 130.149 81.7967 130.149 83.096 130.184L87.0177 130.25L94.9803 130.417Z" fill="#8A6DE1"/>
<path d="M112.586 130.417L104.767 130.584L100.797 130.649C99.4682 130.649 98.1331 130.649 96.804 130.649H96.5418V130.381L96.506 123.712V123.414H96.804L104.695 123.449C107.329 123.449 109.958 123.515 112.586 123.551H112.753V123.712C112.753 124.844 112.699 125.971 112.67 127.079L112.586 130.417ZM112.586 130.417L112.503 127.043C112.503 125.935 112.437 124.838 112.425 123.747L112.586 123.908C109.958 123.908 107.329 124.004 104.695 124.01L96.804 124.045L97.102 123.747L97.0722 130.417L96.804 130.149C98.1033 130.149 99.4026 130.149 100.708 130.184L104.63 130.25L112.586 130.417Z" fill="#8A6DE1"/>
<path d="M267.427 35.4322L259.601 35.5991L255.632 35.6706C254.309 35.6706 252.974 35.6706 251.645 35.6706H251.383V35.4024L251.353 28.7332V28.4352H251.651L259.542 28.4709C262.17 28.4709 264.805 28.5365 267.433 28.5663H267.6V28.7272C267.6 29.8536 267.552 30.9801 267.522 32.0946L267.427 35.4322ZM267.427 35.4322L267.343 32.0648C267.314 30.9562 267.278 29.8596 267.266 28.7629L267.427 28.9298C264.799 28.9596 262.164 29.0252 259.536 29.0252L251.645 29.0609L251.943 28.7629L251.907 35.4322L251.645 35.164C252.944 35.164 254.243 35.164 255.543 35.1938L259.464 35.2653L267.427 35.4322Z" fill="#8A6DE1"/>
<path d="M276.23 43.8418L268.41 44.0086L264.441 44.0802C263.112 44.0802 261.777 44.0802 260.448 44.11H260.186V43.8418L260.156 37.1725V36.8745H260.454L268.345 36.9103C270.973 36.9103 273.607 36.9758 276.236 37.0056H276.403V37.1666C276.403 38.299 276.355 39.4254 276.325 40.5399L276.23 43.8418ZM276.23 43.8418L276.146 40.4744C276.117 39.3658 276.081 38.2692 276.069 37.1725L276.23 37.3394C273.601 37.3692 270.967 37.4348 268.339 37.4348L260.448 37.4705L260.746 37.1725L260.704 43.8418L260.436 43.5795C261.735 43.5795 263.034 43.5795 264.34 43.5795L268.261 43.651L276.23 43.8418Z" fill="#8A6DE1"/>
<path d="M52.6404 35.4441L44.815 35.611L40.8456 35.6766C39.5225 35.6766 38.1874 35.6766 36.8584 35.6766H36.608V35.4084V28.7391V28.4411H36.906L44.7971 28.4769C47.4254 28.4769 50.0538 28.5425 52.6881 28.5723H52.849V28.7332C52.849 29.8656 52.7954 30.9861 52.7716 32.1006L52.6404 35.4441ZM52.6404 35.4441L52.557 32.0708C52.5272 30.9622 52.4855 29.8656 52.4736 28.7749L52.6404 28.9358C50.0061 28.9656 47.3778 29.0312 44.7494 29.0312L36.8584 29.0729L37.1564 28.7749L37.1206 35.4441L36.8584 35.164C38.1576 35.164 39.4569 35.164 40.7562 35.1998L44.6779 35.2653L52.6404 35.4441Z" fill="#8A6DE1"/>
<path d="M111.048 44.8371H78.3936V84.4473H111.048V44.8371Z" fill="#8A6DE1"/>
<path d="M107.317 48.4489H82.1246V80.8295H107.317V48.4489Z" fill="white"/>
<path d="M83.108 48.4489H82.1246V80.8295H83.108V48.4489Z" fill="white"/>
<path d="M112.026 44.8371H111.042V84.4473H112.026V44.8371Z" fill="white"/>
<path d="M96.506 52.9129H90.5639V70.6081H96.506V52.9129Z" fill="white"/>
<path d="M104.111 73.9338H87.6733V64.666H104.111V73.9338ZM88.2693 73.3378H103.515V65.262H88.2693V73.3378Z" fill="#8A6DE1"/>
<path d="M72.219 86.6823H39.5642V126.292H72.219V86.6823Z" fill="#8A6DE1"/>
<path d="M68.4881 90.3H43.2952V122.681H68.4881V90.3Z" fill="white"/>
<path d="M44.2786 90.3H43.2952V122.681H44.2786V90.3Z" fill="white"/>
<path d="M73.2025 86.6823H72.2191V126.292H73.2025V86.6823Z" fill="white"/>
<path d="M58.5408 98.6678H53.451V111.535H58.5408V98.6678Z" fill="#8A6DE1"/>
<path d="M64.1969 115.66H49.9346V106.189H64.1969V115.66ZM50.5306 115.064H63.6009V106.785H50.5306V115.064Z" fill="white"/>
<path d="M264.56 169.383H217.822V234.067H264.56V169.383Z" fill="#8A6DE1"/>
<path d="M266.825 166.987H215.557V169.389H266.825V166.987Z" fill="white"/>
<path d="M282.947 166.987H266.825V169.389H282.947V166.987Z" fill="#8A6DE1"/>
<path d="M280.396 169.383H264.56V234.067H280.396V169.383Z" fill="white"/>
<path d="M259.542 199.338H222.834V178.579H259.542V199.338ZM222.983 199.189H259.393V178.728H222.983V199.189Z" fill="white"/>
<path d="M243.211 184.653H236.071V188.759H243.211V184.653Z" fill="white"/>
<path d="M245.393 188.521H238.104V184.885H245.393V188.521ZM238.241 188.372H245.232V185.034H238.253L238.241 188.372Z" fill="white"/>
<path d="M259.542 225.377H222.834V204.619H259.542V225.377ZM222.983 225.228H259.393V204.768H222.983V225.228Z" fill="white"/>
<path d="M243.211 210.692H236.071V214.798H243.211V210.692Z" fill="white"/>
<path d="M245.393 214.56H238.104V210.93H245.393V214.56ZM238.241 214.411H245.232V211.079H238.253L238.241 214.411Z" fill="white"/>
<path d="M266.378 0H265.782V56.322H266.378V0Z" fill="white"/>
<path d="M249.219 72.5749L250.572 75.5609H281.594L282.947 72.5749L269.739 63.4382H262.426L249.219 72.5749Z" fill="#8A6DE1"/>
<path d="M261.509 54.6294L262.426 63.4382H269.739L270.657 54.6294H261.509Z" fill="white"/>
<path d="M249.219 72.5809L250.578 75.5609H281.594L282.947 72.5809H249.219Z" fill="white"/>
<path d="M232.382 0H231.786V38.9426H232.382V0Z" fill="white"/>
<path d="M215.217 55.2015L216.576 58.1815H247.592L248.945 55.2015L235.744 46.0589H228.425L215.217 55.2015Z" fill="#8A6DE1"/>
<path d="M227.507 37.256L228.425 46.0589H235.744L236.655 37.256H227.507Z" fill="white"/>
<path d="M215.223 55.2015L216.576 58.1875H247.598L248.945 55.2015H215.223Z" fill="white"/>
<path d="M157 271.615C222.276 271.615 275.193 265.243 275.193 257.383C275.193 249.522 222.276 243.15 157 243.15C91.7239 243.15 38.8073 249.522 38.8073 257.383C38.8073 265.243 91.7239 271.615 157 271.615Z" fill="#8A6DE1"/>
<path d="M31.0533 234.067L62.54 233.924L94.0266 233.87L157 233.769L219.973 233.87L251.46 233.924L282.947 234.067L251.46 234.216L219.973 234.264L157 234.365L94.0266 234.264L62.54 234.21L31.0533 234.067Z" fill="#263238"/>
<path d="M198.064 28.7629H101.62C100.326 28.7746 99.0476 29.0411 97.8571 29.5471C96.6666 30.0531 95.5875 30.7887 94.6815 31.7119C93.7754 32.6352 93.0601 33.7279 92.5766 34.9277C92.093 36.1274 91.8506 37.4107 91.8631 38.7042V242.947C91.8409 245.559 92.8558 248.072 94.685 249.936C96.5142 251.8 99.0083 252.862 101.62 252.889H198.064C200.677 252.864 203.174 251.803 205.005 249.939C206.836 248.075 207.853 245.56 207.833 242.947V38.7042C207.855 36.0908 206.839 33.5754 205.007 31.7112C203.175 29.847 200.678 28.7865 198.064 28.7629ZM201.73 236.809C201.73 242.036 197.814 246.261 192.986 246.261H106.709C101.87 246.261 97.9542 242.036 97.9542 236.809V46.2317C97.9542 35.5812 101.87 35.0627 106.709 35.0627H123.993C124.995 35.0627 125.817 36.207 125.817 37.6195V38.2155C125.817 41.5293 127.605 41.5412 129.858 41.5412H169.826C172.073 41.5412 173.879 41.5412 173.879 38.2155V37.6195C173.879 36.207 174.689 35.0627 175.708 35.0627H192.992C197.82 35.0627 201.736 36.4811 201.736 46.2317L201.73 236.809Z" fill="#263238"/>
<path d="M201.73 46.2317V236.809C201.73 242.036 197.814 246.261 192.986 246.261H106.709C101.87 246.261 97.9542 242.036 97.9542 236.809V46.2317C97.9542 35.5812 101.87 35.0627 106.709 35.0627H123.993C124.995 35.0627 125.817 36.207 125.817 37.6195V38.2155C125.817 41.5293 127.605 41.5412 129.858 41.5412H169.826C172.073 41.5412 173.879 41.5412 173.879 38.2155V37.6195C173.879 36.207 174.689 35.0627 175.708 35.0627H192.992C197.814 35.0627 201.73 36.4811 201.73 46.2317Z" fill="white"/>
<path d="M201.73 46.2257V236.809C201.73 242.036 197.814 246.261 192.986 246.261H106.709C101.87 246.261 97.9542 242.036 97.9542 236.809V46.2257C97.9542 35.5812 101.87 35.0627 106.709 35.0627H123.993C124.995 35.0627 125.817 36.207 125.817 37.6195V38.2155C125.817 41.5352 127.605 41.5471 129.858 41.5471H169.826C172.073 41.5471 173.879 41.5471 173.879 38.2155V37.6195C173.879 36.207 174.689 35.0627 175.708 35.0627H192.992C197.814 35.0627 201.73 36.4811 201.73 46.2257Z" fill="white"/>
<path d="M201.73 46.2317V62.6873H97.9542V46.2317C97.9542 35.5812 101.87 35.0627 106.709 35.0627H123.993C124.995 35.0627 125.817 36.207 125.817 37.6195V38.2155C125.817 41.5293 127.605 41.5412 129.858 41.5412H169.826C172.073 41.5412 173.879 41.5412 173.879 38.2155V37.6195C173.879 36.207 174.689 35.0627 175.708 35.0627H192.992C197.814 35.0627 201.73 36.4811 201.73 46.2317Z" fill="#F3A13B"/>
<path d="M121.008 39.2168C120.954 39.2704 120.894 39.3241 120.841 39.3837L120.745 39.479C120.534 39.2671 120.284 39.0989 120.007 38.9842C119.731 38.8694 119.435 38.8104 119.136 38.8104C118.837 38.8104 118.541 38.8694 118.265 38.9842C117.989 39.0989 117.738 39.2671 117.527 39.479L117.438 39.3837C117.384 39.33 117.324 39.2764 117.271 39.2168L117.485 39.0261C117.635 38.9029 117.799 38.7988 117.974 38.7161C118.177 38.6135 118.394 38.5393 118.618 38.4956L118.945 38.4539H119.226H119.446C119.65 38.4775 119.85 38.5255 120.042 38.5969C120.181 38.6484 120.314 38.7122 120.441 38.7877C120.579 38.8646 120.708 38.9544 120.829 39.0558L121.002 39.2108L121.008 39.2168Z" fill="white"/>
<path d="M118.057 40.0035L117.795 39.7412C118.083 39.4467 118.46 39.2559 118.868 39.1989C119.16 39.1557 119.459 39.1818 119.739 39.2749C120.02 39.3681 120.275 39.5258 120.483 39.7353L120.215 39.9975C119.928 39.7129 119.54 39.5532 119.136 39.5532C118.732 39.5532 118.344 39.7129 118.057 39.9975V40.0035Z" fill="white"/>
<path d="M119.953 40.2657L119.69 40.528C119.619 40.4536 119.533 40.3951 119.437 40.3561C119.342 40.3171 119.239 40.2985 119.136 40.3015C119.033 40.3006 118.931 40.3201 118.836 40.359C118.741 40.3979 118.655 40.4553 118.582 40.528L118.32 40.2657C118.427 40.158 118.554 40.0724 118.694 40.0141C118.834 39.9557 118.984 39.9257 119.136 39.9257C119.288 39.9257 119.438 39.9557 119.578 40.0141C119.718 40.0724 119.846 40.158 119.953 40.2657Z" fill="white"/>
<path d="M119.375 40.7664C119.375 40.8135 119.361 40.8596 119.334 40.8988C119.308 40.938 119.271 40.9686 119.227 40.9866C119.184 41.0047 119.136 41.0094 119.09 41.0002C119.043 40.991 119.001 40.9683 118.968 40.935C118.934 40.9016 118.911 40.8591 118.902 40.8129C118.893 40.7666 118.898 40.7187 118.916 40.6752C118.934 40.6316 118.964 40.5944 119.004 40.5682C119.043 40.542 119.089 40.528 119.136 40.528C119.199 40.528 119.26 40.5531 119.305 40.5978C119.349 40.6425 119.375 40.7032 119.375 40.7664Z" fill="white"/>
<path d="M104.725 39.7234C104.724 39.5862 104.763 39.4517 104.839 39.3371C104.914 39.2225 105.022 39.1329 105.149 39.0799C105.275 39.0268 105.415 39.0126 105.55 39.0391C105.684 39.0656 105.808 39.1315 105.905 39.2286C106.002 39.3256 106.068 39.4494 106.095 39.584C106.121 39.7187 106.107 39.8582 106.054 39.9848C106.001 40.1113 105.911 40.2192 105.797 40.2948C105.682 40.3703 105.547 40.41 105.41 40.4088C105.229 40.4072 105.055 40.3345 104.927 40.2063C104.799 40.0781 104.726 39.9047 104.725 39.7234Z" fill="white"/>
<path d="M106.888 39.7234C106.887 39.5864 106.927 39.4521 107.002 39.3377C107.077 39.2232 107.185 39.1337 107.311 39.0804C107.437 39.0272 107.576 39.0126 107.711 39.0386C107.845 39.0646 107.969 39.13 108.066 39.2264C108.164 39.3229 108.23 39.4461 108.257 39.5803C108.284 39.7146 108.271 39.8539 108.219 39.9806C108.167 40.1073 108.078 40.2156 107.964 40.2918C107.851 40.3681 107.717 40.4088 107.58 40.4088C107.397 40.4088 107.222 40.3368 107.093 40.2084C106.963 40.08 106.89 39.9057 106.888 39.7234Z" fill="white"/>
<path d="M109.058 39.7234C109.057 39.5862 109.096 39.4517 109.172 39.3371C109.247 39.2225 109.355 39.1329 109.482 39.0799C109.608 39.0268 109.748 39.0126 109.882 39.0391C110.017 39.0656 110.141 39.1315 110.238 39.2286C110.335 39.3256 110.401 39.4494 110.427 39.584C110.454 39.7187 110.44 39.8582 110.387 39.9848C110.334 40.1113 110.244 40.2192 110.129 40.2948C110.015 40.3703 109.88 40.41 109.743 40.4088C109.653 40.4088 109.564 40.3911 109.481 40.3566C109.398 40.3222 109.322 40.2717 109.258 40.208C109.195 40.1444 109.144 40.0688 109.11 39.9857C109.075 39.9025 109.058 39.8134 109.058 39.7234Z" fill="white"/>
<rect x="114" y="75" width="72" height="72" rx="5" fill="#E3E3E3"/>
<path d="M111.221 39.7234C111.22 39.5864 111.26 39.4521 111.335 39.3377C111.41 39.2232 111.518 39.1337 111.644 39.0804C111.77 39.0272 111.909 39.0126 112.044 39.0386C112.178 39.0646 112.302 39.13 112.399 39.2264C112.497 39.3229 112.563 39.4461 112.59 39.5803C112.617 39.7146 112.604 39.8539 112.552 39.9806C112.5 40.1073 112.411 40.2156 112.297 40.2918C112.183 40.3681 112.05 40.4088 111.913 40.4088C111.73 40.4088 111.555 40.3368 111.426 40.2084C111.296 40.08 111.223 39.9057 111.221 39.7234Z" fill="white"/>
<path d="M113.391 39.7234C113.389 39.5867 113.429 39.4526 113.504 39.3383C113.579 39.224 113.686 39.1344 113.812 39.081C113.938 39.0276 114.077 39.0127 114.211 39.0382C114.345 39.0638 114.469 39.1285 114.567 39.2244C114.664 39.3202 114.731 39.4429 114.759 39.5767C114.787 39.7106 114.774 39.8497 114.723 39.9765C114.672 40.1033 114.584 40.212 114.471 40.289C114.358 40.3659 114.225 40.4076 114.088 40.4088C113.997 40.4104 113.907 40.3938 113.822 40.3601C113.737 40.3263 113.661 40.2761 113.596 40.2123C113.531 40.1485 113.479 40.0724 113.444 39.9885C113.409 39.9045 113.391 39.8144 113.391 39.7234Z" fill="white"/>
<path d="M193.952 41.2193H188.35V38.6267H193.952V41.2193ZM188.642 40.9392H193.666V38.9128H188.642V40.9392Z" fill="white"/>
<path d="M192.426 39.0678H188.814V40.7783H192.426V39.0678Z" fill="white"/>
<path d="M194.453 39.2346H193.952V40.6233H194.453V39.2346Z" fill="white"/>
<path d="M107.419 56.5961L104.349 53.7234L107.419 50.8507L107.89 51.3573L105.368 53.7234L107.89 56.0895L107.419 56.5961Z" fill="white"/>
<path d="M192.277 50.8507L195.347 53.7234L192.277 56.5961L191.806 56.0895L194.327 53.7234L191.806 51.3573L192.277 50.8507Z" fill="white"/>
<path d="M155.295 37.4168H144.395C144.216 37.4153 144.046 37.3438 143.92 37.2179C143.794 37.0919 143.723 36.9215 143.721 36.7434C143.723 36.5652 143.794 36.3948 143.92 36.2689C144.046 36.1429 144.216 36.0714 144.395 36.0699H155.295C155.474 36.0699 155.645 36.1408 155.772 36.2671C155.898 36.3934 155.969 36.5647 155.969 36.7434C155.969 36.922 155.898 37.0933 155.772 37.2196C155.645 37.3459 155.474 37.4168 155.295 37.4168Z" fill="white"/>
<path d="M158.371 109.291C156.932 108.371 155.223 108.032 153.716 108.234C152.84 108.326 152.036 108.576 151.354 108.924C151.334 108.529 151.347 108.141 151.327 107.746C151.313 106.997 151.306 106.215 151.333 105.44C152.128 104.904 152.87 104.285 153.559 103.584C155.261 102.004 156.636 99.9624 157.243 97.681C157.809 95.4261 158.287 93.0811 157.833 90.9222C157.74 90.3692 157.576 89.9782 157.317 89.2111C157.232 88.9441 157.064 88.4101 156.798 87.9967C156.539 87.5495 155.979 87.178 155.344 87.1454C154.059 87.1478 153.378 87.8151 152.912 88.3164C152.675 88.584 152.513 88.8326 152.337 89.149C152.231 89.3035 152.175 89.3976 152.111 89.5257L152.055 89.6199C151.999 89.714 151.999 89.714 151.991 89.7479L151.913 89.9437C151.415 91.0772 151.313 92.1912 151.226 93.2374C151.14 94.2836 151.06 95.2959 150.947 96.3007C150.741 97.8889 150.645 99.4657 150.618 101.057C149.993 101.63 149.333 102.196 148.655 102.687L147.382 103.615C146.96 103.913 146.523 104.278 146.052 104.637C144.27 106.092 142.743 107.853 141.674 109.962C140.579 112.029 140.245 114.69 141.074 116.931C141.861 119.199 143.56 120.885 145.4 121.927C147.213 122.929 149.158 123.497 151.089 123.636C151.119 124.637 151.149 125.638 151.16 126.564C151.397 129.065 150.233 131.118 148.625 131.618C147.444 131.962 146.4 131.52 145.767 130.991C145.835 131.006 145.903 131.021 146.005 131.043C147.136 131.256 148.194 130.494 148.371 129.361C148.582 128.235 147.815 127.179 146.677 127.001C145.547 126.789 144.488 127.551 144.311 128.684C144.289 128.785 144.308 128.86 144.286 128.962C144.265 129.383 144.387 129.801 144.6 130.132C144.646 130.248 144.699 130.331 144.779 130.455C145.071 130.91 145.5 131.394 146.17 131.754C146.84 132.114 147.718 132.342 148.752 132.178C149.753 132.007 150.797 131.313 151.39 130.235C151.686 129.697 151.922 129.109 151.995 128.451C152.075 127.758 152.066 127.153 152.063 126.513C152.052 125.587 152.014 124.62 151.984 123.62C153.726 123.646 155.406 123.305 156.968 122.688C158.71 121.899 160.19 120.519 160.924 118.798C161.692 117.084 161.76 115.146 161.312 113.45C160.931 111.769 159.845 110.217 158.371 109.291ZM153.315 92.1686C153.732 91.4077 154.63 89.2613 155.823 89.8423C156.561 90.2172 156.535 91.3122 156.42 91.9972C156.173 93.6118 155.503 95.2047 154.503 96.5122C153.545 97.7934 152.574 98.9654 151.502 100.115C151.592 98.892 151.715 97.6764 151.881 96.4344C152.132 94.9627 152.629 93.5094 153.315 92.1686ZM146.354 120.503C144.877 119.434 143.666 117.961 143.251 116.272C142.829 114.618 143.216 112.856 144.192 111.33C145.169 109.805 146.66 108.534 148.216 107.455C148.597 107.183 148.977 106.911 149.467 106.628L150.123 106.239C150.289 106.134 150.414 106.055 150.579 105.949C150.589 106.555 150.599 107.16 150.575 107.759C150.566 108.289 150.598 108.793 150.588 109.324C149.22 110.196 148.277 111.409 147.812 112.55C147.034 114.474 147.244 116.118 147.493 117.096C147.601 117.581 147.765 117.972 147.857 118.205C147.948 118.438 148.028 118.562 148.028 118.562C148.028 118.562 147.969 118.017 148.007 117.031C148.071 116.087 148.247 114.634 149.16 113.236C149.532 112.679 150.013 112.109 150.65 111.645C150.708 113.824 150.772 115.969 150.874 117.944C150.929 119.483 150.992 120.988 151.076 122.391C149.379 122.161 147.703 121.509 146.354 120.503ZM159.933 118.438C159.496 119.941 158.285 121.237 156.681 121.88C155.27 122.458 153.654 122.672 152.01 122.525C151.94 121.053 151.844 119.541 151.736 117.92C151.595 115.794 151.485 113.533 151.396 111.17C152.128 110.762 152.973 110.486 153.91 110.443C156.037 110.341 158.414 111.537 159.565 114.097C160.136 115.394 160.361 116.97 159.933 118.438Z" fill="#2E2F2F" stroke="#2E2F2F" stroke-linecap="round" stroke-linejoin="round"/>
<path d="M210.825 77.1403L210.586 77.1999C210.593 77.1724 210.607 77.1476 210.628 77.1284L210.825 77.1403Z" fill="#263238"/>
<path d="M217.685 249.325H217.577V249.247L217.685 249.325Z" fill="#F7A9A0"/>
<path d="M227.519 98.1671C230.624 113.562 240.81 138.326 241.823 141.83C242.675 144.81 260.591 139.232 259.357 137.503C257.778 135.292 241.984 107.483 234.397 97.4579C228.127 89.1854 226.059 90.9317 227.519 98.1671Z" fill="#F7A9A0"/>
<path d="M258.535 136.234C260.4 138.689 263.303 145.698 263.988 148.04C264.673 150.383 266.092 157.255 264.351 157.952C262.611 158.649 262.033 156.665 262.033 156.665C262.033 156.665 262.176 159.645 260.364 160.199C258.552 160.753 257.742 157.63 257.742 157.63C257.742 157.63 257.67 160.723 255.823 161.129C253.975 161.534 253.689 158.28 253.689 158.28C253.689 158.28 253.755 161.105 252.086 160.801C250.083 160.437 250.554 155.204 249.624 152.677C249.41 152.081 244.505 141.353 244.505 141.353L258.535 136.234Z" fill="#F7A9A0"/>
<path d="M254.017 158.369C254.357 154.525 253.838 152.785 252.098 149.429C252.062 149.364 252.151 149.298 252.193 149.364C254.202 152.516 255.173 154.608 254.202 158.423C254.148 158.584 253.999 158.536 254.017 158.369Z" fill="#263238"/>
<path d="M258.01 157.749C258.01 153.726 257.468 151.831 255.906 148.16C255.906 148.106 255.972 148.064 255.996 148.118C257.831 151.593 258.743 153.696 258.213 157.719C258.189 157.904 258.01 157.94 258.01 157.749Z" fill="#263238"/>
<path d="M262.248 156.295C261.967 152.397 261.461 150.293 259.482 146.926C259.471 146.91 259.467 146.891 259.47 146.872C259.473 146.853 259.484 146.836 259.5 146.825C259.516 146.814 259.535 146.809 259.554 146.813C259.573 146.816 259.59 146.827 259.601 146.842C261.95 150.085 262.581 152.701 262.361 156.271C262.349 156.516 262.265 156.539 262.248 156.295Z" fill="#263238"/>
<path d="M241.698 140C241.698 140 241.918 144.834 242.484 146.932C243.05 149.03 248.033 156.092 249.636 155.103C251.686 153.822 249.636 149.185 248.295 147.039C248.295 147.039 253.063 144.059 252.265 140.435C251.466 136.812 241.698 140 241.698 140Z" fill="#F7A9A0"/>
<path d="M250.065 154.567C251.09 152.051 249.183 149.358 248.069 147.182C248.051 147.151 248.041 147.117 248.039 147.081C248.038 147.045 248.045 147.01 248.06 146.978C248.076 146.945 248.098 146.917 248.127 146.896C248.155 146.874 248.189 146.86 248.224 146.854C250.125 145.484 252.396 142.992 252.396 140.519C252.4 140.507 252.407 140.497 252.417 140.489C252.428 140.482 252.44 140.478 252.452 140.478C252.465 140.478 252.477 140.482 252.487 140.489C252.497 140.497 252.505 140.507 252.509 140.519C252.914 143.165 250.864 145.793 248.683 147.164C249.875 149.369 251.663 152.165 250.113 154.59L250.065 154.567Z" fill="#263238"/>
<path d="M257.581 131.716C257.581 131.716 239.379 139.863 238.956 140.233C238.956 140.233 227.227 103.281 226.261 97.0288C225.296 90.7767 227.566 89.0781 231.583 93.4528C238.187 100.617 257.581 131.716 257.581 131.716Z" fill="#DBDBDB"/>
<path d="M228.586 100.76C228.586 100.885 228.548 101.007 228.479 101.111C228.41 101.215 228.311 101.296 228.196 101.343C228.08 101.391 227.953 101.404 227.831 101.379C227.708 101.355 227.595 101.295 227.507 101.206C227.419 101.118 227.359 101.006 227.334 100.883C227.31 100.76 227.322 100.633 227.37 100.518C227.418 100.403 227.499 100.304 227.603 100.234C227.707 100.165 227.829 100.128 227.954 100.128C228.121 100.128 228.282 100.195 228.4 100.313C228.519 100.431 228.586 100.592 228.586 100.76ZM235.672 100.128C235.547 100.128 235.425 100.165 235.321 100.234C235.217 100.304 235.136 100.403 235.088 100.518C235.04 100.633 235.028 100.76 235.052 100.883C235.077 101.006 235.137 101.118 235.225 101.206C235.314 101.295 235.426 101.355 235.549 101.379C235.671 101.404 235.798 101.391 235.914 101.343C236.029 101.296 236.128 101.215 236.197 101.111C236.267 101.007 236.304 100.885 236.304 100.76C236.304 100.592 236.237 100.431 236.119 100.313C236 100.195 235.84 100.128 235.672 100.128ZM231.822 94.6269C231.697 94.6269 231.575 94.6639 231.471 94.7334C231.367 94.8028 231.286 94.9015 231.238 95.0169C231.19 95.1323 231.178 95.2594 231.202 95.3819C231.227 95.5045 231.287 95.617 231.375 95.7054C231.463 95.7937 231.576 95.8539 231.699 95.8783C231.821 95.9027 231.948 95.8901 232.064 95.8423C232.179 95.7945 232.278 95.7135 232.347 95.6096C232.417 95.5058 232.454 95.3836 232.454 95.2587C232.454 95.1742 232.437 95.0905 232.404 95.0127C232.371 94.9348 232.323 94.8644 232.262 94.8055C232.202 94.7466 232.13 94.7004 232.051 94.6698C231.972 94.6391 231.888 94.6245 231.804 94.6269H231.822ZM235.672 111.178C235.546 111.171 235.42 111.202 235.312 111.266C235.203 111.331 235.117 111.427 235.063 111.542C235.01 111.657 234.992 111.785 235.013 111.909C235.033 112.034 235.09 112.15 235.177 112.242C235.263 112.334 235.376 112.398 235.499 112.425C235.623 112.453 235.751 112.442 235.869 112.396C235.987 112.349 236.087 112.269 236.159 112.164C236.23 112.059 236.268 111.936 236.268 111.81C236.268 111.648 236.207 111.493 236.096 111.375C235.985 111.258 235.833 111.187 235.672 111.178ZM243.372 111.178C243.248 111.18 243.127 111.219 243.025 111.29C242.922 111.361 242.843 111.46 242.797 111.576C242.751 111.692 242.74 111.818 242.766 111.94C242.792 112.062 242.853 112.173 242.942 112.26C243.031 112.348 243.143 112.407 243.265 112.43C243.387 112.453 243.514 112.44 243.629 112.392C243.743 112.344 243.841 112.263 243.91 112.159C243.979 112.056 244.016 111.934 244.016 111.81C244.016 111.724 243.999 111.639 243.965 111.561C243.932 111.482 243.882 111.411 243.821 111.352C243.759 111.293 243.685 111.247 243.605 111.217C243.525 111.187 243.44 111.174 243.354 111.178H243.372ZM231.822 105.677C231.697 105.677 231.575 105.714 231.471 105.783C231.367 105.853 231.286 105.951 231.238 106.067C231.19 106.182 231.178 106.309 231.202 106.432C231.227 106.554 231.287 106.667 231.375 106.755C231.463 106.844 231.576 106.904 231.699 106.928C231.821 106.952 231.948 106.94 232.064 106.892C232.179 106.844 232.278 106.763 232.347 106.659C232.417 106.556 232.454 106.433 232.454 106.308C232.454 106.224 232.437 106.14 232.404 106.063C232.371 105.985 232.323 105.914 232.262 105.855C232.202 105.796 232.13 105.75 232.051 105.72C231.972 105.689 231.888 105.674 231.804 105.677H231.822ZM239.522 105.677C239.397 105.677 239.275 105.714 239.171 105.783C239.067 105.853 238.986 105.951 238.938 106.067C238.891 106.182 238.878 106.309 238.903 106.432C238.927 106.554 238.987 106.667 239.075 106.755C239.164 106.844 239.276 106.904 239.399 106.928C239.521 106.952 239.648 106.94 239.764 106.892C239.879 106.844 239.978 106.763 240.047 106.659C240.117 106.556 240.154 106.433 240.154 106.308C240.154 106.224 240.137 106.14 240.104 106.063C240.071 105.985 240.023 105.914 239.963 105.855C239.902 105.796 239.83 105.75 239.752 105.72C239.673 105.689 239.589 105.674 239.504 105.677H239.522ZM235.672 122.228C235.547 122.228 235.425 122.265 235.321 122.334C235.217 122.404 235.136 122.502 235.088 122.618C235.04 122.733 235.028 122.86 235.052 122.983C235.077 123.105 235.137 123.218 235.225 123.306C235.314 123.394 235.426 123.455 235.549 123.479C235.671 123.503 235.798 123.491 235.914 123.443C236.029 123.395 236.128 123.314 236.197 123.21C236.267 123.107 236.304 122.984 236.304 122.859C236.304 122.692 236.237 122.531 236.119 122.413C236 122.294 235.84 122.228 235.672 122.228ZM243.372 122.228C243.247 122.228 243.125 122.265 243.021 122.334C242.917 122.404 242.836 122.502 242.789 122.618C242.741 122.733 242.728 122.86 242.753 122.983C242.777 123.105 242.837 123.218 242.926 123.306C243.014 123.394 243.126 123.455 243.249 123.479C243.372 123.503 243.499 123.491 243.614 123.443C243.73 123.395 243.828 123.314 243.898 123.21C243.967 123.107 244.004 122.984 244.004 122.859C244.004 122.775 243.987 122.691 243.954 122.613C243.921 122.536 243.873 122.465 243.813 122.406C243.752 122.347 243.68 122.301 243.602 122.271C243.523 122.24 243.439 122.225 243.354 122.228H243.372ZM251.073 122.228C250.948 122.228 250.826 122.265 250.722 122.334C250.618 122.404 250.537 122.502 250.489 122.618C250.441 122.733 250.429 122.86 250.453 122.983C250.477 123.105 250.538 123.218 250.626 123.306C250.714 123.394 250.827 123.455 250.949 123.479C251.072 123.503 251.199 123.491 251.314 123.443C251.43 123.395 251.528 123.314 251.598 123.21C251.667 123.107 251.704 122.984 251.704 122.859C251.704 122.775 251.687 122.691 251.655 122.613C251.622 122.536 251.574 122.465 251.513 122.406C251.452 122.347 251.381 122.301 251.302 122.271C251.223 122.24 251.139 122.225 251.055 122.228H251.073ZM231.822 116.727H231.703C231.822 117.126 231.941 117.531 232.066 117.919C232.189 117.856 232.287 117.754 232.347 117.63C232.407 117.505 232.424 117.365 232.396 117.23C232.368 117.095 232.297 116.973 232.194 116.882C232.09 116.791 231.959 116.736 231.822 116.727ZM239.522 116.727C239.397 116.727 239.275 116.764 239.171 116.833C239.067 116.902 238.986 117.001 238.938 117.117C238.891 117.232 238.878 117.359 238.903 117.482C238.927 117.604 238.987 117.717 239.075 117.805C239.164 117.893 239.276 117.954 239.399 117.978C239.521 118.002 239.648 117.99 239.764 117.942C239.879 117.894 239.978 117.813 240.047 117.709C240.117 117.605 240.154 117.483 240.154 117.358C240.154 117.274 240.137 117.19 240.104 117.112C240.071 117.035 240.023 116.964 239.963 116.905C239.902 116.846 239.83 116.8 239.752 116.769C239.673 116.739 239.589 116.724 239.504 116.727H239.522ZM247.222 116.727C247.098 116.727 246.975 116.764 246.871 116.833C246.768 116.902 246.687 117.001 246.639 117.117C246.591 117.232 246.578 117.359 246.603 117.482C246.627 117.604 246.687 117.717 246.776 117.805C246.864 117.893 246.977 117.954 247.099 117.978C247.222 118.002 247.349 117.99 247.464 117.942C247.58 117.894 247.678 117.813 247.748 117.709C247.817 117.605 247.854 117.483 247.854 117.358C247.854 117.274 247.837 117.19 247.804 117.112C247.772 117.035 247.723 116.964 247.663 116.905C247.602 116.846 247.531 116.8 247.452 116.769C247.373 116.739 247.289 116.724 247.205 116.727H247.222ZM243.372 133.277C243.205 133.277 243.044 133.344 242.926 133.463C242.807 133.581 242.741 133.742 242.741 133.909C242.741 134.077 242.807 134.238 242.926 134.356C243.044 134.474 243.205 134.541 243.372 134.541C243.54 134.541 243.701 134.474 243.819 134.356C243.937 134.238 244.004 134.077 244.004 133.909C244.004 133.742 243.937 133.581 243.819 133.463C243.701 133.344 243.54 133.277 243.372 133.277ZM251.073 133.277C250.905 133.277 250.744 133.344 250.626 133.463C250.507 133.581 250.441 133.742 250.441 133.909C250.441 134.077 250.507 134.238 250.626 134.356C250.744 134.474 250.905 134.541 251.073 134.541C251.24 134.541 251.401 134.474 251.519 134.356C251.638 134.238 251.704 134.077 251.704 133.909C251.704 133.742 251.638 133.581 251.519 133.463C251.401 133.344 251.24 133.277 251.073 133.277ZM239.522 127.776C239.355 127.776 239.194 127.843 239.075 127.961C238.957 128.08 238.89 128.241 238.89 128.408C238.89 128.576 238.957 128.736 239.075 128.855C239.194 128.973 239.355 129.04 239.522 129.04C239.69 129.04 239.85 128.973 239.969 128.855C240.087 128.736 240.154 128.576 240.154 128.408C240.154 128.241 240.087 128.08 239.969 127.961C239.85 127.843 239.69 127.776 239.522 127.776ZM247.222 127.776C247.055 127.776 246.894 127.843 246.776 127.961C246.657 128.08 246.591 128.241 246.591 128.408C246.591 128.576 246.657 128.736 246.776 128.855C246.894 128.973 247.055 129.04 247.222 129.04C247.39 129.04 247.551 128.973 247.669 128.855C247.788 128.736 247.854 128.576 247.854 128.408C247.854 128.241 247.788 128.08 247.669 127.961C247.551 127.843 247.39 127.776 247.222 127.776ZM254.923 127.776C254.798 127.778 254.677 127.816 254.573 127.886C254.47 127.956 254.39 128.055 254.343 128.171C254.296 128.286 254.285 128.413 254.31 128.535C254.335 128.657 254.396 128.769 254.484 128.857C254.573 128.945 254.685 129.004 254.808 129.028C254.93 129.052 255.057 129.039 255.172 128.991C255.287 128.943 255.385 128.862 255.454 128.759C255.524 128.655 255.56 128.533 255.56 128.408C255.56 128.323 255.542 128.24 255.509 128.162C255.475 128.084 255.426 128.014 255.365 127.955C255.304 127.896 255.232 127.85 255.153 127.819C255.074 127.789 254.99 127.774 254.905 127.776H254.923ZM239.522 138.826C239.355 138.828 239.195 138.895 239.077 139.013C238.959 139.131 238.892 139.291 238.89 139.458C238.885 139.591 238.924 139.722 239.002 139.83C239.08 139.938 239.192 140.017 239.319 140.054L240.118 139.667C240.142 139.6 240.155 139.529 240.154 139.458C240.154 139.374 240.137 139.29 240.104 139.212C240.071 139.134 240.023 139.064 239.963 139.005C239.902 138.946 239.83 138.9 239.752 138.869C239.673 138.838 239.589 138.824 239.504 138.826H239.522Z" fill="white"/>
<path d="M226.255 97.0407C227.221 103.305 238.956 140.245 238.956 140.245C239.272 139.971 248.563 135.757 254.249 133.218L229.611 91.6886C226.857 89.841 225.463 91.8972 226.255 97.0407Z" fill="#C7C7C7"/>
<path d="M253.206 128.14C253.254 128.14 253.296 128.188 253.254 128.212C250.87 129.57 239.898 134.505 238.39 134.982C238.342 134.982 238.312 134.922 238.354 134.905C243.42 132.36 248.45 129.928 253.206 128.14Z" fill="#263238"/>
<path d="M226.213 90.6218C226.213 91.2178 224.121 95.5507 221.445 95.9322C220.569 96.0573 219.657 91.3012 219.657 91.3012L219.514 90.9615L217.476 86.2531L222.548 81.4494L223.287 80.7997C223.287 80.7997 223.764 82.1228 224.336 83.7797C224.336 83.8572 224.39 83.9287 224.414 84.0122L224.515 84.2804L224.771 85.0313C224.837 85.222 224.902 85.4127 224.962 85.6273C225.021 85.8419 225.087 86.0266 225.153 86.2233C225.607 87.6634 225.961 89.133 226.213 90.6218Z" fill="#F7A9A0"/>
<path d="M224.348 83.7797C224.114 85.2551 223.561 86.6618 222.729 87.902C221.896 89.1423 220.803 90.1863 219.526 90.9615L217.488 86.2531L222.56 81.4494L223.299 80.7997C223.299 80.7997 223.752 82.1228 224.348 83.7797Z" fill="#263238"/>
<path d="M209.216 79.709C209.561 88.7086 214.967 89.6086 216.928 89.4417C218.686 89.2868 224.676 88.9113 225.272 79.9057C225.868 70.9002 221.565 68.236 217.524 68.1824C213.483 68.1288 208.852 70.7094 209.216 79.709Z" fill="#F7A9A0"/>
<path d="M209.585 77.7482C209.788 77.6954 209.987 77.6297 210.181 77.5515C210.4 77.5157 210.599 77.4064 210.747 77.2416C210.785 77.1816 210.801 77.1109 210.793 77.0407C210.786 76.9705 210.755 76.9048 210.706 76.8542C210.594 76.7669 210.461 76.7115 210.32 76.6936C210.18 76.6758 210.037 76.6963 209.907 76.7529C209.627 76.827 209.383 77.0007 209.222 77.2416C209.19 77.2988 209.176 77.3636 209.18 77.4287C209.183 77.4938 209.206 77.5564 209.244 77.6094C209.282 77.6624 209.334 77.7035 209.394 77.7281C209.455 77.7526 209.521 77.7596 209.585 77.7482Z" fill="#263238"/>
<path d="M215.408 77.4382C215.193 77.4382 214.997 77.3965 214.812 77.3727C214.599 77.377 214.39 77.3122 214.216 77.1879C214.167 77.1373 214.136 77.0717 214.128 77.0014C214.121 76.9312 214.137 76.8605 214.174 76.8005C214.265 76.6925 214.383 76.6106 214.516 76.5635C214.649 76.5163 214.793 76.5056 214.931 76.5323C215.222 76.5454 215.497 76.6641 215.706 76.8661C215.756 76.9173 215.788 76.9829 215.799 77.0536C215.809 77.1243 215.797 77.1965 215.764 77.2599C215.731 77.3232 215.679 77.3746 215.615 77.4066C215.551 77.4386 215.479 77.4497 215.408 77.4382Z" fill="#263238"/>
<path d="M214.317 79.7805C214.317 79.7805 214.371 79.7805 214.371 79.8342C214.407 80.4302 214.544 81.1394 215.116 81.2944V81.3302C214.431 81.2944 214.252 80.3646 214.317 79.7805Z" fill="#263238"/>
<path d="M214.812 79.0952C215.789 78.9402 216.034 80.8832 215.128 81.05C214.222 81.2169 213.995 79.2322 214.812 79.0952Z" fill="#263238"/>
<path d="M215.211 79.1547C215.396 79.2441 215.587 79.417 215.807 79.411C216.028 79.4051 216.207 79.1786 216.338 78.964C216.338 78.964 216.338 78.964 216.374 78.964C216.427 79.3395 216.332 79.7388 215.932 79.8461C215.533 79.9534 215.265 79.6435 215.128 79.2799C215.086 79.2263 215.134 79.119 215.211 79.1547Z" fill="#263238"/>
<path d="M211.009 79.864C211.009 79.864 210.962 79.8997 210.968 79.9236C211.069 80.5196 211.081 81.2348 210.557 81.5089C210.557 81.5089 210.557 81.5507 210.557 81.5447C211.236 81.348 211.2 80.4063 211.009 79.864Z" fill="#263238"/>
<path d="M210.384 79.268C209.394 79.3276 209.579 81.2944 210.491 81.2467C211.403 81.199 211.236 79.268 210.384 79.268Z" fill="#263238"/>
<path d="M209.984 79.4528C209.835 79.572 209.698 79.7806 209.514 79.8104C209.329 79.8402 209.12 79.6435 208.965 79.4528H208.935C208.935 79.8282 209.12 80.2097 209.49 80.2514C209.859 80.2931 210.038 79.9415 210.086 79.5541C210.104 79.5064 210.044 79.4051 209.984 79.4528Z" fill="#263238"/>
<path d="M214.913 84.477C214.794 84.6439 214.681 84.8644 214.466 84.9181C214.241 84.9519 214.012 84.9377 213.793 84.8764C213.793 84.8764 213.757 84.8764 213.793 84.9121C213.899 85.0174 214.031 85.0915 214.176 85.1262C214.321 85.1609 214.473 85.1549 214.615 85.1088C214.731 85.0578 214.829 84.9743 214.898 84.8685C214.967 84.7626 215.003 84.639 215.003 84.5128C214.979 84.4592 214.931 84.4532 214.913 84.477Z" fill="#263238"/>
<path d="M212.118 82.5639C212.095 83.0145 212.095 83.4661 212.118 83.9168C212.118 83.9525 212.225 83.9645 212.374 83.9525C212.75 83.9779 213.125 83.8996 213.46 83.7261C213.794 83.5527 214.074 83.2909 214.27 82.9692C214.272 82.9598 214.272 82.9499 214.269 82.9406C214.266 82.9314 214.26 82.9233 214.252 82.9175C214.245 82.9116 214.235 82.9083 214.226 82.9079C214.216 82.9076 214.206 82.9102 214.198 82.9155C213.697 83.3492 213.071 83.6104 212.41 83.6605C212.368 83.5473 212.505 82.0811 212.41 82.0811C212.082 82.1501 211.763 82.2603 211.462 82.4089C211.462 80.4838 211.754 78.5766 211.719 76.6575C211.715 76.6456 211.707 76.6352 211.697 76.6278C211.687 76.6205 211.675 76.6165 211.662 76.6165C211.65 76.6165 211.637 76.6205 211.627 76.6278C211.617 76.6352 211.609 76.6456 211.605 76.6575C211.236 78.6981 211.072 80.7707 211.117 82.844C211.111 83.0764 211.957 82.6533 212.118 82.5639Z" fill="#263238"/>
<path d="M212.428 83.6188C212.69 83.9638 213.037 84.2348 213.435 84.4055C213.654 84.4912 213.893 84.5058 214.121 84.4472C214.615 84.3161 214.633 83.8512 214.538 83.4698C214.488 83.2632 214.414 83.0632 214.317 82.8738C213.784 83.3188 213.121 83.58 212.428 83.6188Z" fill="#263238"/>
<path d="M213.405 84.4055C213.624 84.4912 213.864 84.5058 214.091 84.4472C214.586 84.3161 214.603 83.8512 214.508 83.4698C214.247 83.4834 213.998 83.5823 213.799 83.7513C213.599 83.9204 213.461 84.1502 213.405 84.4055Z" fill="#FF9BBC"/>
<path d="M274.746 234.49C275.419 235.807 276.075 237.113 276.701 238.382C277.098 239.177 277.473 239.946 277.827 240.689C280.163 245.492 281.814 249.241 281.546 249.712C280.712 251.166 247.956 268.599 246.609 268.832C245.262 269.064 244.523 265.226 245.256 263.539C245.703 262.508 249.428 257.579 252.247 253.848C254.076 251.464 255.543 249.581 255.543 249.581L253.403 245.784L243.623 228.5L265.567 216.896C265.567 216.896 270.395 225.884 274.746 234.49Z" fill="#F7A9A0"/>
<path d="M246.609 268.832C247.956 268.605 280.718 251.16 281.546 249.706C281.82 249.241 280.163 245.492 277.827 240.683C277.666 240.343 277.493 239.997 277.32 239.646C273.113 242.179 258.66 254.474 251.597 256.93C249.07 257.812 251.424 254.915 251.424 254.915C248.73 258.449 245.661 262.586 245.256 263.515C244.523 265.22 245.262 269.052 246.609 268.832Z" fill="#263238"/>
<path d="M248.701 244.598C248.438 244.467 233.073 211.61 229.205 199.38C224.181 183.49 218.209 153.13 216.85 147.051C214.054 140.05 212.155 132.722 211.2 125.243H240.613C240.613 125.243 248.325 140 244.35 150.424C244.016 151.384 250.244 184.164 253.087 190.124C255.549 195.285 273.536 231.141 274.019 231.391L248.701 244.598Z" fill="#37474F"/>
<path d="M269.4 226.623C266.473 227.815 255.161 233.537 252.342 234.967L250.036 236.159C249.246 236.526 248.485 236.953 247.759 237.434C247.717 237.464 247.759 237.536 247.807 237.524C248.524 237.302 249.223 237.025 249.898 236.695C250.626 236.38 251.347 236.052 252.062 235.718C253.504 235.062 267.933 227.666 269.435 226.695C269.439 226.688 269.442 226.68 269.442 226.672C269.442 226.664 269.44 226.656 269.437 226.649C269.433 226.642 269.428 226.636 269.422 226.631C269.415 226.627 269.407 226.624 269.4 226.623Z" fill="#263238"/>
<path d="M250.703 234.449C248.224 228.882 236.351 199.881 234.265 193.485C232.179 187.09 230.457 180.689 228.818 174.223C227.149 167.667 225.582 161.051 223.978 154.459C222.357 147.772 220.766 141.061 219.556 134.291C219.401 133.432 219.252 132.574 219.103 131.716C219.103 131.656 218.99 131.668 219.002 131.716C219.967 138.552 221.29 145.335 222.798 152.069C224.306 158.804 225.933 165.402 227.596 172.041C229.217 178.55 230.94 185.034 232.96 191.435C234.981 197.836 249.749 233.751 250.62 234.49C250.667 234.544 250.733 234.508 250.703 234.449Z" fill="#263238"/>
<path d="M211.194 125.243C212.154 132.724 214.054 140.053 216.85 147.057C217.875 151.652 221.547 170.14 225.445 185.755L240.607 125.237C240.607 125.237 211.194 125.226 211.194 125.243Z" fill="#263238"/>
<path d="M224.348 251.435C224.348 252.919 224.294 254.379 224.259 255.791C224.259 256.673 224.205 257.532 224.175 258.36C223.996 263.694 223.704 267.783 223.245 268.075C221.833 268.969 184.72 269.076 183.421 268.671C182.121 268.266 183.266 264.499 184.702 263.355C185.572 262.657 191.163 260.017 195.43 258.056C198.16 256.804 200.335 255.821 200.335 255.821L200.216 251.464L199.912 231.606H224.425C224.425 231.606 224.521 241.815 224.348 251.435Z" fill="#F7A9A0"/>
<path d="M228.729 151.557C228.729 151.557 226.213 175.397 225.039 187.424C224.741 190.404 224.539 192.675 224.443 193.646C224.443 194.028 224.396 200.262 224.384 208.415C224.384 215.567 226.172 248.669 226.172 248.669H198.35C198.35 248.669 199.542 197.193 199.96 191.382C200.013 190.708 200.055 190.011 200.103 189.301C201.199 172.852 201.801 148.905 209.871 125.243H240.655C240.655 125.243 241.411 138.951 235.088 149C235.076 149 230.564 150.526 228.729 151.557Z" fill="#37474F"/>
<path d="M224.098 242.655C220.939 242.459 208.274 242.655 205.109 242.697L202.516 242.757C201.644 242.741 200.771 242.79 199.906 242.906C199.852 242.906 199.858 243.001 199.906 243.007C200.648 243.122 201.397 243.179 202.147 243.18C202.942 243.212 203.736 243.236 204.531 243.251C206.11 243.287 222.322 242.959 224.098 242.745C224.157 242.733 224.157 242.655 224.098 242.655Z" fill="#263238"/>
<path d="M213.68 128.599C211.601 135.561 209.898 142.63 208.578 149.775C207.267 156.873 206.241 164.025 205.461 171.201C204.668 178.478 204.12 185.779 203.75 193.086C203.381 200.393 203.22 207.676 203.208 214.977C203.196 222.278 203.107 240.337 203.16 241.249C203.16 241.308 203.256 241.308 203.256 241.249C203.297 233.99 203.81 225.079 203.822 217.82C203.834 210.561 203.971 203.218 204.269 195.923C204.567 188.628 205.032 181.44 205.741 174.229C206.45 167.017 207.41 159.704 208.667 152.504C209.925 145.305 211.403 138.302 213.125 131.287C213.346 130.399 213.572 129.499 213.805 128.629C213.805 128.614 213.801 128.599 213.791 128.586C213.782 128.574 213.769 128.566 213.754 128.562C213.74 128.559 213.724 128.561 213.71 128.567C213.697 128.574 213.686 128.585 213.68 128.599Z" fill="#263238"/>
<path d="M238.408 147.635C237.593 148.398 236.585 148.921 235.493 149.149C234.337 149.447 233.151 149.626 231.983 149.846C229.388 150.388 226.756 150.729 224.11 150.865C222.607 150.958 221.098 150.839 219.628 150.514C219.619 150.517 219.611 150.523 219.605 150.531C219.6 150.539 219.597 150.549 219.597 150.559C219.597 150.568 219.6 150.578 219.605 150.586C219.611 150.594 219.619 150.6 219.628 150.603C220.917 151.012 222.245 151.286 223.591 151.42C224.954 151.522 226.324 151.484 227.68 151.307C229.056 151.14 230.427 150.871 231.786 150.585C233.014 150.347 234.226 150.032 235.416 149.644C236.6 149.291 237.662 148.616 238.485 147.695C238.503 147.653 238.443 147.593 238.408 147.635Z" fill="#263238"/>
<path d="M183.427 268.653C184.732 269.076 221.833 268.969 223.251 268.057C223.71 267.771 224.002 263.682 224.181 258.348C224.181 257.585 224.235 256.804 224.253 256C219.687 256.548 200.043 260.845 191.628 260.845C189.583 260.845 192.82 259.451 192.432 259.415C188.91 261.072 185.387 262.782 184.684 263.325C183.272 264.487 182.133 268.2 183.427 268.653Z" fill="#263238"/>
<path d="M210.133 116.655L207.583 130.363C207.583 130.363 237.853 130.786 244.964 130.286C244.964 130.286 237.532 101.332 229.885 93.0296C226.064 88.8576 221.541 89.1854 218.71 92.0879C217.989 92.827 209.347 104.24 208.441 108.603C207.66 112.423 210.133 116.655 210.133 116.655Z" fill="#DBDBDB"/>
<path d="M213.185 100.76C213.183 100.927 213.116 101.087 212.998 101.205C212.88 101.323 212.72 101.39 212.553 101.392C212.403 101.393 212.259 101.337 212.148 101.237C212.368 100.885 212.595 100.539 212.821 100.188C212.93 100.239 213.022 100.319 213.086 100.421C213.151 100.522 213.185 100.64 213.185 100.76ZM220.253 100.128C220.128 100.128 220.006 100.165 219.902 100.234C219.799 100.304 219.718 100.403 219.67 100.518C219.622 100.633 219.609 100.76 219.634 100.883C219.658 101.006 219.718 101.118 219.807 101.206C219.895 101.295 220.008 101.355 220.13 101.379C220.253 101.404 220.38 101.391 220.495 101.343C220.611 101.296 220.709 101.215 220.779 101.111C220.848 101.007 220.885 100.885 220.885 100.76C220.886 100.677 220.87 100.594 220.839 100.517C220.807 100.44 220.761 100.37 220.702 100.311C220.643 100.252 220.573 100.206 220.496 100.174C220.419 100.143 220.337 100.127 220.253 100.128ZM227.954 100.128C227.829 100.128 227.707 100.165 227.603 100.234C227.499 100.304 227.418 100.403 227.37 100.518C227.322 100.633 227.31 100.76 227.334 100.883C227.359 101.006 227.419 101.118 227.507 101.206C227.595 101.295 227.708 101.355 227.831 101.379C227.953 101.404 228.08 101.391 228.196 101.343C228.311 101.296 228.41 101.215 228.479 101.111C228.548 101.007 228.586 100.885 228.586 100.76C228.586 100.592 228.519 100.432 228.4 100.313C228.282 100.195 228.121 100.128 227.954 100.128ZM216.671 94.6865L215.938 95.6878C216.002 95.7559 216.079 95.8092 216.166 95.8438C216.252 95.8784 216.345 95.8935 216.438 95.888C216.531 95.8826 216.621 95.8567 216.703 95.8122C216.785 95.7677 216.856 95.7056 216.911 95.6306C216.966 95.5555 217.003 95.4692 217.021 95.3779C217.039 95.2866 217.036 95.1924 217.013 95.1023C216.99 95.0121 216.948 94.928 216.889 94.8562C216.83 94.7843 216.756 94.7264 216.671 94.6865ZM224.104 94.6269C223.979 94.6269 223.857 94.664 223.753 94.7334C223.649 94.8028 223.568 94.9015 223.52 95.0169C223.472 95.1324 223.46 95.2594 223.484 95.3819C223.508 95.5045 223.569 95.617 223.657 95.7054C223.745 95.7938 223.858 95.8539 223.98 95.8783C224.103 95.9027 224.23 95.8902 224.345 95.8423C224.461 95.7945 224.559 95.7136 224.629 95.6097C224.698 95.5058 224.735 95.3836 224.735 95.2587C224.736 95.1755 224.72 95.093 224.689 95.016C224.657 94.939 224.611 94.869 224.552 94.8102C224.493 94.7514 224.423 94.7049 224.346 94.6734C224.269 94.6419 224.187 94.6261 224.104 94.6269ZM231.345 94.8296C231.289 94.886 231.245 94.953 231.215 95.0267C231.186 95.1004 231.171 95.1792 231.172 95.2587C231.174 95.4258 231.241 95.5855 231.359 95.7037C231.477 95.8218 231.637 95.8889 231.804 95.8904C231.881 95.8914 231.958 95.8772 232.03 95.8487C231.804 95.4971 231.571 95.1514 231.345 94.8296ZM212.553 111.178C212.386 111.178 212.225 111.244 212.106 111.363C211.988 111.481 211.921 111.642 211.921 111.81C211.921 111.977 211.988 112.138 212.106 112.256C212.225 112.375 212.386 112.441 212.553 112.441C212.721 112.441 212.881 112.375 213 112.256C213.118 112.138 213.185 111.977 213.185 111.81C213.185 111.642 213.118 111.481 213 111.363C212.881 111.244 212.721 111.178 212.553 111.178ZM220.253 111.178C220.128 111.178 220.006 111.215 219.902 111.284C219.799 111.354 219.718 111.452 219.67 111.568C219.622 111.683 219.609 111.81 219.634 111.933C219.658 112.055 219.718 112.168 219.807 112.256C219.895 112.345 220.008 112.405 220.13 112.429C220.253 112.454 220.38 112.441 220.495 112.393C220.611 112.345 220.709 112.264 220.779 112.161C220.848 112.057 220.885 111.935 220.885 111.81C220.886 111.726 220.87 111.644 220.839 111.567C220.807 111.49 220.761 111.42 220.702 111.361C220.643 111.302 220.573 111.256 220.496 111.224C220.419 111.193 220.337 111.177 220.253 111.178ZM227.954 111.178C227.829 111.178 227.707 111.215 227.603 111.284C227.499 111.354 227.418 111.452 227.37 111.568C227.322 111.683 227.31 111.81 227.334 111.933C227.359 112.055 227.419 112.168 227.507 112.256C227.595 112.345 227.708 112.405 227.831 112.429C227.953 112.454 228.08 112.441 228.196 112.393C228.311 112.345 228.41 112.264 228.479 112.161C228.548 112.057 228.586 111.935 228.586 111.81C228.586 111.642 228.519 111.481 228.4 111.363C228.282 111.244 228.121 111.178 227.954 111.178ZM235.654 111.178C235.528 111.174 235.405 111.208 235.298 111.276C235.192 111.343 235.108 111.44 235.058 111.555C235.007 111.67 234.992 111.798 235.014 111.922C235.037 112.045 235.096 112.159 235.183 112.25C235.271 112.34 235.383 112.402 235.506 112.428C235.629 112.453 235.757 112.442 235.874 112.395C235.99 112.348 236.09 112.267 236.16 112.162C236.23 112.058 236.268 111.935 236.268 111.81C236.268 111.648 236.207 111.493 236.096 111.375C235.985 111.258 235.833 111.187 235.672 111.178H235.654ZM209.323 106.183C209.216 106.41 209.114 106.636 209.025 106.851C209.118 106.794 209.196 106.715 209.25 106.62C209.304 106.525 209.333 106.418 209.335 106.309C209.334 106.267 209.33 106.225 209.323 106.183ZM216.403 105.677C216.236 105.677 216.075 105.743 215.957 105.862C215.838 105.98 215.772 106.141 215.772 106.309C215.772 106.476 215.838 106.637 215.957 106.755C216.075 106.874 216.236 106.94 216.403 106.94C216.571 106.94 216.732 106.874 216.85 106.755C216.968 106.637 217.035 106.476 217.035 106.309C217.035 106.141 216.968 105.98 216.85 105.862C216.732 105.743 216.571 105.677 216.403 105.677ZM224.104 105.677C223.979 105.677 223.857 105.714 223.753 105.783C223.649 105.853 223.568 105.951 223.52 106.067C223.472 106.182 223.46 106.309 223.484 106.432C223.508 106.554 223.569 106.667 223.657 106.755C223.745 106.844 223.858 106.904 223.98 106.928C224.103 106.953 224.23 106.94 224.345 106.892C224.461 106.844 224.559 106.763 224.629 106.66C224.698 106.556 224.735 106.433 224.735 106.309C224.736 106.225 224.72 106.143 224.689 106.066C224.657 105.989 224.611 105.919 224.552 105.86C224.493 105.801 224.423 105.755 224.346 105.723C224.269 105.692 224.187 105.676 224.104 105.677ZM231.804 105.677C231.679 105.677 231.557 105.714 231.453 105.783C231.349 105.853 231.268 105.951 231.22 106.067C231.172 106.182 231.16 106.309 231.184 106.432C231.209 106.554 231.269 106.667 231.357 106.755C231.446 106.844 231.558 106.904 231.681 106.928C231.803 106.953 231.93 106.94 232.046 106.892C232.161 106.844 232.26 106.763 232.329 106.66C232.399 106.556 232.436 106.433 232.436 106.309C232.436 106.226 232.419 106.143 232.388 106.067C232.356 105.99 232.309 105.92 232.251 105.862C232.192 105.803 232.122 105.757 232.046 105.725C231.969 105.693 231.887 105.677 231.804 105.677ZM212.553 122.228C212.428 122.228 212.306 122.265 212.202 122.334C212.098 122.404 212.017 122.502 211.969 122.618C211.922 122.733 211.909 122.86 211.934 122.983C211.958 123.105 212.018 123.218 212.106 123.306C212.195 123.395 212.307 123.455 212.43 123.479C212.552 123.503 212.679 123.491 212.795 123.443C212.91 123.395 213.009 123.314 213.078 123.21C213.148 123.107 213.185 122.984 213.185 122.859C213.186 122.776 213.17 122.694 213.138 122.617C213.107 122.54 213.06 122.47 213.002 122.411C212.943 122.352 212.873 122.306 212.796 122.274C212.719 122.243 212.636 122.227 212.553 122.228ZM220.253 122.228C220.128 122.228 220.006 122.265 219.902 122.334C219.799 122.404 219.718 122.502 219.67 122.618C219.622 122.733 219.609 122.86 219.634 122.983C219.658 123.105 219.718 123.218 219.807 123.306C219.895 123.395 220.008 123.455 220.13 123.479C220.253 123.503 220.38 123.491 220.495 123.443C220.611 123.395 220.709 123.314 220.779 123.21C220.848 123.107 220.885 122.984 220.885 122.859C220.886 122.776 220.87 122.694 220.839 122.617C220.807 122.54 220.761 122.47 220.702 122.411C220.643 122.352 220.573 122.306 220.496 122.274C220.419 122.243 220.337 122.227 220.253 122.228ZM227.954 122.228C227.829 122.228 227.707 122.265 227.603 122.334C227.499 122.404 227.418 122.502 227.37 122.618C227.322 122.733 227.31 122.86 227.334 122.983C227.359 123.105 227.419 123.218 227.507 123.306C227.595 123.395 227.708 123.455 227.831 123.479C227.953 123.503 228.08 123.491 228.196 123.443C228.311 123.395 228.41 123.314 228.479 123.21C228.548 123.107 228.586 122.984 228.586 122.859C228.586 122.776 228.569 122.694 228.537 122.618C228.506 122.541 228.459 122.471 228.4 122.413C228.342 122.354 228.272 122.308 228.196 122.276C228.119 122.244 228.037 122.228 227.954 122.228ZM235.654 122.228C235.529 122.228 235.407 122.265 235.303 122.334C235.199 122.404 235.118 122.502 235.07 122.618C235.023 122.733 235.01 122.86 235.034 122.983C235.059 123.105 235.119 123.218 235.207 123.306C235.296 123.395 235.408 123.455 235.531 123.479C235.653 123.503 235.78 123.491 235.896 123.443C236.011 123.395 236.11 123.314 236.179 123.21C236.249 123.107 236.286 122.984 236.286 122.859C236.286 122.695 236.222 122.537 236.107 122.419C235.993 122.301 235.836 122.232 235.672 122.228H235.654ZM242.806 122.573C242.759 122.661 242.734 122.76 242.735 122.859C242.732 122.97 242.76 123.08 242.815 123.176C242.871 123.271 242.953 123.35 243.05 123.402L242.806 122.573ZM216.415 116.727C216.29 116.727 216.168 116.764 216.064 116.833C215.96 116.902 215.879 117.001 215.832 117.117C215.784 117.232 215.771 117.359 215.796 117.482C215.82 117.604 215.88 117.717 215.968 117.805C216.057 117.893 216.169 117.954 216.292 117.978C216.415 118.002 216.542 117.99 216.657 117.942C216.772 117.894 216.871 117.813 216.94 117.709C217.01 117.605 217.047 117.483 217.047 117.358C217.048 117.274 217.032 117.191 216.999 117.113C216.967 117.035 216.92 116.965 216.86 116.906C216.799 116.847 216.728 116.8 216.65 116.77C216.571 116.739 216.487 116.724 216.403 116.727H216.415ZM224.116 116.727C223.991 116.727 223.868 116.764 223.765 116.833C223.661 116.902 223.58 117.001 223.532 117.117C223.484 117.232 223.472 117.359 223.496 117.482C223.52 117.604 223.58 117.717 223.669 117.805C223.757 117.893 223.87 117.954 223.992 117.978C224.115 118.002 224.242 117.99 224.357 117.942C224.473 117.894 224.571 117.813 224.641 117.709C224.71 117.605 224.747 117.483 224.747 117.358C224.748 117.274 224.732 117.191 224.7 117.113C224.668 117.035 224.62 116.965 224.56 116.906C224.5 116.847 224.428 116.8 224.35 116.77C224.272 116.739 224.188 116.724 224.104 116.727H224.116ZM231.816 116.727C231.691 116.727 231.569 116.764 231.465 116.833C231.361 116.902 231.28 117.001 231.232 117.117C231.184 117.232 231.172 117.359 231.196 117.482C231.221 117.604 231.281 117.717 231.369 117.805C231.457 117.893 231.57 117.954 231.693 117.978C231.815 118.002 231.942 117.99 232.058 117.942C232.173 117.894 232.272 117.813 232.341 117.709C232.411 117.605 232.448 117.483 232.448 117.358C232.448 117.274 232.431 117.191 232.398 117.114C232.366 117.036 232.318 116.966 232.258 116.907C232.198 116.849 232.127 116.802 232.049 116.771C231.971 116.74 231.888 116.725 231.804 116.727H231.816ZM239.516 116.727C239.391 116.727 239.269 116.764 239.165 116.833C239.061 116.902 238.98 117.001 238.932 117.117C238.885 117.232 238.872 117.359 238.897 117.482C238.921 117.604 238.981 117.717 239.069 117.805C239.158 117.893 239.27 117.954 239.393 117.978C239.515 118.002 239.642 117.99 239.758 117.942C239.873 117.894 239.972 117.813 240.041 117.709C240.111 117.605 240.148 117.483 240.148 117.358C240.148 117.274 240.131 117.191 240.099 117.114C240.066 117.036 240.019 116.966 239.959 116.907C239.899 116.849 239.828 116.802 239.75 116.771C239.672 116.74 239.588 116.725 239.504 116.727H239.516ZM208.715 127.776C208.59 127.776 208.468 127.813 208.364 127.883C208.26 127.952 208.179 128.051 208.131 128.166C208.083 128.282 208.071 128.409 208.095 128.531C208.12 128.654 208.18 128.767 208.268 128.855C208.357 128.943 208.469 129.003 208.592 129.028C208.714 129.052 208.841 129.04 208.957 128.992C209.072 128.944 209.171 128.863 209.24 128.759C209.31 128.655 209.347 128.533 209.347 128.408C209.347 128.324 209.33 128.241 209.297 128.164C209.265 128.086 209.217 128.016 209.157 127.957C209.097 127.898 209.026 127.852 208.948 127.821C208.87 127.79 208.787 127.775 208.703 127.776H208.715ZM216.415 127.776C216.29 127.776 216.168 127.813 216.064 127.883C215.96 127.952 215.879 128.051 215.832 128.166C215.784 128.282 215.771 128.409 215.796 128.531C215.82 128.654 215.88 128.767 215.968 128.855C216.057 128.943 216.169 129.003 216.292 129.028C216.415 129.052 216.542 129.04 216.657 128.992C216.772 128.944 216.871 128.863 216.94 128.759C217.01 128.655 217.047 128.533 217.047 128.408C217.047 128.324 217.03 128.241 216.998 128.164C216.965 128.086 216.918 128.016 216.858 127.957C216.798 127.898 216.727 127.852 216.649 127.821C216.571 127.79 216.487 127.775 216.403 127.776H216.415ZM224.116 127.776C223.991 127.776 223.868 127.813 223.765 127.883C223.661 127.952 223.58 128.051 223.532 128.166C223.484 128.282 223.472 128.409 223.496 128.531C223.52 128.654 223.58 128.767 223.669 128.855C223.757 128.943 223.87 129.003 223.992 129.028C224.115 129.052 224.242 129.04 224.357 128.992C224.473 128.944 224.571 128.863 224.641 128.759C224.71 128.655 224.747 128.533 224.747 128.408C224.747 128.324 224.731 128.241 224.698 128.164C224.666 128.086 224.618 128.016 224.558 127.957C224.498 127.898 224.427 127.852 224.349 127.821C224.271 127.79 224.188 127.775 224.104 127.776H224.116ZM231.816 127.776C231.648 127.776 231.488 127.843 231.369 127.961C231.251 128.08 231.184 128.241 231.184 128.408C231.184 128.576 231.251 128.736 231.369 128.855C231.488 128.973 231.648 129.04 231.816 129.04C231.983 129.04 232.144 128.973 232.263 128.855C232.381 128.736 232.448 128.576 232.448 128.408C232.448 128.241 232.381 128.08 232.263 127.961C232.144 127.843 231.983 127.776 231.816 127.776ZM239.516 127.776C239.349 127.776 239.188 127.843 239.069 127.961C238.951 128.08 238.884 128.241 238.884 128.408C238.884 128.576 238.951 128.736 239.069 128.855C239.188 128.973 239.349 129.04 239.516 129.04C239.684 129.04 239.844 128.973 239.963 128.855C240.081 128.736 240.148 128.576 240.148 128.408C240.148 128.241 240.081 128.08 239.963 127.961C239.844 127.843 239.684 127.776 239.516 127.776Z" fill="white"/>
<path d="M235.511 102.22C236.238 103.817 236.93 105.42 237.603 107.042C237.496 106.553 237.377 106.064 237.239 105.587C237.239 105.516 237.329 105.492 237.353 105.587C237.616 106.298 237.798 107.035 237.895 107.787C240.041 113.037 241.874 118.411 243.384 123.879C243.67 124.91 243.98 125.947 244.195 126.99C244.409 128.033 244.791 129.153 244.91 130.256C244.91 130.268 244.905 130.281 244.896 130.29C244.887 130.298 244.875 130.303 244.862 130.303C244.85 130.303 244.838 130.298 244.829 130.29C244.82 130.281 244.815 130.268 244.815 130.256C244.463 129.344 244.219 128.366 243.956 127.425C243.694 126.483 243.426 125.637 243.152 124.707C242.598 122.859 242.043 121.012 241.465 119.17C240.321 115.529 239.081 111.935 237.776 108.341C237.043 106.285 236.232 104.258 235.44 102.226C235.422 102.208 235.493 102.178 235.511 102.22Z" fill="#263238"/>
<path d="M221.523 97.3626C219.663 101.481 209.865 118.044 204.531 119.832C196.187 122.639 185.93 120.851 180.524 120.356C177.508 120.076 180.488 101.934 183.713 103.007C188.129 104.473 198.869 105.862 200.46 105.814C202.052 105.766 209.746 97.9824 215.64 93.3753C221.106 89.108 224.598 90.5443 221.523 97.3626Z" fill="#F7A9A0"/>
<path d="M157 101.773C156.779 104.413 166.011 104.783 166.011 104.783C165.25 105.171 164.649 105.814 164.313 106.601C163.782 108.013 165.767 109.461 165.767 109.461C165.063 110.032 164.546 110.8 164.283 111.667C163.914 113.073 165.708 114.813 165.708 114.813C165.35 115.696 165.32 116.677 165.624 117.579C166.53 119.963 170.344 120.702 172.776 121.197C175.208 121.691 182.378 121.095 184.166 120.732L187.527 104.431C183.333 102.198 178.81 100.645 174.129 99.83C171.703 99.4307 157.28 98.787 157 101.773Z" fill="#F7A9A0"/>
<path d="M166.196 104.556C168.854 104.091 171.513 104.437 174.177 104.634C174.184 104.631 174.192 104.63 174.199 104.631C174.207 104.632 174.214 104.635 174.221 104.639C174.227 104.644 174.232 104.65 174.236 104.656C174.239 104.663 174.241 104.671 174.241 104.678C174.241 104.686 174.239 104.694 174.236 104.701C174.232 104.707 174.227 104.713 174.221 104.718C174.214 104.722 174.207 104.725 174.199 104.726C174.192 104.727 174.184 104.726 174.177 104.723C171.525 104.503 168.866 104.807 166.208 104.681C166.131 104.681 166.125 104.568 166.196 104.556Z" fill="#263238"/>
<path d="M165.886 109.271C166.502 109.221 167.122 109.255 167.728 109.372C168.372 109.449 169.021 109.539 169.665 109.64C170.952 109.849 172.24 110.075 173.515 110.349C173.575 110.349 173.569 110.451 173.515 110.439C172.228 110.242 170.94 110.057 169.647 109.914C168.997 109.843 168.354 109.771 167.704 109.712C167.089 109.69 166.477 109.602 165.88 109.449C165.862 109.442 165.847 109.429 165.836 109.413C165.826 109.397 165.82 109.377 165.821 109.358C165.822 109.338 165.828 109.32 165.84 109.304C165.852 109.288 165.868 109.277 165.886 109.271Z" fill="#263238"/>
<path d="M165.785 114.825C166.342 114.787 166.901 114.847 167.436 115.004L169.224 115.308C170.416 115.505 171.572 115.696 172.752 115.85C172.806 115.85 172.8 115.952 172.752 115.946C171.56 115.791 170.368 115.66 169.176 115.499L167.388 115.249C166.844 115.223 166.308 115.097 165.809 114.879L165.785 114.825Z" fill="#263238"/>
<path d="M187.956 103.495L186.508 123.33C186.508 123.33 203.375 122.186 206.045 120.255C209.227 117.954 220.063 102.87 222.584 96.7785C225.105 90.6874 221.743 88.6371 216.475 92.6065C211.206 96.5758 201.837 104.389 201.104 104.759C200.371 105.128 187.956 103.495 187.956 103.495Z" fill="#DBDBDB"/>
<path d="M213.185 100.76C213.185 100.927 213.118 101.088 213 101.206C212.881 101.325 212.721 101.391 212.553 101.391C212.386 101.391 212.225 101.325 212.106 101.206C211.988 101.088 211.921 100.927 211.921 100.76C211.921 100.592 211.988 100.431 212.106 100.313C212.225 100.195 212.386 100.128 212.553 100.128C212.721 100.128 212.881 100.195 213 100.313C213.118 100.431 213.185 100.592 213.185 100.76ZM220.253 100.128C220.094 100.13 219.942 100.192 219.826 100.302C219.711 100.412 219.641 100.562 219.632 100.721C219.622 100.88 219.672 101.037 219.773 101.16C219.874 101.283 220.018 101.364 220.176 101.386L220.772 100.378C220.714 100.296 220.636 100.23 220.545 100.186C220.454 100.143 220.354 100.122 220.253 100.128ZM216.403 94.6269C216.236 94.6269 216.075 94.6934 215.957 94.8119C215.838 94.9304 215.772 95.0911 215.772 95.2587C215.772 95.4262 215.838 95.5869 215.957 95.7054C216.075 95.8238 216.236 95.8904 216.403 95.8904C216.571 95.8904 216.732 95.8238 216.85 95.7054C216.968 95.5869 217.035 95.4262 217.035 95.2587C217.035 95.0911 216.968 94.9304 216.85 94.8119C216.732 94.6934 216.571 94.6269 216.403 94.6269ZM189.452 111.178C189.327 111.178 189.205 111.215 189.101 111.284C188.997 111.354 188.916 111.452 188.868 111.568C188.821 111.683 188.808 111.81 188.833 111.933C188.857 112.055 188.917 112.168 189.005 112.256C189.094 112.345 189.206 112.405 189.329 112.429C189.451 112.454 189.579 112.441 189.694 112.393C189.809 112.345 189.908 112.264 189.977 112.161C190.047 112.057 190.084 111.935 190.084 111.81C190.084 111.727 190.068 111.644 190.036 111.568C190.004 111.491 189.958 111.422 189.899 111.363C189.84 111.304 189.771 111.258 189.694 111.226C189.617 111.194 189.535 111.178 189.452 111.178ZM197.152 111.178C196.985 111.178 196.824 111.244 196.706 111.363C196.587 111.481 196.521 111.642 196.521 111.81C196.521 111.977 196.587 112.138 196.706 112.256C196.824 112.375 196.985 112.441 197.152 112.441C197.32 112.441 197.481 112.375 197.599 112.256C197.718 112.138 197.784 111.977 197.784 111.81C197.784 111.642 197.718 111.481 197.599 111.363C197.481 111.244 197.32 111.178 197.152 111.178ZM204.853 111.178C204.685 111.178 204.525 111.244 204.406 111.363C204.288 111.481 204.221 111.642 204.221 111.81C204.221 111.977 204.288 112.138 204.406 112.256C204.525 112.375 204.685 112.441 204.853 112.441C205.02 112.441 205.181 112.375 205.3 112.256C205.418 112.138 205.485 111.977 205.485 111.81C205.485 111.642 205.418 111.481 205.3 111.363C205.181 111.244 205.02 111.178 204.853 111.178ZM212.553 111.178C212.386 111.178 212.225 111.244 212.106 111.363C211.988 111.481 211.921 111.642 211.921 111.81C211.921 111.977 211.988 112.138 212.106 112.256C212.225 112.375 212.386 112.441 212.553 112.441C212.721 112.441 212.881 112.375 213 112.256C213.118 112.138 213.185 111.977 213.185 111.81C213.185 111.642 213.118 111.481 213 111.363C212.881 111.244 212.721 111.178 212.553 111.178ZM193.302 105.677C193.135 105.677 192.974 105.743 192.856 105.862C192.737 105.98 192.671 106.141 192.671 106.308C192.671 106.476 192.737 106.637 192.856 106.755C192.974 106.874 193.135 106.94 193.302 106.94C193.47 106.94 193.631 106.874 193.749 106.755C193.868 106.637 193.934 106.476 193.934 106.308C193.934 106.141 193.868 105.98 193.749 105.862C193.631 105.743 193.47 105.677 193.302 105.677ZM201.003 105.677C200.835 105.677 200.674 105.743 200.556 105.862C200.437 105.98 200.371 106.141 200.371 106.308C200.371 106.476 200.437 106.637 200.556 106.755C200.674 106.874 200.835 106.94 201.003 106.94C201.17 106.94 201.331 106.874 201.449 106.755C201.568 106.637 201.634 106.476 201.634 106.308C201.634 106.141 201.568 105.98 201.449 105.862C201.331 105.743 201.17 105.677 201.003 105.677ZM208.703 105.677C208.535 105.677 208.375 105.743 208.256 105.862C208.138 105.98 208.071 106.141 208.071 106.308C208.071 106.476 208.138 106.637 208.256 106.755C208.375 106.874 208.535 106.94 208.703 106.94C208.871 106.94 209.031 106.874 209.15 106.755C209.268 106.637 209.335 106.476 209.335 106.308C209.335 106.141 209.268 105.98 209.15 105.862C209.031 105.743 208.871 105.677 208.703 105.677ZM216.403 105.677C216.236 105.677 216.075 105.743 215.957 105.862C215.838 105.98 215.772 106.141 215.772 106.308C215.772 106.476 215.838 106.637 215.957 106.755C216.075 106.874 216.236 106.94 216.403 106.94C216.571 106.94 216.732 106.874 216.85 106.755C216.968 106.637 217.035 106.476 217.035 106.308C217.035 106.141 216.968 105.98 216.85 105.862C216.732 105.743 216.571 105.677 216.403 105.677ZM189.452 122.228C189.369 122.227 189.286 122.243 189.209 122.274C189.131 122.305 189.061 122.352 189.002 122.411C188.942 122.469 188.895 122.539 188.863 122.616C188.831 122.693 188.814 122.776 188.814 122.859C188.814 122.959 188.839 123.058 188.886 123.145L190.078 123.05C190.097 122.988 190.107 122.924 190.108 122.859C190.108 122.774 190.091 122.69 190.058 122.612C190.024 122.534 189.976 122.463 189.914 122.404C189.853 122.345 189.781 122.299 189.701 122.269C189.622 122.238 189.537 122.224 189.452 122.228ZM197.152 122.228C197.032 122.226 196.913 122.262 196.813 122.329L197.349 122.263C197.287 122.239 197.22 122.227 197.152 122.228ZM193.302 116.727C193.177 116.727 193.055 116.764 192.951 116.833C192.847 116.902 192.766 117.001 192.719 117.117C192.671 117.232 192.658 117.359 192.683 117.482C192.707 117.604 192.767 117.717 192.856 117.805C192.944 117.893 193.057 117.954 193.179 117.978C193.302 118.002 193.429 117.99 193.544 117.942C193.66 117.894 193.758 117.813 193.828 117.709C193.897 117.605 193.934 117.483 193.934 117.358C193.935 117.275 193.919 117.193 193.888 117.116C193.856 117.039 193.81 116.969 193.751 116.91C193.692 116.851 193.622 116.805 193.545 116.773C193.468 116.742 193.386 116.726 193.302 116.727ZM201.003 116.727C200.878 116.727 200.756 116.764 200.652 116.833C200.548 116.902 200.467 117.001 200.419 117.117C200.371 117.232 200.359 117.359 200.383 117.482C200.407 117.604 200.468 117.717 200.556 117.805C200.644 117.893 200.757 117.954 200.879 117.978C201.002 118.002 201.129 117.99 201.244 117.942C201.36 117.894 201.459 117.813 201.528 117.709C201.597 117.605 201.634 117.483 201.634 117.358C201.635 117.275 201.619 117.193 201.588 117.116C201.556 117.039 201.51 116.969 201.451 116.91C201.392 116.851 201.322 116.805 201.245 116.773C201.168 116.742 201.086 116.726 201.003 116.727ZM208.703 116.727C208.561 116.724 208.421 116.769 208.308 116.856C208.195 116.942 208.114 117.064 208.079 117.202C208.043 117.34 208.056 117.486 208.114 117.616C208.172 117.746 208.273 117.853 208.399 117.919C208.655 117.627 208.923 117.323 209.204 116.983C209.148 116.902 209.073 116.837 208.985 116.792C208.898 116.747 208.801 116.725 208.703 116.727Z" fill="white"/>
<path d="M209.871 116.16C210.05 115.898 217.023 106.368 218.674 103.686C219.199 102.816 219.747 101.898 220.277 101.088C220.313 101.04 220.397 101.088 220.367 101.147C220.122 101.684 219.92 102.142 219.657 102.613C219.526 102.84 219.401 103.066 219.27 103.287C219.568 102.977 219.866 102.691 220.2 102.399C220.206 102.392 220.215 102.387 220.225 102.387C220.234 102.386 220.243 102.389 220.25 102.396C220.258 102.402 220.262 102.411 220.262 102.42C220.263 102.43 220.26 102.439 220.253 102.446C219.967 102.798 219.687 103.15 219.371 103.478C219.228 103.628 219.079 103.772 218.924 103.907L218.889 103.978C216.24 108.284 213.251 112.369 209.949 116.196C209.901 116.256 209.835 116.22 209.871 116.16Z" fill="#263238"/>
<path d="M192.039 105.432C192.039 105.379 192.122 105.379 192.122 105.432C192.194 108.174 191.371 120.177 191.079 121.733C191.079 121.781 190.99 121.775 190.99 121.733C191.151 116.077 191.407 110.492 192.039 105.432Z" fill="#263238"/>
<path d="M214.27 67.1573C213.674 67.497 209.502 67.8784 208.798 71.2458C208.262 73.8027 209.955 75.1794 212.345 75.3761C214.985 75.5907 217.881 73.9099 217.881 73.9099C218.477 76.5145 219.199 79.8699 220.182 80.2454C220.981 80.5613 221.91 79.4289 221.91 79.4289C222.894 81.4613 223.227 86.0564 222.989 87.0458C222.435 89.3761 220.605 92.8031 223.621 95.2765C224.282 95.8189 226.845 96.7129 229.348 95.4673C231.852 94.2216 231.989 92.1237 232.889 91.2655C233.789 90.4072 236.763 90.0735 237.46 88.2855C238.157 86.4975 237.651 84.5903 237.943 83.7141C238.235 82.838 239.427 82.4804 239.51 80.6865C239.594 78.8925 237.788 78.4932 237.067 77.2535C236.56 76.3893 237.067 75.2211 235.91 74.047C234.349 72.4319 232.156 73.7848 230.463 72.1637C229.14 70.8942 225.546 65.9057 220.832 65.3633C218.496 65.1109 216.152 65.7518 214.27 67.1573Z" fill="#101010"/>
<path d="M225.093 67.1692C226.226 68.0675 227.299 69.0391 228.305 70.0777C228.836 70.5604 229.342 71.067 229.909 71.5021C230.175 71.7213 230.467 71.9074 230.779 72.0564C230.847 72.0961 230.922 72.1243 230.999 72.1398C231.077 72.1622 231.157 72.1743 231.238 72.1756C231.417 72.1756 231.601 72.1756 231.786 72.1756C232.551 72.146 233.317 72.158 234.081 72.2114C234.863 72.2446 235.612 72.5335 236.214 73.0338C236.497 73.2982 236.703 73.6338 236.81 74.0053C236.9 74.3801 236.916 74.7687 236.858 75.1496C236.7 75.8717 236.712 76.6205 236.894 77.3369C236.617 76.6453 236.523 75.8942 236.62 75.1556C236.654 74.8046 236.619 74.4504 236.518 74.1126C236.396 73.7988 236.19 73.5247 235.922 73.3199C235.354 72.9068 234.676 72.6705 233.973 72.6405C233.246 72.5809 232.489 72.6405 231.72 72.6405C231.53 72.6405 231.333 72.6405 231.124 72.6405C230.916 72.6265 230.714 72.5697 230.528 72.4736C230.187 72.3044 229.868 72.0921 229.581 71.8418C229.02 71.3769 228.49 70.8751 227.995 70.3399L226.541 68.7426C226.093 68.1878 225.609 67.6623 225.093 67.1692Z" fill="#263238"/>
<path d="M238.396 82.987C238.328 83.4894 238.363 84.0002 238.497 84.4889C238.58 84.9955 238.67 85.5022 238.729 86.0147C238.802 86.5359 238.818 87.0635 238.777 87.5882C238.747 88.1358 238.583 88.6679 238.3 89.1377C237.601 89.9723 236.61 90.5093 235.529 90.6397C235.016 90.741 234.51 90.8125 234.021 90.9257C233.517 90.9957 233.039 91.1881 232.626 91.486C232.996 91.1145 233.456 90.8455 233.961 90.7052C234.456 90.5503 234.957 90.437 235.446 90.2999C236.399 90.0317 237.388 89.6563 237.919 88.8874C238.165 88.4779 238.312 88.0167 238.348 87.5405C238.399 87.0435 238.411 86.5433 238.384 86.0445C238.384 85.5379 238.318 85.0313 238.277 84.5187C238.277 84.2625 238.277 84.0062 238.277 83.7439C238.247 83.4855 238.288 83.2239 238.396 82.987Z" fill="#263238"/>
<path d="M218.436 73.2126C217.943 73.7076 217.388 74.1363 216.785 74.4881C216.195 74.8413 215.562 75.1158 214.901 75.3046C214.573 75.4011 214.238 75.4768 213.9 75.5311L213.388 75.6026L212.869 75.6324C212.522 75.6503 212.173 75.6503 211.826 75.6324C211.48 75.6324 211.129 75.5728 210.771 75.5609C211.111 75.6681 211.457 75.7635 211.802 75.841C212.156 75.9097 212.515 75.9515 212.875 75.9661C213.599 76 214.324 75.9134 215.021 75.7099C215.719 75.5065 216.378 75.1861 216.97 74.7622C217.557 74.3491 218.056 73.8221 218.436 73.2126Z" fill="#263238"/>
<path d="M218.144 72.712C217.819 74.0785 217.756 75.4941 217.959 76.884C218.052 77.5902 218.27 78.2743 218.603 78.9044C218.76 79.2257 218.981 79.5115 219.252 79.7441C219.524 79.9768 219.84 80.1514 220.182 80.2573C219.599 79.9139 219.148 79.3852 218.901 78.7554C218.644 78.1352 218.47 77.4839 218.382 76.8184C218.206 75.4569 218.126 74.0847 218.144 72.712Z" fill="#263238"/>
<path d="M221.112 80.1977C221.112 80.1977 222.727 77.176 224.092 77.7124C225.457 78.2488 224.467 82.4804 223.049 83.2135C222.872 83.319 222.675 83.3874 222.47 83.4145C222.266 83.4415 222.058 83.4268 221.86 83.371C221.661 83.3153 221.476 83.2197 221.316 83.0902C221.156 82.9606 221.023 82.7998 220.927 82.6175L221.112 80.1977Z" fill="#F7A9A0"/>
<path d="M223.752 78.9164C223.752 78.9164 223.788 78.9461 223.752 78.9581C222.757 79.5064 222.328 80.5375 222.065 81.5864C222.114 81.4793 222.185 81.3836 222.273 81.3054C222.361 81.2272 222.465 81.1682 222.577 81.1323C222.689 81.0964 222.808 81.0843 222.925 81.0969C223.042 81.1094 223.155 81.1462 223.257 81.205C223.287 81.205 223.257 81.2706 223.257 81.2646C223.067 81.2297 222.87 81.2545 222.694 81.3356C222.518 81.4167 222.371 81.55 222.274 81.7175C222.115 81.9995 221.985 82.2971 221.887 82.6056C221.851 82.701 221.672 82.6711 221.696 82.5639V82.5341C221.553 81.2109 222.357 79.2263 223.752 78.9164Z" fill="#263238"/>
<path d="M63.0287 211.091C66.8133 203.313 73.4348 199.32 80.9087 201.525C88.3825 203.731 89.5328 214.137 83.9602 216.765C78.3876 219.394 72.815 211.723 69.8767 210.144C66.9384 208.564 63.0287 211.091 63.0287 211.091Z" fill="#F3A13B"/>
<path d="M59.3693 231.796C59.3693 230.861 59.4229 229.919 59.4527 228.983C59.5242 227.112 59.5838 225.24 59.6553 223.369C59.7805 219.942 60.15 216.58 61.5685 213.428C62.8286 210.561 64.9326 208.148 67.6 206.508C68.5851 205.91 69.6481 205.451 70.7588 205.143C71.7659 204.128 73.0451 203.427 74.4421 203.123C76.1692 202.772 77.9444 202.728 79.6869 202.992C79.7524 202.992 79.7524 203.099 79.6869 203.087C78.0247 202.874 76.3367 202.996 74.7222 203.445C74.0308 203.636 73.36 203.896 72.7197 204.219C72.3165 204.437 71.9301 204.684 71.5634 204.958C73.0686 204.645 74.6236 204.66 76.1228 205C76.6649 205.131 77.1951 205.306 77.7082 205.525C78.1142 205.43 78.5316 205.394 78.9479 205.417C79.493 205.433 80.0346 205.509 80.563 205.644C81.6427 205.948 82.6755 206.399 83.6324 206.985C83.64 206.993 83.6448 207.003 83.6462 207.014C83.6476 207.025 83.6456 207.037 83.6403 207.046C83.6351 207.056 83.6269 207.064 83.617 207.069C83.607 207.074 83.5957 207.076 83.5847 207.074C82.649 206.56 81.6459 206.179 80.6047 205.942C80.0986 205.828 79.5846 205.752 79.067 205.715C78.7812 205.7 78.4947 205.7 78.2088 205.715C80.3344 206.7 82.0441 208.403 83.0364 210.525C83.0364 210.585 82.9708 210.632 82.947 210.573C82.3582 209.342 81.4994 208.259 80.4346 207.406C79.3697 206.552 78.1261 205.95 76.7963 205.644C76.6354 205.602 76.4625 205.578 76.2957 205.548C76.3379 205.797 76.3657 206.048 76.3791 206.299C76.4268 206.681 76.4923 207.056 76.5698 207.432C76.7209 208.202 76.9199 208.963 77.1658 209.709C77.4158 210.463 77.7164 211.2 78.0658 211.914C78.4025 212.67 78.8265 213.384 79.3293 214.041C79.3332 214.047 79.3361 214.052 79.3377 214.059C79.3394 214.065 79.3398 214.071 79.339 214.078C79.3382 214.084 79.3361 214.09 79.3329 214.096C79.3297 214.101 79.3254 214.106 79.3204 214.11C79.3153 214.114 79.3095 214.117 79.3033 214.118C79.2971 214.12 79.2906 214.121 79.2842 214.12C79.2779 214.119 79.2717 214.117 79.2662 214.114C79.2606 214.11 79.2557 214.106 79.2518 214.101C78.8048 213.398 78.2803 212.754 77.8691 212.021C77.4775 211.324 77.1388 210.599 76.8559 209.852C76.5739 209.094 76.3527 208.314 76.1943 207.521C76.1109 207.098 76.0453 206.681 75.9977 206.252C75.946 205.999 75.93 205.74 75.95 205.483C75.0721 205.349 74.1804 205.331 73.2978 205.429C73.6315 207.283 73.9891 209.22 75.0262 210.829C75.0619 210.883 74.9725 210.93 74.9427 210.877C74.4553 210.022 74.0253 209.136 73.6554 208.224C73.3156 207.337 73.101 206.406 73.0176 205.459C71.4779 205.666 69.9914 206.164 68.6371 206.925C66.0884 208.41 64.053 210.637 62.8022 213.308C61.4881 216.187 60.753 219.295 60.6387 222.457C60.3944 226.432 60.3407 230.431 59.9414 234.377C59.9414 234.639 59.5063 234.723 59.4587 234.431C59.344 233.557 59.3141 232.675 59.3693 231.796Z" fill="#263238"/>
<path d="M68.1126 205.882C68.3617 205.581 68.6504 205.314 68.9708 205.09C69.2807 204.833 69.6026 204.583 69.9304 204.356C70.5878 203.908 71.3148 203.572 72.0819 203.361C72.1415 203.361 72.1713 203.445 72.0819 203.457C71.31 203.653 70.5875 204.009 69.9602 204.5C69.6443 204.732 69.3642 204.982 69.0423 205.239C68.7869 205.514 68.5032 205.762 68.196 205.978C68.1424 206.007 68.0708 205.942 68.1126 205.882Z" fill="#263238"/>
<path d="M80.1875 208.701C80.8072 209.425 81.3805 210.188 81.904 210.984C82.4212 211.789 82.8526 212.646 83.1913 213.541C83.1913 213.541 83.1913 213.583 83.1496 213.541C82.2833 211.847 81.2596 210.239 80.0921 208.737C80.0802 208.719 80.1517 208.654 80.1875 208.701Z" fill="#263238"/>
<path d="M72.0462 207.932C72.1283 208.418 72.2725 208.891 72.4753 209.339C72.684 209.772 72.925 210.188 73.1965 210.585C73.1965 210.614 73.1965 210.638 73.1547 210.62C72.5053 209.868 72.0908 208.942 71.9627 207.956C71.9449 207.897 72.0402 207.867 72.0462 207.932Z" fill="#263238"/>
<path d="M59.8937 211.282C59.8937 211.282 54.5297 204.547 44.1951 206.937C34.367 209.202 29.8255 227.231 39.7608 229.383C49.6962 231.534 47.932 214.864 51.5616 212.033C54.2198 209.953 58.064 210.388 59.8937 211.282Z" fill="#F3A13B"/>
<path d="M36.2087 216.777C36.8812 216.19 37.592 215.649 38.3364 215.156C39.0395 214.679 39.8032 214.298 40.6071 214.024C41.0152 213.406 41.4715 212.822 41.972 212.277C42.8772 211.296 43.9262 210.458 45.0831 209.792C44.9818 209.792 44.8805 209.792 44.7732 209.792C44.2253 209.762 43.6761 209.762 43.1282 209.792C42.0265 209.863 40.9465 210.132 39.9396 210.585C39.88 210.585 39.8383 210.519 39.8979 210.495C40.9203 210.054 41.9902 209.732 43.0865 209.536C43.6193 209.439 44.1602 209.393 44.7017 209.399C44.9904 209.4 45.2788 209.416 45.5659 209.446H45.7327C46.6823 208.971 47.6818 208.603 48.7127 208.35L48.4267 208.272C47.9208 208.162 47.4095 208.079 46.8949 208.022C45.866 207.907 44.8266 207.923 43.8017 208.07C43.7361 208.07 43.7183 207.98 43.8017 207.974C44.8375 207.846 45.8821 207.804 46.9247 207.849C47.802 207.872 48.6746 207.983 49.5293 208.183C50.1511 208.066 50.7805 207.995 51.4126 207.968C54.9886 207.813 58.952 209.16 61.1691 212.14C63.3863 215.12 63.8273 219.066 64.2207 222.642C64.8238 227.627 64.9575 232.657 64.62 237.667C64.62 237.965 64.1789 237.911 64.173 237.631C64.0359 233.382 63.8869 229.126 63.4816 224.895C63.2909 222.934 63.0823 220.961 62.7545 219.018C62.521 217.345 62.041 215.716 61.3301 214.184C60.5641 212.616 59.3509 211.31 57.8435 210.43C56.3276 209.563 54.6379 209.043 52.8967 208.91C51.3375 208.779 49.7674 208.926 48.2598 209.345C48.3045 209.647 48.3045 209.955 48.2598 210.257C48.2292 210.642 48.1532 211.022 48.0333 211.389C47.9192 211.736 47.7736 212.071 47.5982 212.391C47.4075 212.748 47.1691 213.064 46.9545 213.404C46.9188 213.457 46.8353 213.404 46.8711 213.35C47.2971 212.742 47.5729 212.041 47.6757 211.306C47.7412 210.959 47.7831 210.609 47.8009 210.257C47.8009 209.989 47.8009 209.72 47.8009 209.452C46.1614 209.958 44.6311 210.767 43.2891 211.836C43.0329 212.039 42.7945 212.253 42.5561 212.474C42.8967 212.789 43.1916 213.15 43.4322 213.547C43.7861 214.066 44.0951 214.614 44.356 215.186C44.8337 216.33 45.1564 217.532 45.3155 218.762C45.3155 218.821 45.2261 218.839 45.2202 218.762C45.0219 217.565 44.6186 216.412 44.0282 215.353C43.7571 214.828 43.4505 214.322 43.1103 213.839C42.9375 213.588 42.7587 213.344 42.568 213.106C42.4667 212.975 42.3594 212.844 42.2581 212.706C41.0427 213.898 40.0497 215.296 39.3257 216.837C39.8087 217.353 40.2106 217.94 40.5177 218.577C40.8875 219.243 41.2101 219.934 41.4833 220.645C41.9864 222.024 42.4005 223.433 42.7229 224.865C42.7229 224.924 42.6335 224.942 42.6216 224.865C42.3096 223.418 41.817 222.017 41.1555 220.693C40.8455 220.043 40.5237 219.405 40.178 218.774C39.8199 218.197 39.4955 217.6 39.2065 216.986C38.5144 218.486 38.1101 220.104 38.0145 221.754C38.0109 221.764 38.004 221.773 37.995 221.78C37.9859 221.786 37.975 221.79 37.9639 221.79C37.9527 221.79 37.9419 221.786 37.9328 221.78C37.9237 221.773 37.9169 221.764 37.9132 221.754C38.104 219.156 38.9 216.64 40.2376 214.405C39.6059 214.673 38.9681 214.93 38.3602 215.257C37.5843 215.673 36.8618 216.181 36.2087 216.771C36.2206 216.896 36.161 216.819 36.2087 216.777Z" fill="#263238"/>
<path d="M37.2398 214.626C37.6473 214.235 38.109 213.906 38.6106 213.648C39.122 213.416 39.6524 213.229 40.1959 213.088C40.2555 213.088 40.2734 213.171 40.1959 213.183C39.662 213.326 39.1491 213.539 38.6702 213.815C38.1796 214.066 37.7093 214.355 37.2636 214.679C37.258 214.678 37.2527 214.676 37.2481 214.672C37.2436 214.669 37.24 214.664 37.2377 214.659C37.2354 214.653 37.2343 214.648 37.2347 214.642C37.2351 214.636 37.2368 214.63 37.2398 214.626Z" fill="#263238"/>
<path d="M54.8039 202.288C54.8039 202.288 53.8145 190.19 44.8209 186.268C37.3053 182.972 33.032 191.435 38.3185 196.602C42.6157 200.78 49.4995 198.891 54.8039 202.288Z" fill="#F3A13B"/>
<path d="M39.9814 188.61C41.3498 189.164 42.6851 189.797 43.9805 190.505C45.0562 191.13 46.0932 191.818 47.0857 192.568C46.9367 192.264 46.8056 191.942 46.6566 191.644C46.4241 191.173 46.1678 190.72 45.8937 190.273C45.3411 189.349 44.6743 188.498 43.909 187.74C43.8673 187.698 43.909 187.627 43.9805 187.674C44.7406 188.425 45.4382 189.236 46.0665 190.1C46.3783 190.54 46.6649 190.998 46.9248 191.471C47.1885 191.905 47.3891 192.375 47.5208 192.866L47.6221 192.937C49.1937 194.188 50.6335 195.596 51.9192 197.139C51.9192 197.02 51.8656 196.901 51.8358 196.793C51.6689 196.197 51.4842 195.601 51.2934 195.005C50.9059 193.764 50.359 192.578 49.6664 191.477C49.6306 191.423 49.72 191.376 49.7498 191.429C50.4586 192.529 51.0879 193.679 51.6332 194.868C51.8732 195.45 52.0723 196.047 52.2292 196.656C52.356 197.046 52.4536 197.444 52.5212 197.848C52.9086 198.343 53.296 198.849 53.6596 199.362C57.5216 204.863 59.4586 211.508 59.9235 218.16C60.0586 220.143 60.0924 222.133 60.0248 224.12C60.0112 226.118 59.8338 228.111 59.4944 230.08C59.4944 230.205 59.2739 230.169 59.2798 230.044C59.3275 228.298 59.5063 226.557 59.5421 224.805C59.5778 223.053 59.5123 221.301 59.3692 219.554C59.0995 216.099 58.4621 212.683 57.468 209.363C56.4185 205.921 54.8703 202.652 52.8728 199.66C52.4914 199.583 52.1159 199.481 51.7464 199.386C51.3769 199.29 50.8464 199.153 50.3994 199.028C49.5347 198.806 48.6942 198.499 47.8903 198.11C47.8792 198.103 47.8714 198.092 47.8686 198.079C47.8658 198.066 47.8683 198.053 47.8754 198.042C47.8825 198.031 47.8937 198.023 47.9066 198.02C47.9194 198.017 47.9328 198.02 47.9439 198.027C48.7358 198.458 49.5938 198.754 50.4829 198.903C51.1921 199.046 51.9192 199.136 52.6285 199.296C51.9729 198.349 51.2815 197.425 50.5365 196.549C48.8206 196.703 47.0911 196.574 45.4169 196.167C44.528 195.952 43.654 195.679 42.8004 195.351C41.8945 195.005 41.0124 194.558 40.1542 194.189C40.0886 194.159 40.1542 194.058 40.1959 194.099C41.8062 194.976 43.5637 195.55 45.3811 195.792C46.9858 196.049 48.6075 196.184 50.2326 196.197C49.5948 195.464 48.9392 194.749 48.23 194.075C45.846 191.829 43.0627 189.76 39.9516 188.682C39.892 188.688 39.9218 188.586 39.9814 188.61Z" fill="#263238"/>
<path d="M47.3002 188.646C47.7048 189.158 48.0732 189.698 48.4028 190.261C48.7411 190.853 49.0072 191.483 49.1955 192.138H49.1597C48.8617 191.542 48.6055 190.946 48.3015 190.35C48.0044 189.769 47.6447 189.221 47.2287 188.717C47.187 188.67 47.2585 188.598 47.3002 188.646Z" fill="#263238"/>
<path d="M61.7949 200.113C61.8486 200.631 63.1538 195.72 70.7349 191.358C77.6426 187.394 85.8853 177.084 79.1147 170.575C73.6732 165.318 59.256 176.774 61.7949 200.113Z" fill="#F3A13B"/>
<path d="M56.5561 228.268C56.6611 223.152 57.0591 218.045 57.7481 212.975C58.347 208.307 59.4234 203.714 60.9606 199.267C61.5566 197.669 62.1526 196.096 62.8737 194.546C62.8367 193.95 62.8467 193.353 62.9035 192.758C62.9453 191.984 63.0108 191.209 63.0823 190.434C63.1539 189.659 63.2313 188.89 63.3267 188.121C63.4221 187.353 63.583 186.584 63.6128 185.815C63.6128 185.802 63.6178 185.79 63.6268 185.781C63.6357 185.772 63.6478 185.767 63.6605 185.767C63.6731 185.767 63.6852 185.772 63.6942 185.781C63.7031 185.79 63.7081 185.802 63.7081 185.815C63.5512 186.647 63.4575 187.49 63.428 188.336C63.3744 189.081 63.3327 189.826 63.3088 190.571C63.285 191.316 63.3088 192.073 63.3088 192.818C63.3088 193.086 63.3088 193.378 63.3088 193.664C64.03 192.15 64.7929 190.684 65.6213 189.218C65.1087 186.065 65.7763 182.769 66.4199 179.682C66.4199 179.622 66.5272 179.652 66.5153 179.712C66.1998 181.322 66.0322 182.958 66.0147 184.599C66.0147 185.892 66.0445 187.192 66.0504 188.485C66.2352 188.175 66.414 187.889 66.6047 187.555C67.5881 185.946 68.643 184.367 69.7635 182.835C69.6711 182.087 69.6952 181.329 69.835 180.588C69.9611 179.758 70.1443 178.937 70.3833 178.132C70.6277 177.328 70.9078 176.535 71.2297 175.748C71.5515 174.962 71.9985 174.193 72.3144 173.364C72.3144 173.299 72.4395 173.364 72.4038 173.406C71.999 174.163 71.6792 174.963 71.4502 175.79C71.2064 176.573 71.0074 177.369 70.8542 178.174C70.6933 178.973 70.5621 179.777 70.4489 180.588C70.3714 181.124 70.3237 181.679 70.2343 182.215C71.8606 180.028 73.6391 177.959 75.5566 176.023C75.6043 175.975 75.6699 176.023 75.6281 176.094C72.7229 179.349 70.1289 182.869 67.8801 186.608L67.6358 187.031C68.053 186.768 68.5298 186.56 68.9291 186.345C69.6622 185.934 70.4012 185.529 71.1462 185.124C71.8912 184.718 72.5826 184.343 73.2978 183.932C73.6673 183.723 74.0309 183.508 74.4063 183.336C74.8566 183.137 75.2876 182.898 75.6937 182.62C75.7533 182.579 75.8129 182.668 75.7533 182.704C75.0202 183.103 74.3765 183.699 73.6673 184.152C72.9581 184.605 72.2369 185.046 71.4979 185.457C70.1449 186.208 68.6788 186.751 67.3259 187.531C66.4021 189.147 65.5379 190.803 64.769 192.496C65.5736 191.978 66.4021 191.483 67.2365 191.018C67.7788 190.714 68.3152 190.422 68.8635 190.13C69.4066 189.879 69.9203 189.57 70.3953 189.206C70.4053 189.201 70.4165 189.2 70.4275 189.202C70.4384 189.204 70.4485 189.209 70.4563 189.217C70.4642 189.224 70.4694 189.235 70.4713 189.245C70.4731 189.256 70.4716 189.268 70.4668 189.278C69.5964 190.07 68.6339 190.754 67.6 191.316C66.6226 191.882 65.6392 192.436 64.62 192.931C63.8095 194.719 63.0704 196.507 62.4208 198.379C59.1964 207.408 58.0223 217.045 57.468 226.599C57.3011 229.448 57.2177 232.297 57.1819 235.152C57.1462 238.007 57.2952 240.844 57.2892 243.692C57.2892 243.776 57.1521 243.794 57.1402 243.692C56.7945 241.165 56.7349 238.597 56.6277 236.052C56.5204 233.507 56.5025 230.878 56.5561 228.268Z" fill="#263238"/>
<path d="M70.3774 187.257C71.7665 186.645 73.1161 185.946 74.4183 185.165C75.7411 184.423 77.0224 183.609 78.2565 182.728C78.2565 182.728 78.2982 182.728 78.2565 182.763C77.0904 183.708 75.8597 184.571 74.5732 185.344C73.2248 186.094 71.8315 186.761 70.4012 187.341C70.3655 187.37 70.3178 187.281 70.3774 187.257Z" fill="#263238"/>
<path d="M68.196 177.012C68.3093 176.571 68.4463 176.136 68.5953 175.701C68.5905 175.694 68.5879 175.685 68.5879 175.677C68.5879 175.668 68.5905 175.66 68.5953 175.653C68.6907 175.409 68.792 175.164 68.8933 174.92L68.9291 174.831L68.9827 174.694C68.947 174.694 68.9351 174.866 68.9053 174.95C68.8969 174.997 68.8829 175.043 68.8635 175.087C68.3635 176.778 67.987 178.503 67.7371 180.248C67.7398 180.255 67.7407 180.263 67.7397 180.271C67.7387 180.278 67.7359 180.286 67.7315 180.292C67.7271 180.298 67.7213 180.304 67.7145 180.307C67.7077 180.311 67.7001 180.313 67.6924 180.313C67.6847 180.313 67.6771 180.311 67.6703 180.307C67.6635 180.304 67.6576 180.298 67.6533 180.292C67.6489 180.286 67.6461 180.278 67.6451 180.271C67.6441 180.263 67.645 180.255 67.6477 180.248C67.7289 179.155 67.9124 178.071 68.196 177.012Z" fill="#263238"/>
<path d="M48.522 230.128L49.0644 236.558L50.7272 256.179H68.5238L70.1807 236.558L70.723 230.128H48.522Z" fill="#455A64"/>
<path d="M48.522 230.128L49.0644 236.558H70.1807L70.723 230.128H48.522Z" fill="#263238"/>
<path d="M46.7817 233.715H72.4753V227.547H46.7817V233.715Z" fill="#455A64"/>
<path d="M158.5 196.134C159.167 196.519 159.167 197.481 158.5 197.866L146.5 204.794C145.833 205.179 145 204.698 145 203.928L145 190.072C145 189.302 145.833 188.821 146.5 189.206L158.5 196.134Z" fill="#7653DC"/>
<path d="M172.671 195.656C173.289 196.049 173.289 196.951 172.671 197.344L168.036 200.288C167.37 200.71 166.5 200.232 166.5 199.443L166.5 193.557C166.5 192.768 167.37 192.29 168.036 192.712L172.671 195.656Z" fill="#E3E3E3"/>
<path d="M176.671 195.656C177.289 196.049 177.289 196.951 176.671 197.344L172.036 200.288C171.37 200.71 170.5 200.232 170.5 199.443L170.5 193.557C170.5 192.768 171.37 192.29 172.036 192.712L176.671 195.656Z" fill="#E3E3E3"/>
<path d="M127.329 197.344C126.711 196.951 126.711 196.049 127.329 195.656L131.964 192.712C132.63 192.29 133.5 192.768 133.5 193.557L133.5 199.443C133.5 200.232 132.63 200.71 131.964 200.288L127.329 197.344Z" fill="#E3E3E3"/>
<path d="M123.329 197.344C122.711 196.951 122.711 196.049 123.329 195.656L127.964 192.712C128.63 192.29 129.5 192.768 129.5 193.557L129.5 199.443C129.5 200.232 128.63 200.71 127.964 200.288L123.329 197.344Z" fill="#E3E3E3"/>
<rect x="115" y="150" width="49" height="5" rx="2.5" fill="#D9D9D9"/>
<rect x="115" y="158" width="22" height="5" rx="2.5" fill="#D9D9D9"/>
<rect x="115" y="176" width="71" height="5" rx="2.5" fill="#E3E3E3"/>
<rect x="115" y="176" width="49" height="5" rx="2.5" fill="#7653DC"/>
</g>
<defs>
<clipPath id="clip0_0_363">
<rect width="298" height="298" fill="white"/>
</clipPath>
</defs>
</svg>
